<svg width="94" height="25" viewBox="0 0 94 25" fill="none" xmlns="http://www.w3.org/2000/svg">
<g clip-path="url(#clip0)">
<path fill-rule="evenodd" clip-rule="evenodd" d="M3.39748 19.7205L4.93798 15.5375L6.40748 19.7205H3.39748ZM7.90448 23.936H9.31698L5.65098 13.8665H4.25398L0.41748 23.936H1.84348L2.96998 20.85H6.80648L7.90448 23.936Z" fill="#2D2A6E"/>
<path fill-rule="evenodd" clip-rule="evenodd" d="M12.3879 20.4585C11.0789 20.1755 9.72688 19.8665 9.72688 18.2875C9.72688 16.901 10.8994 16.027 12.6704 16.027C13.8159 16.027 14.9099 16.4535 15.4559 17.496L14.2649 17.993C14.1694 17.7145 13.5529 17.0135 12.5244 17.0135C11.5164 17.0135 11.0119 17.61 11.0119 18.1265C11.0119 18.8515 11.9704 19.1535 12.7879 19.318C14.4804 19.6585 15.9519 20.0915 15.9519 21.687C15.9519 22.927 14.8504 24.092 12.7464 24.092C11.1974 24.092 10.0969 23.574 9.56738 22.4915L10.9259 22.2545C11.2669 22.8475 11.8834 23.1045 12.8019 23.1045C13.9409 23.1045 14.6069 22.67 14.6069 21.8475C14.6074 20.9775 13.5144 20.702 12.3879 20.4585Z" fill="#2D2A6E"/>
<path fill-rule="evenodd" clip-rule="evenodd" d="M18.7729 16.2591H20.1639V17.3296H18.7729V21.6856C18.7729 22.5891 18.7729 22.9766 19.3224 22.9766C19.5649 22.9766 19.9054 22.8791 20.1639 22.7991V23.8591C19.9374 23.8911 19.4029 23.9881 18.9174 23.9881C17.4299 23.9881 17.4299 23.2651 17.4459 22.2671V17.3296H16.2324V16.2591H17.4459V14.4301L18.7729 13.8781V16.2591Z" fill="#2D2A6E"/>
<path fill-rule="evenodd" clip-rule="evenodd" d="M22.6082 16.2784V17.6494C23.3357 16.2029 24.7112 16.1704 25.2287 16.1544V17.4809C23.9672 17.4894 23.3487 17.7479 22.9322 18.4264C22.5902 18.9804 22.6082 19.7589 22.6082 20.4164V23.9359H21.3237V16.2784H22.6082Z" fill="#2D2A6E"/>
<path fill-rule="evenodd" clip-rule="evenodd" d="M40.0812 13.8679V15.1239L34.3822 22.7279H40.2242V23.9359H32.8267V22.6279L38.5537 15.1094H32.8312V13.8679H40.0812Z" fill="#2D2A6E"/>
<path fill-rule="evenodd" clip-rule="evenodd" d="M49.5619 16.3314V17.4439C50.2769 16.1939 51.4949 16.0804 51.9494 16.0804C52.9239 16.0804 54.0914 16.5679 54.4639 17.8314C54.5944 18.2834 54.5944 18.7519 54.5944 19.3984V23.9359H53.3134V19.6084C53.3134 18.8324 53.3134 18.6069 53.2319 18.3479C53.0049 17.6214 52.2904 17.2984 51.5919 17.2984C51.0239 17.2984 50.5364 17.4759 50.1299 17.8794C49.5614 18.4449 49.5614 19.0254 49.5614 19.5924V23.9359H48.2764V16.3314H49.5619Z" fill="#2D2A6E"/>
<path fill-rule="evenodd" clip-rule="evenodd" d="M69.3711 22.5805C68.8916 23.3335 68.0206 24.0915 66.4526 24.0915C63.7466 24.0915 62.7246 22.006 62.7246 20.1325C62.7246 17.968 63.9021 16.0065 66.3396 16.0065C67.2956 16.0065 68.6346 16.2945 69.3756 17.529L68.1716 18.0315C67.9441 17.53 67.4541 16.9505 66.3881 16.9505C64.2761 16.9505 64.1526 19.357 64.1526 20.036C64.1526 22.559 65.6021 23.1045 66.4681 23.1045C67.4596 23.1045 67.9661 22.629 68.2336 22.105L69.3711 22.5805Z" fill="#2D2A6E"/>
<path fill-rule="evenodd" clip-rule="evenodd" d="M42.0698 19.3234H46.1303C46.0168 17.3204 44.8623 16.9819 44.0923 16.9819C42.9933 16.9824 42.2148 17.7889 42.0698 19.3234ZM47.1873 22.4814C46.7493 23.2269 45.9038 24.0824 44.2368 24.0824C41.9768 24.0824 40.6768 22.5464 40.6768 19.9714C40.6768 17.0949 42.5743 15.9954 44.1893 15.9954C45.5933 15.9954 46.9393 16.7714 47.3918 18.6934C47.5378 19.3399 47.5378 19.9229 47.5378 20.2464H42.0378C42.0058 21.5254 42.5418 23.1439 44.3503 23.1124C45.0883 23.0999 45.6078 22.7649 45.9393 22.2399L47.1873 22.4814Z" fill="#2D2A6E"/>
<path fill-rule="evenodd" clip-rule="evenodd" d="M56.6767 19.3234H60.7377C60.6247 17.3204 59.4702 16.9819 58.6997 16.9819C57.6017 16.9824 56.8227 17.7889 56.6767 19.3234ZM61.7952 22.4814C61.3572 23.2269 60.5122 24.0824 58.8452 24.0824C56.5852 24.0824 55.2847 22.5464 55.2847 19.9714C55.2847 17.0949 57.1822 15.9954 58.7967 15.9954C60.2012 15.9954 61.5462 16.7714 61.9992 18.6934C62.1447 19.3399 62.1447 19.9229 62.1447 20.2464H56.6447C56.6122 21.5254 57.1502 23.1439 58.9572 23.1124C59.6952 23.0999 60.2162 22.7649 60.5467 22.2399L61.7952 22.4814Z" fill="#2D2A6E"/>
<path fill-rule="evenodd" clip-rule="evenodd" d="M76.393 23.944L75.057 23.949C75.057 23.949 74.9415 23.4095 74.904 22.8205C74.516 23.2235 73.796 24.057 72.341 24.057C70.853 24.057 69.749 23.1745 69.749 21.8815C69.749 21.476 69.8625 21.0725 70.0895 20.7315C70.528 20.084 71.3395 19.566 73.619 19.3885L74.8305 19.2915V19.097C74.8305 18.304 74.8305 16.9775 73.1225 16.9775C72.048 16.9775 71.682 17.4985 71.558 17.969L70.375 17.475C70.3935 17.434 70.415 17.392 70.4375 17.3495C70.892 16.5085 71.7835 15.9905 73.073 15.9905C73.783 15.9905 74.702 16.169 75.301 16.638C76.1535 17.284 76.133 18.5565 76.133 18.5565L76.1845 22.4835C76.1845 22.4845 76.23 23.6245 76.393 23.944ZM74.6365 21.833C74.8305 21.4125 74.847 21.2345 74.847 20.1165C74.347 20.1975 73.6705 20.2945 72.8425 20.473C71.4195 20.78 71.177 21.316 71.177 21.8495C71.177 22.4645 71.6625 22.983 72.616 22.983C73.506 22.983 74.2655 22.627 74.6365 21.833Z" fill="#2D2A6E"/>
<path fill-rule="evenodd" clip-rule="evenodd" d="M31.9194 23.944L30.5834 23.949C30.5834 23.949 30.4674 23.4095 30.4304 22.8205C30.0424 23.2235 29.3234 24.057 27.8679 24.057C26.3789 24.057 25.2754 23.1745 25.2754 21.8815C25.2754 21.476 25.3889 21.0725 25.6164 20.7315C26.0549 20.084 26.8659 19.566 29.1444 19.3885L30.3574 19.2915V19.097C30.3574 18.304 30.3574 16.9775 28.6484 16.9775C27.5739 16.9775 27.2089 17.4985 27.0839 17.969L25.9009 17.475C25.9204 17.434 25.9409 17.392 25.9639 17.3495C26.4184 16.5085 27.3104 15.9905 28.5989 15.9905C29.3084 15.9905 30.2284 16.169 30.8269 16.638C31.6794 17.284 31.6589 18.5565 31.6589 18.5565L31.7104 22.4835C31.7104 22.4845 31.7559 23.6245 31.9194 23.944ZM30.1629 21.833C30.3579 21.4125 30.3729 21.2345 30.3729 20.1165C29.8739 20.1975 29.1964 20.2945 28.3694 20.473C26.9474 20.78 26.7044 21.316 26.7044 21.8495C26.7044 22.4645 27.1889 22.983 28.1424 22.983C29.0319 22.983 29.7914 22.627 30.1629 21.833Z" fill="#2D2A6E"/>
<path fill-rule="evenodd" clip-rule="evenodd" d="M93.9513 13.3369C93.9463 13.2899 93.9408 13.2429 93.9293 13.1974C93.9053 13.1044 93.8798 13.0114 93.8443 12.9224C93.8058 12.8279 93.7583 12.7364 93.7078 12.6479C93.6513 12.5504 93.5883 12.4569 93.5218 12.3654C93.4833 12.3119 93.4388 12.2619 93.3928 12.2144C93.3413 12.1614 93.2883 12.1089 93.2303 12.0629C93.0993 11.9589 92.9693 11.8529 92.8263 11.7654C92.5143 11.5739 92.2033 11.3749 91.8683 11.2274C91.4633 11.0494 91.0718 10.8384 90.6543 10.6934L87.8408 9.71636C87.8408 9.18136 87.8563 8.64636 87.8408 8.11186C87.8173 7.31836 87.7853 6.52436 87.7238 5.73286C87.6808 5.18186 87.6148 4.63236 87.5288 4.08636C87.4618 3.66036 87.3603 3.24036 87.2658 2.81986C87.2443 2.72336 87.2118 2.62986 87.1798 2.53686C87.1513 2.45286 87.1203 2.36936 87.0858 2.28736C87.0548 2.21336 87.0208 2.14036 86.9843 2.06836C86.9513 2.00386 86.9148 1.94086 86.8763 1.87936C86.8418 1.82386 86.8033 1.76986 86.7638 1.71736C86.7278 1.66986 86.6898 1.62436 86.6493 1.58086C86.6128 1.54086 86.5738 1.50286 86.5333 1.46636C86.4968 1.43336 86.4578 1.40286 86.4178 1.37336C86.3808 1.34636 86.3423 1.32136 86.3033 1.29886C86.2668 1.27786 86.2298 1.25736 86.1908 1.24136C86.1228 1.21336 86.0538 1.18686 85.9833 1.16686C85.9248 1.15036 85.8643 1.14136 85.8043 1.13286C85.7593 1.12636 85.7138 1.12336 85.6688 1.12236C85.5918 1.12086 85.5138 1.11936 85.4373 1.12486C85.3553 1.13086 85.2733 1.14086 85.1928 1.15686C85.1063 1.17386 85.0208 1.19536 84.9373 1.22336C84.8473 1.25336 84.7598 1.28986 84.6753 1.33136C84.5808 1.37786 84.4903 1.43186 84.4008 1.48786C84.3063 1.54736 84.2128 1.60936 84.1233 1.67636C83.9668 1.79436 83.8068 1.90886 83.6643 2.04286C83.0768 2.59486 82.4998 3.15786 81.9358 3.73286C81.6348 4.03936 81.3433 4.35636 81.0708 4.68736C79.9868 5.99986 78.9078 7.31636 77.8653 8.66186C77.4023 9.25886 76.9858 9.89036 76.5573 10.5114C76.4503 10.6669 76.3503 10.8274 76.2578 10.9919C76.0973 11.2794 75.9468 11.5724 75.7998 11.8669C75.7618 11.9434 75.7318 12.0244 75.7028 12.1049C75.6748 12.1819 75.6493 12.2599 75.6288 12.3389C75.6098 12.4134 75.5933 12.4894 75.5848 12.5659C75.5773 12.6364 75.5763 12.7079 75.5808 12.7784C75.5833 12.8139 75.5938 12.8489 75.6053 12.8824C75.6178 12.9189 75.6343 12.9539 75.6533 12.9874C75.6743 13.0239 75.6988 13.0584 75.7243 13.0914C75.7523 13.1274 75.7808 13.1624 75.8128 13.1944C75.8823 13.2629 75.9533 13.3299 76.0288 13.3919C76.1063 13.4559 76.1863 13.5169 76.2703 13.5719C76.4168 13.6679 76.5683 13.7574 76.7188 13.8454C76.7848 13.8839 76.8543 13.9169 76.9213 13.9519C76.9453 13.9639 76.8738 13.9269 76.8503 13.9139C76.8473 13.9129 76.8398 13.9084 76.8423 13.9094C76.8463 13.9104 76.8503 13.9134 76.8538 13.9154C76.8908 13.9349 76.9278 13.9539 76.9653 13.9734C77.8918 14.4574 78.8218 14.9344 79.7438 15.4259C80.6708 15.9199 81.5973 16.4154 82.5128 16.9299L84.5713 18.0864C83.8563 18.6274 83.1278 19.1499 82.4278 19.7084C82.1603 19.9219 81.9118 20.1584 81.6693 20.3999C81.4723 20.5964 81.2868 20.8049 81.1118 21.0204C80.9718 21.1929 80.8443 21.3754 80.7253 21.5629C80.6318 21.7089 80.5498 21.8634 80.4763 22.0199C80.4203 22.1389 80.3753 22.2629 80.3358 22.3884C80.3073 22.4764 80.2888 22.5669 80.2728 22.6579C80.2633 22.7124 80.2613 22.7689 80.2583 22.8249C80.2573 22.8439 80.2608 22.8629 80.2608 22.8819C80.2618 22.9324 80.2593 22.9824 80.2623 23.0324C80.2648 23.0794 80.2703 23.1264 80.2778 23.1719C80.2848 23.2164 80.2943 23.2604 80.3063 23.3039C80.3173 23.3449 80.3318 23.3859 80.3473 23.4259C80.3628 23.4644 80.3803 23.5024 80.3993 23.5394C80.4183 23.5754 80.4378 23.6119 80.4623 23.6444C80.5098 23.7094 80.5578 23.7739 80.6143 23.8309C80.6708 23.8879 80.7328 23.9399 80.7978 23.9874C80.8628 24.0354 80.9328 24.0774 81.0038 24.1164C81.0758 24.1554 81.1503 24.1894 81.2263 24.2209C81.3018 24.2524 81.3778 24.2859 81.4578 24.3034C81.7453 24.3669 82.0348 24.4249 82.3268 24.4644C82.4698 24.4839 82.6153 24.4919 82.7588 24.4804C83.2563 24.4414 83.7533 24.3909 84.2463 24.3134C84.8218 24.2229 85.3928 24.1019 85.9623 23.9774C86.6338 23.8304 87.3033 23.6749 87.9683 23.5004C88.4383 23.3769 88.9163 23.2674 89.3663 23.0834C89.7208 22.9389 90.0788 22.8009 90.4303 22.6494C90.5093 22.6159 90.5838 22.5719 90.6578 22.5284C90.7248 22.4894 90.7908 22.4469 90.8538 22.4019C90.9093 22.3624 90.9643 22.3204 91.0138 22.2734C91.0558 22.2339 91.0943 22.1899 91.1283 22.1429C91.1578 22.1034 91.1823 22.0594 91.2028 22.0139C91.2208 21.9739 91.2343 21.9309 91.2438 21.8874C91.2528 21.8479 91.2568 21.8064 91.2568 21.7659C91.2568 21.7264 91.2518 21.6869 91.2448 21.6484C91.2368 21.6109 91.2258 21.5734 91.2118 21.5369C91.1983 21.5004 91.1803 21.4649 91.1608 21.4309C91.1413 21.3969 91.1198 21.3634 91.0968 21.3319C91.0738 21.3004 91.0493 21.2689 91.0228 21.2399C90.9713 21.1859 90.9188 21.1314 90.8633 21.0824C90.8148 21.0394 90.7628 21.0009 90.7103 20.9639C90.6588 20.9274 90.6053 20.8934 90.5518 20.8609C90.1853 20.6399 89.8203 20.4144 89.4513 20.1969L87.9058 19.2844C88.8443 18.6479 89.7913 18.0234 90.7213 17.3734C91.1188 17.0959 91.5098 16.8089 91.8868 16.5044C92.2098 16.2434 92.5173 15.9634 92.8183 15.6784C92.9618 15.5429 93.0893 15.3924 93.2193 15.2439C93.2783 15.1764 93.3328 15.1044 93.3843 15.0309C93.4318 14.9644 93.4798 14.8974 93.5173 14.8244C93.6383 14.5844 93.7573 14.3429 93.8583 14.0939C93.8988 13.9924 93.9158 13.8829 93.9388 13.7759C93.9493 13.7264 93.9533 13.6754 93.9573 13.6249C93.9613 13.5764 93.9628 13.5274 93.9623 13.4789C93.9598 13.4319 93.9568 13.3839 93.9513 13.3369ZM82.4153 7.02086C82.9393 6.47736 83.4643 5.93486 83.9973 5.39986C84.0943 5.30236 84.2023 5.21486 84.3063 5.12436C84.3423 5.09286 84.3808 5.06286 84.4193 5.03336C84.4488 5.01086 84.4778 4.98736 84.5098 4.96736C84.5323 4.95336 84.5563 4.94136 84.5808 4.93136C84.6068 4.92086 84.6328 4.91036 84.6608 4.90586C84.6898 4.90086 84.7193 4.90136 84.7493 4.90286C84.7643 4.90336 84.7793 4.90736 84.7938 4.91236C84.8088 4.91686 84.8243 4.92386 84.8383 4.93186C84.8533 4.94036 84.8683 4.95036 84.8813 4.96136C84.8968 4.97386 84.9113 4.98786 84.9243 5.00286C84.9393 5.01986 84.9533 5.03786 84.9653 5.05686C84.9793 5.07886 84.9943 5.10136 85.0033 5.12586C85.0288 5.19186 85.0518 5.25936 85.0688 5.32836C85.0933 5.42686 85.1123 5.52686 85.1278 5.62786C85.1658 5.87386 85.2008 6.12036 85.2283 6.36736C85.2643 6.68736 85.2903 7.00836 85.3198 7.32886L85.4788 9.03536L83.5773 8.59786L81.8028 8.30586L81.3733 8.27286L81.2338 8.26936C81.6273 7.85286 82.0178 7.43336 82.4153 7.02086ZM81.2228 9.39386L81.2298 9.38336L81.2398 9.37786L81.2543 9.37636L81.2773 9.37986L81.3438 9.39886L81.5158 9.46486L81.7498 9.56886C82.3538 9.82736 82.9578 10.0859 83.5623 10.3434C83.9628 10.5144 84.3638 10.6839 84.7638 10.8549L85.5553 11.1929L85.6258 11.2244C85.6683 11.8499 85.7203 12.4749 85.7533 13.1009C85.7793 13.5899 85.7898 14.0799 85.8018 14.5694C85.8033 14.6314 85.7983 14.6929 85.7938 14.7544C85.7918 14.7889 85.7883 14.8239 85.7833 14.8584C85.7778 14.8929 85.7713 14.9274 85.7613 14.9604C85.7513 14.9929 85.7403 15.0259 85.7238 15.0559C85.7083 15.0854 85.6868 15.1124 85.6653 15.1384C85.6548 15.1514 85.6403 15.1629 85.6268 15.1734C85.6128 15.1839 85.5973 15.1944 85.5813 15.2034C85.5648 15.2124 85.5463 15.2199 85.5283 15.2264C85.5083 15.2334 85.4878 15.2394 85.4668 15.2434C85.4413 15.2479 85.4153 15.2504 85.3898 15.2514C85.3628 15.2519 85.3358 15.2514 85.3088 15.2479C85.2798 15.2444 85.2518 15.2384 85.2243 15.2314C85.1943 15.2239 85.1648 15.2159 85.1368 15.2044C85.0753 15.1784 85.0138 15.1509 84.9558 15.1179C84.8898 15.0804 84.8263 15.0379 84.7648 14.9929C84.6968 14.9429 84.6318 14.8894 84.5688 14.8339C84.4998 14.7729 84.4323 14.7109 84.3698 14.6444C84.2328 14.4979 84.0973 14.3489 83.9703 14.1934C83.7408 13.9129 83.5023 13.6374 83.3008 13.3364C83.0228 12.9214 82.7378 12.5114 82.4673 12.0914C82.3058 11.8409 82.1403 11.5914 82.0058 11.3244L81.3953 10.1149L81.2638 9.72936L81.2338 9.61486L81.2158 9.50436L81.2143 9.42436L81.2228 9.39386ZM87.9688 20.1144C88.1333 20.2184 88.2988 20.3209 88.4608 20.4279C88.6703 20.5659 88.8803 20.7029 89.0833 20.8499C89.2293 20.9554 89.3688 21.0694 89.5068 21.1859C89.5678 21.2379 89.6253 21.2939 89.6803 21.3529C89.7248 21.4014 89.7638 21.4544 89.8033 21.5074C89.8058 21.5109 89.8063 21.5154 89.8058 21.5194C89.8058 21.5289 89.8048 21.5379 89.8018 21.5469C89.8003 21.5529 89.7958 21.5579 89.7918 21.5619C89.7858 21.5674 89.7793 21.5724 89.7723 21.5754C89.7628 21.5799 89.7528 21.5824 89.7423 21.5844C89.7278 21.5874 89.7128 21.5894 89.6983 21.5904C88.8963 21.6504 88.0933 21.7054 87.2918 21.7684L84.1583 22.0144L84.0608 22.0204L84.1058 21.9719L84.3033 21.7974C84.7098 21.4954 85.1028 21.1749 85.5218 20.8909L87.2963 19.6879C87.5198 19.8299 87.7443 19.9719 87.9688 20.1144ZM90.3823 13.9454C90.3738 13.9744 90.3628 14.0029 90.3493 14.0294C90.3328 14.0604 90.3138 14.0904 90.2913 14.1169C90.2378 14.1804 90.1813 14.2424 90.1203 14.2989C89.9893 14.4184 89.8598 14.5409 89.7153 14.6434C89.2173 14.9964 88.7248 15.3579 88.2208 15.7024C87.8738 15.9399 87.5158 16.1619 87.1618 16.3894L85.1033 17.7119C84.8118 17.5449 84.5203 17.3774 84.2288 17.2109L80.5008 15.0799C79.6588 14.5769 78.8118 14.0824 77.9753 13.5704C77.8178 13.4739 77.6698 13.3619 77.5193 13.2549C77.4713 13.2209 77.4268 13.1819 77.3808 13.1459C77.3663 13.1349 77.3503 13.1249 77.3368 13.1129C77.3053 13.0839 77.2733 13.0539 77.2438 13.0219C77.2258 13.0019 77.2108 12.9804 77.1958 12.9579C77.1813 12.9344 77.1668 12.9099 77.1568 12.8839C77.1463 12.8574 77.1368 12.8294 77.1328 12.8004C77.1283 12.7704 77.1278 12.7399 77.1323 12.7099C77.1368 12.6769 77.1458 12.6449 77.1573 12.6139C77.1693 12.5804 77.1843 12.5474 77.2028 12.5169C77.2398 12.4539 77.2793 12.3914 77.3243 12.3329C77.3763 12.2659 77.4318 12.2019 77.4908 12.1414C77.9723 11.6459 78.4613 11.1574 78.9453 10.6639L80.2503 9.33236L80.3123 9.54736L80.4708 9.92536L80.4813 9.94836C80.8263 10.5464 81.1503 11.1569 81.5163 11.7424C81.9368 12.4154 82.3883 13.0689 82.8393 13.7214C83.0513 14.0269 83.2723 14.3264 83.5053 14.6169C83.7078 14.8694 83.9173 15.1174 84.1448 15.3484C84.3443 15.5509 84.5628 15.7359 84.7848 15.9144C84.8948 16.0024 85.0183 16.0734 85.1393 16.1459C85.1963 16.1809 85.2578 16.2089 85.3193 16.2364C85.3778 16.2619 85.4373 16.2844 85.4978 16.3039C85.5568 16.3229 85.6168 16.3384 85.6778 16.3509C85.7328 16.3624 85.7893 16.3714 85.8453 16.3764C85.8963 16.3809 85.9478 16.3819 85.9993 16.3799C86.0463 16.3789 86.0938 16.3744 86.1408 16.3669C86.1843 16.3604 86.2278 16.3504 86.2698 16.3384C86.3098 16.3274 86.3488 16.3134 86.3873 16.2969C86.4228 16.2824 86.4578 16.2649 86.4918 16.2459C86.5238 16.2279 86.5563 16.2094 86.5858 16.1869C86.6398 16.1459 86.6938 16.1034 86.7428 16.0569C86.7848 16.0169 86.8233 15.9729 86.8583 15.9269C86.9033 15.8684 86.9438 15.8064 86.9813 15.7429C87.0268 15.6659 87.0698 15.5864 87.1073 15.5049C87.1493 15.4139 87.1883 15.3214 87.2198 15.2264C87.2848 15.0284 87.3468 14.8289 87.3963 14.6259C87.4628 14.3519 87.5363 14.0774 87.5658 13.7964L87.7348 12.1709C88.1203 12.3504 88.5148 12.5134 88.8918 12.7099C89.2598 12.9019 89.6123 13.1239 89.9698 13.3359C90.0118 13.3609 90.0508 13.3899 90.0883 13.4209C90.1413 13.4649 90.1923 13.5114 90.2408 13.5609C90.2663 13.5869 90.2888 13.6164 90.3088 13.6464C90.3283 13.6759 90.3463 13.7074 90.3598 13.7399C90.3723 13.7719 90.3808 13.8064 90.3873 13.8404C90.3903 13.8574 90.3893 13.8749 90.3883 13.8924C90.3888 13.9109 90.3873 13.9289 90.3823 13.9454Z" fill="#EAC102"/>
</g>
<defs>
<clipPath id="clip0">
<rect width="94" height="24" fill="white" transform="translate(0 0.866455)"/>
</clipPath>
</defs>
</svg>
