<svg width="80" height="80" viewBox="0 0 80 80" fill="none" xmlns="http://www.w3.org/2000/svg">
<path d="M55.2984 45.5805C54.871 45.3683 54.3768 45.3344 53.9244 45.4863C53.472 45.6382 53.0985 45.9634 52.8858 46.3905C51.7463 48.6913 50.0122 50.6456 47.8632 52.0511C45.7141 53.4566 43.2283 54.2621 40.6632 54.3842C38.0981 54.5063 35.547 53.9405 33.2742 52.7455C31.0013 51.5505 29.0893 49.7698 27.7363 47.5876C26.3832 45.4055 25.6383 42.9014 25.5787 40.3347C25.5191 37.768 26.147 35.2321 27.3973 32.9895C28.6476 30.747 30.4748 28.8794 32.6898 27.5802C34.9047 26.2811 37.4268 25.5975 39.9948 25.6005C42.6794 25.5889 45.313 26.3342 47.5931 27.7511C49.8733 29.1679 51.7077 31.1987 52.8858 33.6105C53.1007 34.0401 53.4775 34.3669 53.9333 34.5188C54.3891 34.6707 54.8866 34.6353 55.3164 34.4205C55.7461 34.2057 56.0729 33.829 56.2249 33.3733C56.3768 32.9175 56.3415 32.4201 56.1266 31.9905C54.32 28.3558 51.3379 25.4382 47.6641 23.7113C43.9903 21.9843 39.8406 21.5493 35.8884 22.4769C31.9362 23.4045 28.4136 25.6403 25.8923 28.8213C23.371 32.0023 21.999 35.9418 21.999 40.0005C21.999 44.0592 23.371 47.9987 25.8923 51.1797C28.4136 54.3607 31.9362 56.5965 35.8884 57.5241C39.8406 58.4517 43.9903 58.0167 47.6641 56.2897C51.3379 54.5627 54.32 51.6451 56.1266 48.0105C56.2339 47.7969 56.2976 47.5642 56.3139 47.3258C56.3303 47.0874 56.299 46.8481 56.222 46.6219C56.1449 46.3957 56.0235 46.1872 55.8649 46.0083C55.7064 45.8295 55.5138 45.6841 55.2984 45.5805ZM56.1986 38.2005H38.9325L43.0735 34.0785C43.2414 33.9107 43.3745 33.7114 43.4654 33.4921C43.5562 33.2729 43.603 33.0378 43.603 32.8005C43.603 32.5631 43.5562 32.3281 43.4654 32.1088C43.3745 31.8896 43.2414 31.6903 43.0735 31.5225C42.9057 31.3547 42.7064 31.2215 42.487 31.1307C42.2677 31.0399 42.0326 30.9931 41.7952 30.9931C41.5578 30.9931 41.3227 31.0399 41.1034 31.1307C40.8841 31.2215 40.6848 31.3547 40.5169 31.5225L33.3152 38.7225C33.1513 38.8937 33.0228 39.0955 32.9371 39.3165C32.7571 39.7547 32.7571 40.2463 32.9371 40.6845C33.0228 40.9054 33.1513 41.1073 33.3152 41.2785L40.5169 48.4785C40.6843 48.6472 40.8834 48.7811 41.1028 48.8725C41.3222 48.9639 41.5575 49.0109 41.7952 49.0109C42.0329 49.0109 42.2682 48.9639 42.4876 48.8725C42.707 48.7811 42.9061 48.6472 43.0735 48.4785C43.2423 48.3111 43.3762 48.1121 43.4676 47.8927C43.559 47.6734 43.6061 47.4381 43.6061 47.2005C43.6061 46.9629 43.559 46.7276 43.4676 46.5082C43.3762 46.2889 43.2423 46.0898 43.0735 45.9225L38.9325 41.8005H56.1986C56.6761 41.8005 57.134 41.6108 57.4717 41.2733C57.8093 40.9357 57.999 40.4779 57.999 40.0005C57.999 39.5231 57.8093 39.0653 57.4717 38.7277C57.134 38.3901 56.6761 38.2005 56.1986 38.2005Z" fill="url(#paint0_linear)"/>
<rect x="1.5" y="1.5" width="77" height="77" rx="38.5" stroke="url(#paint1_linear)" stroke-width="3"/>
<defs>
<linearGradient id="paint0_linear" x1="21.649" y1="21.437" x2="63.26" y2="27.6825" gradientUnits="userSpaceOnUse">
<stop stop-color="#0068EC"/>
<stop offset="1" stop-color="#00BBF9"/>
</linearGradient>
<linearGradient id="paint1_linear" x1="-0.77778" y1="-1.25228" x2="91.6912" y2="12.6267" gradientUnits="userSpaceOnUse">
<stop stop-color="#0068EC"/>
<stop offset="1" stop-color="#00BBF9"/>
</linearGradient>
</defs>
</svg>
