<svg width="304" height="303" fill="none" xmlns="http://www.w3.org/2000/svg">
  <path d="m199.738 97.483.194 1.485-2.225.46-.297 3.164h2.666l3.545-.342 1.831-2.175-1.946-.757-1.065-1.226-1.6-2.591-.765-3.665-3.007.613-.843 1.291v1.456l1.448.992 2.064 1.295Z" fill="#333"/>
  <path d="m197.176 98.7.16-1.982-1.765-.76-2.467.57-1.831 2.938v1.904h2.135l3.768-2.67Zm-50.796 8.42-.543 1.399h-2.628v1.357h.625s.037.288.09.666l1.613-.135 1.007-.626.264-1.262 1.303-.111.515-1.062-1.197-.246-1.049.02Zm-6.776 2.464-.103 1.329 1.905-.161.197-1.332-1.143-.901-.856 1.065Z" fill="#333"/>
  <path d="M253.979 151.966a100.875 100.875 0 0 0-.453-8.687 99.37 99.37 0 0 0-6.618-27.229c-.255-.638-.489-1.283-.761-1.913-4.549-10.747-10.937-20.532-18.756-28.977a94.977 94.977 0 0 0-1.559-1.628 99.285 99.285 0 0 0-4.565-4.467C203.49 62.88 179.88 53 154 53c-26.098 0-49.877 10.057-67.703 26.488a101.191 101.191 0 0 0-11.435 12.484C61.8 108.868 54 130.034 54 152.998 54 208.142 98.862 253 154.004 253c38.787 0 72.462-22.211 89.038-54.573a99.118 99.118 0 0 0 8.165-22.021c.473-1.962.88-3.932 1.234-5.927a100.08 100.08 0 0 0 1.558-17.481c.005-.346-.016-.687-.02-1.032Zm-18.822-39.968.58-.649a88.37 88.37 0 0 1 2.151 4.499l-.946-.037-1.785.247v-4.06Zm-14.45-17.447.017-4.467a94.903 94.903 0 0 1 4.533 5.158l-1.802 2.681-6.297-.057-.395-1.312 3.944-2.003ZM100.076 83.449v-.168h2.003l.173-.687h3.278v1.431l-.942 1.259h-4.516l.004-1.835Zm3.2 4.463s2.003-.341 2.176-.341c.173 0 0 1.999 0 1.999l-4.516.284-.86-1.029 3.2-.913Zm138.252 39.696h-7.317l-4.459-3.32-4.693.457v2.863h-1.485l-1.604-1.144-8.128-2.06v-5.265l-10.299.802-3.192 1.715h-4.088l-2.003-.202-4.965 2.756v5.187l-10.147 7.321.843 3.126h2.057l-.539 2.978-1.448.531-.078 7.782 8.769 9.986h3.817l.23-.608h6.861l1.979-1.831h3.891l2.134 2.139 5.8.601-.769 7.712 6.437 11.364-3.389 6.478.23 3.052 2.67 2.661v7.338l3.504 4.714v6.096h3.027c-16.847 20.684-42.489 33.933-71.178 33.933-50.601.004-91.77-41.168-91.77-91.772a91.304 91.304 0 0 1 7.326-35.916v-2.862l3.282-3.986a90.189 90.189 0 0 1 3.665-6.293l.148 1.666-3.809 4.627a91.058 91.058 0 0 0-3.282 6.848v5.224l3.813 1.834v7.26l3.657 6.24 2.973.456.383-2.139-3.509-5.413-.687-5.26h2.057l.868 5.413 5.072 7.399-1.309 2.39 3.225 4.931 8.009 1.983v-1.296l3.204.457-.305 2.287 2.518.46 3.887 1.062 5.491 6.256 7.013.53.687 5.722-4.8 3.356-.227 5.108-.687 3.126 6.944 8.691.53 2.978s2.517.683 2.826.683c.304 0 5.643 4.043 5.643 4.043v15.708l1.905.535-1.296 7.247 3.204 4.274-.592 7.181 4.232 7.441 5.434 4.746 5.462.099.535-1.756-4.015-3.381.231-1.678.719-2.057.153-2.098-2.715-.082-1.37-1.719 2.254-2.168.305-1.637-2.518-.72.148-1.521 3.587-.543 5.454-2.62 1.831-3.357 5.721-7.321-1.3-5.725 1.757-3.048 5.26.16 3.542-2.805 1.143-11.048 3.928-4.989.687-3.204-3.582-1.148-2.365-3.878-8.083-.083-6.408-2.443-.305-4.569-2.138-3.739-5.796-.087-3.348-5.256-2.974-1.452-.152 1.604-5.413.321-1.983-2.76-5.647-1.148-4.652 5.376-7.321-1.242-.531-8.251-5.343-.913 2.143-4.047-.613-2.324-7.021 4.693-4.418-.539-1.575-3.451.963-3.558 2.434-4.487 5.607-2.838 10.826-.004-.029 3.303 3.891 1.809-.309-5.643 2.806-2.821 5.659-3.719.387-2.616 5.643-5.873 6.001-3.324-.53-.436 4.064-3.825 1.489.395.682.856 1.543-1.711.378-.169-1.69-.239-1.715-.571v-1.646l.909-.744h2.003l.917.403.794 1.604.97-.148v-.14l.28.095 2.814-.432.399-1.374 1.604.403v1.489l-1.489 1.024h.004l.218 1.633 5.096 1.571.012.062 1.173-.099.078-2.208-4.039-1.839-.231-1.061 3.353-1.143.148-3.209-3.505-2.134-.23-5.41-4.804 2.362h-1.753l.461-4.117-6.54-1.543-2.706 2.044v6.236l-4.866 1.542-1.95 4.064-2.114.341v-5.199l-4.574-.633-2.287-1.489-.921-3.369 8.181-4.787L132.5 84.9l.403 2.69 2.23-.115.172-1.353 2.332-.333.042-.473-1.004-.416-.23-1.431 2.867-.243 1.731-1.801.095-.132.02.008.527-.543 6.026-.76 2.665 2.262-6.988 3.722 8.892 2.098 1.152-2.974h3.887l1.374-2.591-2.748-.687V78.55l-8.617-3.817-5.948.687-3.356 1.756.23 4.27-3.508-.535-.539-2.361 3.361-3.052-6.1-.305-1.753.53-.76 2.057 2.286.387-.456 2.287-3.887.23-.609 1.522-5.639.157s-.156-3.2-.382-3.2c-.227 0 4.421-.079 4.421-.079l3.361-3.282-1.835-.917-2.439 2.369-4.047-.23-2.439-3.357h-5.187l-5.413 4.044h4.96l.453 1.451-1.288 1.197 5.492.153.839 1.982-6.183-.23-.3-1.526-3.887-.84-2.06-1.143-4.628.037C115.237 67.758 133.866 61.226 154 61.226c23.206 0 44.41 8.675 60.587 22.927l-1.09 1.95-4.233 1.657-1.785 1.937.412 2.258 2.184.305 1.316 3.29 3.768-1.518.621 4.401h-1.135l-3.094-.456-3.43.576-3.319 4.689-4.747.744-.687 4.064 2.003.473-.58 2.612-4.713-.946-4.323.946-.918 2.406.749 5.051 2.538 1.188 4.257-.024 2.875-.259.876-2.287 4.492-5.837 2.957.605 2.912-2.632.543 2.056 7.165 4.833-.876 1.176-3.229-.172 1.243 1.76 1.986.436 2.328-.971-.049-2.805 1.032-.518-.83-.88-4.78-2.666-1.259-3.541h3.974l1.271 1.259 3.422 2.949.144 3.566 3.545 3.776 1.321-5.175 2.455-1.341.461 4.233 2.398 2.632 4.784-.082a91.33 91.33 0 0 1 2.484 7.276l-.498.461ZM108.545 98.433l2.402-1.143 2.172.518-.749 2.916-2.344.745-1.481-3.036Zm12.747 6.865v1.888h-5.487l-2.057-.572.514-1.316 2.637-1.09h3.603v1.09h.79Zm2.525 2.633v1.83l-1.374.884-1.711.317v-3.031h3.085Zm-1.546-.745v-2.176l1.888 1.72-1.888.456Zm.859 4.401v1.781l-1.312 1.316h-2.916l.456-1.999 1.378-.119.284-.687 2.11-.292Zm-7.264-3.656h3.032l-3.887 5.433-1.604-.86.345-2.287 2.114-2.286Zm12.414 3.031v1.777h-2.916l-.798-1.152v-1.653h.23l3.484 1.028Zm-2.694-2.443.831-.872 1.402.872-1.123.925-1.11-.925Zm117.431 23.72.288-.337c.119.518.247 1.036.362 1.563l-.65-1.226Z" fill="#333"/>
  <path d="M69.557 114.22v2.862c1-2.336 2.102-4.614 3.282-6.848l-3.282 3.986Z" fill="#333"/>
  <path opacity=".2" d="M113.592 280.573c-2.346 7.525-10.384 11.786-17.652 8.735A150.005 150.005 0 0 1 5.004 133.672a150 150 0 1 1 225.978 146.067c-6.765 4.045-15.323.961-18.708-6.158-3.384-7.119-.299-15.565 6.374-19.761a121.453 121.453 0 0 0 6.06-201.57 121.454 121.454 0 1 0-120.212 209.659c7.198 3.212 11.443 11.139 9.096 18.664Z" fill="#0DE7FF"/>
  <path d="M235.413 289.288h-5.504v-1.616h8.288l-5.68 11.36h-2l4.896-9.744Zm2.841 9.264.384-1.648h-.576v-1.952h1.584v1.952l-.56 1.648h-.832Zm2.907-6.752c0-.544.107-1.056.32-1.536.214-.48.502-.896.864-1.248a4.039 4.039 0 0 1 1.312-.848 4.267 4.267 0 0 1 1.616-.304c.619 0 1.184.117 1.696.352.512.224.95.555 1.312.992.363.427.64.955.832 1.584.203.619.304 1.323.304 2.112 0 1.088-.106 2.043-.32 2.864-.202.811-.49 1.488-.864 2.032-.373.555-.832.971-1.376 1.248a3.793 3.793 0 0 1-1.776.416 4.115 4.115 0 0 1-2-.496 3.927 3.927 0 0 1-1.456-1.408l1.04-1.088c.246.448.582.8 1.008 1.056.438.267.918.4 1.44.4.8 0 1.435-.336 1.904-1.008.48-.683.731-1.637.752-2.864-.224.48-.576.859-1.056 1.136-.469.277-1.008.416-1.616.416a4.143 4.143 0 0 1-1.552-.288 4.028 4.028 0 0 1-1.248-.816 3.782 3.782 0 0 1-.832-1.2 3.764 3.764 0 0 1-.304-1.504Zm4.096-2.432c-.33 0-.645.064-.944.192a2.531 2.531 0 0 0-.768.528 2.626 2.626 0 0 0-.512.784 2.258 2.258 0 0 0-.192.928c0 .331.064.64.192.928.128.288.299.544.512.768.224.213.48.384.768.512.299.128.614.192.944.192.331 0 .64-.064.928-.192a2.42 2.42 0 0 0 .768-.512c.224-.224.4-.48.528-.768.128-.288.192-.597.192-.928 0-.331-.064-.64-.192-.928a2.473 2.473 0 0 0-.528-.784 2.289 2.289 0 0 0-.768-.528 2.258 2.258 0 0 0-.928-.192Zm14.271 4.16 2.672-4.896h1.776V297h-1.696v-5.488l-2.288 4.176h-.912l-2.304-4.176V297h-1.696v-8.368h1.792l2.656 4.896Zm5.638 2c.32-.021.587-.091.8-.208.214-.128.395-.352.544-.672.15-.32.272-.763.368-1.328a28.3 28.3 0 0 0 .304-2.224l.272-2.464h5.52V297h-1.744v-6.928h-2.208l-.208 1.536c-.149 1.077-.309 1.963-.48 2.656-.17.693-.389 1.248-.656 1.664-.256.405-.576.693-.96.864-.373.171-.832.267-1.376.288l-.176-1.552Zm14.729 1.632c-.672 0-1.264-.16-1.776-.48a3.577 3.577 0 0 1-1.216-1.248v4.976h-1.76v-11.776h1.552v1.504a3.68 3.68 0 0 1 1.232-1.2 3.362 3.362 0 0 1 1.728-.448c.576 0 1.104.117 1.584.352s.896.549 1.248.944c.352.395.624.853.816 1.376.202.523.304 1.072.304 1.648a5.29 5.29 0 0 1-.272 1.712 4.354 4.354 0 0 1-.768 1.376 3.893 3.893 0 0 1-1.184.928 3.28 3.28 0 0 1-1.488.336Zm-.576-1.504c.373 0 .709-.08 1.008-.24.309-.16.57-.373.784-.64.224-.267.394-.571.512-.912.117-.341.176-.693.176-1.056 0-.384-.07-.747-.208-1.088a2.743 2.743 0 0 0-.544-.896 2.438 2.438 0 0 0-1.856-.832c-.224 0-.459.043-.704.128a2.778 2.778 0 0 0-.688.352c-.214.149-.4.325-.56.528-.16.192-.272.405-.336.64v2.192c.106.256.245.496.416.72.17.224.357.416.56.576.213.16.442.288.688.384.245.096.496.144.752.144Zm4.726-.176h.464c.256-.043.47-.139.64-.288.171-.16.315-.405.432-.736.128-.331.235-.763.32-1.296.096-.544.187-1.232.272-2.064l.272-2.464h5.52v6.848h1.056v4.032h-1.536V297h-5.952v2.512h-1.488v-4.032Zm6.192 0v-5.408h-2.208l-.208 1.536c-.138 1.013-.293 1.829-.464 2.448-.16.608-.368 1.083-.624 1.424h3.504Z" fill="#333"/>
  <path d="M112.684 255.907a112.747 112.747 0 0 1-69.982-122.942 112.75 112.75 0 1 1 163.656 117.891" stroke="#333" stroke-width=".5" stroke-linecap="round" stroke-dasharray="1 8"/>
  <g filter="url(#a)">
    <path d="M113.592 280.573c-2.346 7.525-10.384 11.786-17.652 8.735A150.003 150.003 0 0 1 4.976 133.914 150 150 0 0 1 128.75 3.14c7.77-1.326 14.635 4.643 15.218 12.504.583 7.86-5.346 14.62-13.085 16.121A121.458 121.458 0 0 0 52.22 217.273a121.463 121.463 0 0 0 52.276 44.636c7.198 3.212 11.443 11.139 9.096 18.664Z" fill="url(#b)"/>
  </g>
  <path d="M133.406 17.479h-1.175c.12.305.185.634.185.978v4.134c0 .144-.027.281-.076.409h1.944c.726 0 1.316-.55 1.316-1.225V19.52c0-1.126-.984-2.042-2.194-2.042Zm-9.821.978c0-.344.065-.673.185-.978h-1.175c-1.21 0-2.195.916-2.195 2.042v2.254c0 .675.591 1.225 1.317 1.225h1.943a1.16 1.16 0 0 1-.075-.408v-4.135Zm5.759-2.042h-2.687c-1.21 0-2.194.916-2.194 2.042v4.135c0 .225.196.408.438.408h6.198c.243 0 .439-.183.439-.408v-4.135c0-1.126-.984-2.042-2.194-2.042ZM128 11c-1.455 0-2.638 1.102-2.638 2.456 0 .918.544 1.72 1.349 2.142.381.2.821.314 1.289.314.469 0 .908-.114 1.29-.314.805-.421 1.349-1.224 1.349-2.142 0-1.354-1.184-2.456-2.639-2.456Zm-4.633 2.29c-1.088 0-1.974.823-1.974 1.836 0 1.013.886 1.836 1.974 1.836.276 0 .539-.053.777-.148.413-.166.754-.459.964-.825.148-.258.232-.552.232-.863 0-1.013-.885-1.837-1.973-1.837Zm9.267 0c-1.088 0-1.973.823-1.973 1.836 0 .312.084.605.232.863.21.366.551.66.963.825.239.095.502.148.778.148 1.088 0 1.974-.823 1.974-1.836 0-1.013-.886-1.837-1.974-1.837Z" fill="#333"/>
  <defs>
    <linearGradient id="b" x1="23" y1="15.5" x2="167.934" y2="-53.914" gradientUnits="userSpaceOnUse">
      <stop stop-color="#47B2FE"/>
      <stop offset=".453" stop-color="#06ECFE"/>
    </linearGradient>
    <filter id="a" x="0" y=".955" width="148.007" height="295.348" filterUnits="userSpaceOnUse" color-interpolation-filters="sRGB">
      <feFlood flood-opacity="0" result="BackgroundImageFix"/>
      <feColorMatrix in="SourceAlpha" values="0 0 0 0 0 0 0 0 0 0 0 0 0 0 0 0 0 0 127 0" result="hardAlpha"/>
      <feOffset dy="2"/>
      <feGaussianBlur stdDeviation="2"/>
      <feComposite in2="hardAlpha" operator="out"/>
      <feColorMatrix values="0 0 0 0 0 0 0 0 0 0 0 0 0 0 0 0 0 0 0.35 0"/>
      <feBlend in2="BackgroundImageFix" result="effect1_dropShadow_1292:1472"/>
      <feBlend in="SourceGraphic" in2="effect1_dropShadow_1292:1472" result="shape"/>
    </filter>
  </defs>
</svg>
