<svg width="300" height="302" viewBox="0 0 300 302" fill="none" xmlns="http://www.w3.org/2000/svg">
<path d="M195.738 94.4833L195.932 95.9682L193.707 96.4288L193.41 99.5918H196.076L199.621 99.2504L201.452 97.0746L199.506 96.3178L198.441 95.0921L196.841 92.5008L196.076 88.836L193.069 89.4489L192.226 90.7404V92.1964L193.674 93.1877L195.738 94.4833Z" fill="#333333"/>
<path d="M193.176 95.7007L193.336 93.7181L191.571 92.9572L189.104 93.5289L187.273 96.4657V98.3701H189.408L193.176 95.7007Z" fill="#333333"/>
<path d="M142.38 104.12L141.837 105.519H139.209V106.876H139.834C139.834 106.876 139.871 107.164 139.924 107.542L141.537 107.407L142.544 106.781L142.808 105.519L144.111 105.408L144.626 104.346L143.429 104.1L142.38 104.12Z" fill="#333333"/>
<path d="M135.604 106.584L135.501 107.913L137.406 107.752L137.603 106.42L136.46 105.519L135.604 106.584Z" fill="#333333"/>
<path d="M249.979 148.966C249.95 146.041 249.802 143.137 249.526 140.279C248.601 130.749 246.322 121.613 242.908 113.05C242.653 112.412 242.419 111.767 242.147 111.137C237.598 100.39 231.21 90.6046 223.391 82.1604C222.877 81.6093 222.355 81.0663 221.832 80.5316C220.356 78.9974 218.838 77.5003 217.267 76.0648C199.49 59.8797 175.88 50 150 50C123.902 50 100.123 60.0566 82.2967 76.4884C78.1424 80.3177 74.3254 84.4967 70.8621 88.9717C57.7986 105.868 50 127.034 50 149.998C50 205.142 94.8625 250 150.004 250C188.791 250 222.466 227.789 239.042 195.427C242.587 188.509 245.347 181.134 247.207 173.406C247.68 171.444 248.087 169.474 248.441 167.479C249.448 161.798 249.999 155.958 249.999 149.998C250.004 149.652 249.983 149.311 249.979 148.966ZM231.157 108.998L231.737 108.349C232.498 109.825 233.209 111.326 233.888 112.848L232.942 112.811L231.157 113.058V108.998ZM216.707 91.5506L216.724 87.0838C218.295 88.7496 219.809 90.4648 221.257 92.2416L219.455 94.9234L213.158 94.8658L212.763 93.5537L216.707 91.5506ZM96.0759 80.4494V80.2807H98.079L98.2518 79.5938H101.53V81.0252L100.588 82.2838H96.0718L96.0759 80.4494ZM99.2759 84.9121C99.2759 84.9121 101.279 84.5707 101.452 84.5707C101.625 84.5707 101.452 86.5697 101.452 86.5697L96.9355 86.8535L96.0759 85.8252L99.2759 84.9121ZM237.528 124.608H230.211L225.752 121.288L221.059 121.745V124.608H219.574L217.97 123.464L209.842 121.404V116.139L199.543 116.941L196.351 118.656H192.263L190.26 118.454L185.295 121.21V126.397L175.148 133.718L175.991 136.844H178.048L177.509 139.822L176.061 140.353L175.983 148.135L184.752 158.121H188.569L188.799 157.513H195.66L197.639 155.682H201.53L203.664 157.821L209.464 158.422L208.695 166.134L215.132 177.498L211.743 183.976L211.973 187.028L214.643 189.689V197.027L218.147 201.741V207.837H221.174C204.327 228.521 178.685 241.77 149.996 241.77C99.3952 241.774 58.2264 200.602 58.2264 149.998C58.2264 137.26 60.8424 125.118 65.5519 114.082V111.22L68.8343 107.234C69.9736 105.083 71.1952 102.985 72.4991 100.941L72.6472 102.607L68.8384 107.234C67.6579 109.463 66.5556 111.742 65.5561 114.082V119.306L69.369 121.14V128.4L73.0256 134.64L75.9994 135.096L76.382 132.957L72.8734 127.544L72.1865 122.284H74.2431L75.111 127.697L80.1825 135.096L78.8745 137.486L82.0993 142.417L90.1077 144.4V143.104L93.3118 143.561L93.0075 145.848L95.5247 146.308L99.4117 147.37L104.903 153.626L111.916 154.156L112.603 159.878L107.803 163.234L107.576 168.342L106.889 171.468L113.833 180.159L114.363 183.137C114.363 183.137 116.88 183.82 117.189 183.82C117.493 183.82 122.832 187.863 122.832 187.863V203.571L124.737 204.106L123.441 211.353L126.645 215.627L126.053 222.808L130.285 230.249L135.719 234.995L141.181 235.094L141.716 233.338L137.701 229.957L137.932 228.279L138.651 226.222L138.804 224.124L136.089 224.042L134.719 222.323L136.973 220.155L137.278 218.518L134.76 217.798L134.908 216.277L138.495 215.734L143.949 213.114L145.78 209.757L151.501 202.436L150.201 196.711L151.958 193.663L157.218 193.823L160.76 191.018L161.903 179.97L165.831 174.981L166.518 171.777L162.936 170.629L160.571 166.751L152.488 166.668L146.08 164.225L145.775 159.656L143.637 155.917L137.841 155.83L134.493 150.574L131.519 149.122L131.367 150.726L125.954 151.047L123.971 148.287L118.324 147.139L113.672 152.515L106.351 151.273L105.82 143.022L100.477 142.109L102.62 138.062L102.007 135.738L94.9859 140.431L90.5683 139.892L88.993 136.441L89.9555 132.883L92.3905 128.396L97.9967 125.558L108.823 125.554L108.794 128.857L112.685 130.666L112.376 125.023L115.182 122.202L120.841 118.483L121.228 115.867L126.871 109.994L132.872 106.67L132.342 106.234L136.406 102.409L137.895 102.804L138.577 103.66L140.12 101.949L140.498 101.78L138.808 101.541L137.093 100.97V99.3244L138.002 98.5799H140.005L140.922 98.983L141.716 100.587L142.686 100.439V100.299L142.966 100.394L145.78 99.962L146.179 98.5882L147.783 98.9913V100.48L146.294 101.504H146.298L146.516 103.137L151.612 104.708C151.612 104.708 151.616 104.729 151.624 104.77L152.797 104.671L152.875 102.463L148.836 100.624L148.605 99.563L151.958 98.4195L152.106 95.2113L148.601 93.0766L148.371 87.6679L143.567 90.0288H141.814L142.275 85.9116L135.735 84.3692L133.029 86.4134V92.6488L128.163 94.1913L126.213 98.255L124.099 98.5964V93.3974L119.525 92.764L117.238 91.2751L116.317 87.9064L124.498 83.1188L128.5 81.9013L128.903 84.5913L131.133 84.4761L131.305 83.1229L133.637 82.7897L133.679 82.3167L132.675 81.9013L132.445 80.4699L135.312 80.2272L137.043 78.4257L137.138 78.2941L137.158 78.3023L137.685 77.7594L143.711 76.9985L146.376 79.2607L139.388 82.983L148.28 85.0807L149.432 82.1069H153.319L154.693 79.5157L151.945 78.8288V75.5506L143.328 71.7337L137.38 72.4206L134.024 74.1769L134.254 78.4463L130.746 77.9116L130.207 75.5506L133.568 72.4987L127.468 72.1943L125.715 72.7249L124.955 74.7815L127.241 75.1681L126.785 77.455L122.898 77.6853L122.289 79.2072L116.65 79.3635C116.65 79.3635 116.494 76.1635 116.268 76.1635C116.041 76.1635 120.689 76.0853 120.689 76.0853L124.05 72.8031L122.215 71.8859L119.776 74.255L115.729 74.0247L113.29 70.6684H108.103L102.69 74.7116H107.65L108.103 76.1635L106.815 77.3604L112.307 77.5126L113.146 79.4951L106.963 79.2648L106.663 77.7388L102.776 76.8997L100.716 75.7563L96.0882 75.7933C111.237 64.7578 129.866 58.2262 150 58.2262C173.206 58.2262 194.41 66.9008 210.587 81.1527L209.497 83.1023L205.264 84.7599L203.479 86.6972L203.891 88.9553L206.075 89.2596L207.391 92.5501L211.159 91.0324L211.78 95.4334H210.645L207.551 94.9769L204.121 95.5527L200.802 100.242L196.055 100.986L195.368 105.05L197.371 105.523L196.791 108.135L192.078 107.189L187.755 108.135L186.837 110.541L187.586 115.592L190.124 116.78L194.381 116.756L197.256 116.497L198.132 114.21L202.624 108.373L205.581 108.978L208.493 106.346L209.036 108.402L216.201 113.235L215.325 114.411L212.096 114.239L213.339 115.999L215.325 116.435L217.653 115.464L217.604 112.659L218.636 112.141L217.806 111.261L213.026 108.595L211.767 105.054H215.741L217.012 106.313L220.434 109.262L220.578 112.828L224.123 116.604L225.444 111.429L227.899 110.088L228.36 114.321L230.758 116.953L235.542 116.871C236.467 119.252 237.298 121.675 238.026 124.147L237.528 124.608ZM104.545 95.4334L106.947 94.29L109.119 94.8082L108.37 97.7244L106.026 98.4689L104.545 95.4334ZM117.292 102.298V104.186H111.805L109.748 103.614L110.262 102.298L112.899 101.208H116.502V102.298H117.292ZM119.817 104.931V106.761L118.443 107.645L116.732 107.962C116.732 107.962 116.732 105.219 116.732 104.931H119.817ZM118.271 104.186V102.01L120.159 103.73L118.271 104.186ZM119.13 108.587V110.368L117.818 111.684H114.902L115.358 109.685L116.736 109.566L117.02 108.879L119.13 108.587ZM111.866 104.931H114.898L111.011 110.364L109.407 109.504L109.752 107.217L111.866 104.931ZM124.28 107.962V109.739H121.364L120.566 108.587V106.934H120.796L124.28 107.962ZM121.586 105.519L122.417 104.647L123.819 105.519L122.696 106.444L121.586 105.519ZM239.017 129.239L239.305 128.902C239.424 129.42 239.552 129.938 239.667 130.465L239.017 129.239Z" fill="#333333"/>
<path d="M65.5568 111.22V114.082C66.5563 111.746 67.6587 109.468 68.8391 107.234L65.5568 111.22Z" fill="#333333"/>
<path opacity="0.2" d="M109.592 279.573C107.246 287.098 99.2077 291.359 91.9396 288.308C64.3122 276.711 40.68 257.051 24.2323 231.747C5.18182 202.437 -3.03395 167.395 1.00422 132.672C5.04239 97.9495 21.0809 65.7277 46.3493 41.5725C71.6176 17.4173 104.529 2.84585 139.398 0.375139C174.267 -2.09558 208.904 7.68964 237.326 28.0405C265.748 48.3913 286.17 78.0297 295.064 111.836C303.958 145.642 300.765 181.493 286.038 213.196C273.323 240.567 252.699 263.362 226.982 278.739C220.217 282.784 211.659 279.7 208.274 272.581C204.89 265.462 207.975 257.016 214.648 252.82C234.393 240.406 250.239 222.505 260.15 201.17C272.075 175.5 274.66 146.471 267.458 119.099C260.257 91.7257 243.721 67.7274 220.708 51.2494C197.695 34.7713 169.649 26.8482 141.416 28.8487C113.182 30.8493 86.5338 42.6478 66.074 62.2062C45.6142 81.7647 32.6278 107.855 29.3581 135.97C26.0884 164.084 32.7407 192.458 48.1659 216.19C60.9863 235.914 79.1976 251.402 100.496 260.909C107.694 264.121 111.939 272.048 109.592 279.573Z" fill="#0DE7FF"/>
<path d="M231.413 288.288H225.909V286.672H234.197L228.517 298.032H226.517L231.413 288.288ZM234.254 297.552L234.638 295.904H234.062V293.952H235.646V295.904L235.086 297.552H234.254ZM237.161 290.8C237.161 290.256 237.268 289.744 237.481 289.264C237.695 288.784 237.983 288.368 238.345 288.016C238.719 287.653 239.156 287.371 239.657 287.168C240.159 286.965 240.697 286.864 241.273 286.864C241.892 286.864 242.457 286.981 242.969 287.216C243.481 287.44 243.919 287.771 244.281 288.208C244.644 288.635 244.921 289.163 245.113 289.792C245.316 290.411 245.417 291.115 245.417 291.904C245.417 292.992 245.311 293.947 245.097 294.768C244.895 295.579 244.607 296.256 244.233 296.8C243.86 297.355 243.401 297.771 242.857 298.048C242.324 298.325 241.732 298.464 241.081 298.464C240.356 298.464 239.689 298.299 239.081 297.968C238.484 297.637 237.999 297.168 237.625 296.56L238.665 295.472C238.911 295.92 239.247 296.272 239.673 296.528C240.111 296.795 240.591 296.928 241.113 296.928C241.913 296.928 242.548 296.592 243.017 295.92C243.497 295.237 243.748 294.283 243.769 293.056C243.545 293.536 243.193 293.915 242.713 294.192C242.244 294.469 241.705 294.608 241.097 294.608C240.543 294.608 240.025 294.512 239.545 294.32C239.065 294.117 238.649 293.845 238.297 293.504C237.945 293.163 237.668 292.763 237.465 292.304C237.263 291.835 237.161 291.333 237.161 290.8ZM241.257 288.368C240.927 288.368 240.612 288.432 240.313 288.56C240.025 288.688 239.769 288.864 239.545 289.088C239.332 289.312 239.161 289.573 239.033 289.872C238.905 290.16 238.841 290.469 238.841 290.8C238.841 291.131 238.905 291.44 239.033 291.728C239.161 292.016 239.332 292.272 239.545 292.496C239.769 292.709 240.025 292.88 240.313 293.008C240.612 293.136 240.927 293.2 241.257 293.2C241.588 293.2 241.897 293.136 242.185 293.008C242.484 292.88 242.74 292.709 242.953 292.496C243.177 292.272 243.353 292.016 243.481 291.728C243.609 291.44 243.673 291.131 243.673 290.8C243.673 290.469 243.609 290.16 243.481 289.872C243.353 289.573 243.177 289.312 242.953 289.088C242.74 288.864 242.484 288.688 242.185 288.56C241.897 288.432 241.588 288.368 241.257 288.368ZM255.528 292.528L258.2 287.632H259.976V296H258.28V290.512L255.992 294.688H255.08L252.776 290.512V296H251.08V287.632H252.872L255.528 292.528ZM261.166 294.528C261.486 294.507 261.753 294.437 261.966 294.32C262.18 294.192 262.361 293.968 262.51 293.648C262.66 293.328 262.782 292.885 262.878 292.32C262.985 291.755 263.086 291.013 263.182 290.096L263.454 287.632H268.974V296H267.23V289.072H265.022L264.814 290.608C264.665 291.685 264.505 292.571 264.334 293.264C264.164 293.957 263.945 294.512 263.678 294.928C263.422 295.333 263.102 295.621 262.718 295.792C262.345 295.963 261.886 296.059 261.342 296.08L261.166 294.528ZM275.895 296.16C275.223 296.16 274.631 296 274.119 295.68C273.607 295.36 273.201 294.944 272.903 294.432V299.408H271.143V287.632H272.695V289.136C273.015 288.635 273.425 288.235 273.927 287.936C274.439 287.637 275.015 287.488 275.655 287.488C276.231 287.488 276.759 287.605 277.239 287.84C277.719 288.075 278.135 288.389 278.487 288.784C278.839 289.179 279.111 289.637 279.303 290.16C279.505 290.683 279.607 291.232 279.607 291.808C279.607 292.416 279.516 292.987 279.335 293.52C279.153 294.043 278.897 294.501 278.567 294.896C278.236 295.28 277.841 295.589 277.383 295.824C276.935 296.048 276.439 296.16 275.895 296.16ZM275.319 294.656C275.692 294.656 276.028 294.576 276.327 294.416C276.636 294.256 276.897 294.043 277.111 293.776C277.335 293.509 277.505 293.205 277.623 292.864C277.74 292.523 277.799 292.171 277.799 291.808C277.799 291.424 277.729 291.061 277.591 290.72C277.463 290.379 277.281 290.08 277.047 289.824C276.823 289.568 276.551 289.365 276.231 289.216C275.911 289.067 275.564 288.992 275.191 288.992C274.967 288.992 274.732 289.035 274.487 289.12C274.241 289.205 274.012 289.323 273.799 289.472C273.585 289.621 273.399 289.797 273.239 290C273.079 290.192 272.967 290.405 272.903 290.64V292.832C273.009 293.088 273.148 293.328 273.319 293.552C273.489 293.776 273.676 293.968 273.879 294.128C274.092 294.288 274.321 294.416 274.567 294.512C274.812 294.608 275.063 294.656 275.319 294.656ZM280.045 294.48H280.509C280.765 294.437 280.979 294.341 281.149 294.192C281.32 294.032 281.464 293.787 281.581 293.456C281.709 293.125 281.816 292.693 281.901 292.16C281.997 291.616 282.088 290.928 282.173 290.096L282.445 287.632H287.965V294.48H289.021V298.512H287.485V296H281.533V298.512H280.045V294.48ZM286.237 294.48V289.072H284.029L283.821 290.608C283.683 291.621 283.528 292.437 283.357 293.056C283.197 293.664 282.989 294.139 282.733 294.48H286.237Z" fill="#333333"/>
<path d="M108.684 254.907C84.7406 245.478 64.7431 228.141 52.0128 205.777C39.2825 183.413 34.5855 157.367 38.7018 131.965C42.8182 106.562 55.5002 83.3325 74.6416 66.133C93.7831 48.9335 118.232 38.7994 143.928 37.4136C169.625 36.0278 195.022 43.4738 215.902 58.515C236.782 73.5562 251.889 95.2874 258.713 120.1C265.537 144.912 263.669 171.312 253.417 194.915C243.166 218.519 225.149 237.906 202.358 249.856" stroke="#333333" stroke-width="0.5" stroke-linecap="round" stroke-dasharray="1 10"/>
<path d="M109.592 279.573C107.246 287.098 99.2077 291.359 91.9396 288.308C64.3503 276.727 40.7442 257.105 24.2988 231.849C5.24733 202.59 -3.00071 167.602 0.976257 132.914C4.95322 98.2268 20.906 66.0132 46.0853 41.8255C67.8202 20.9465 95.2545 7.17689 124.749 2.14039C132.519 0.813579 139.384 6.78293 139.967 14.6438C140.55 22.5048 134.621 29.2649 126.882 30.7652C104.018 35.198 82.8009 46.1375 65.8602 62.4111C45.4726 81.9959 32.5556 108.079 29.3355 136.166C26.1153 164.252 32.7938 192.582 48.2197 216.273C61.0377 235.958 79.228 251.416 100.496 260.909C107.694 264.121 111.939 272.048 109.592 279.573Z" fill="url(#paint0_linear)"/>
<path d="M129.406 16.4786H128.23C128.35 16.7839 128.415 17.1134 128.415 17.4568V21.5915C128.415 21.7347 128.389 21.8721 128.34 21.9999H130.283C131.009 21.9999 131.6 21.4503 131.6 20.7747V18.5206C131.6 17.3947 130.616 16.4786 129.406 16.4786Z" fill="#333333"/>
<path d="M119.584 17.4568C119.584 17.1134 119.65 16.7839 119.77 16.4786H118.594C117.384 16.4786 116.4 17.3947 116.4 18.5207V20.7747C116.4 21.4503 116.99 22 117.716 22H119.66C119.611 21.8721 119.584 21.7347 119.584 21.5916V17.4568Z" fill="#333333"/>
<path d="M125.344 15.4147H122.656C121.446 15.4147 120.462 16.3308 120.462 17.4568V21.5916C120.462 21.8171 120.658 22 120.901 22H127.099C127.341 22 127.538 21.8171 127.538 21.5916V17.4568C127.538 16.3308 126.553 15.4147 125.344 15.4147Z" fill="#333333"/>
<path d="M124 10C122.545 10 121.361 11.1017 121.361 12.4559C121.361 13.3744 121.906 14.1767 122.71 14.5979C123.092 14.7976 123.532 14.9118 124 14.9118C124.468 14.9118 124.908 14.7976 125.29 14.5979C126.094 14.1767 126.639 13.3744 126.639 12.4559C126.639 11.1017 125.455 10 124 10Z" fill="#333333"/>
<path d="M119.366 12.2891C118.278 12.2891 117.393 13.113 117.393 14.1258C117.393 15.1385 118.278 15.9624 119.366 15.9624C119.642 15.9624 119.905 15.9092 120.144 15.8136C120.557 15.6481 120.897 15.3553 121.108 14.9885C121.256 14.7311 121.34 14.4374 121.34 14.1258C121.34 13.113 120.454 12.2891 119.366 12.2891Z" fill="#333333"/>
<path d="M128.634 12.2891C127.545 12.2891 126.66 13.113 126.66 14.1258C126.66 14.4375 126.744 14.7311 126.892 14.9885C127.103 15.3553 127.443 15.6482 127.856 15.8136C128.095 15.9092 128.358 15.9624 128.634 15.9624C129.722 15.9624 130.607 15.1385 130.607 14.1258C130.607 13.113 129.722 12.2891 128.634 12.2891Z" fill="#333333"/>
<defs>
<linearGradient id="paint0_linear" x1="19" y1="14.5" x2="163.934" y2="-54.9139" gradientUnits="userSpaceOnUse">
<stop stop-color="#47B2FE"/>
<stop offset="0.453335" stop-color="#06ECFE"/>
</linearGradient>
</defs>
</svg>
