<svg width="304" height="303" viewBox="0 0 304 303" fill="none" xmlns="http://www.w3.org/2000/svg">
<path d="M199.738 97.4833L199.932 98.9682L197.707 99.4288L197.41 102.592H200.076L203.621 102.25L205.452 100.075L203.506 99.3178L202.441 98.0921L200.841 95.5008L200.076 91.836L197.069 92.4489L196.226 93.7404V95.1964L197.674 96.1877L199.738 97.4833Z" fill="#333333"/>
<path d="M197.176 98.7007L197.336 96.7181L195.571 95.9572L193.104 96.5289L191.273 99.4657V101.37H193.408L197.176 98.7007Z" fill="#333333"/>
<path d="M146.38 107.12L145.837 108.519H143.209V109.876H143.834C143.834 109.876 143.871 110.164 143.924 110.542L145.537 110.407L146.544 109.781L146.808 108.519L148.111 108.408L148.626 107.346L147.429 107.1L146.38 107.12Z" fill="#333333"/>
<path d="M139.604 109.584L139.501 110.913L141.406 110.752L141.603 109.42L140.46 108.519L139.604 109.584Z" fill="#333333"/>
<path d="M253.979 151.966C253.95 149.041 253.802 146.137 253.526 143.279C252.601 133.749 250.322 124.613 246.908 116.05C246.653 115.412 246.419 114.767 246.147 114.137C241.598 103.39 235.21 93.6046 227.391 85.1604C226.877 84.6093 226.355 84.0663 225.832 83.5316C224.356 81.9974 222.838 80.5003 221.267 79.0648C203.49 62.8797 179.88 53 154 53C127.902 53 104.123 63.0566 86.2967 79.4884C82.1424 83.3177 78.3254 87.4967 74.8621 91.9717C61.7986 108.868 54 130.034 54 152.998C54 208.142 98.8625 253 154.004 253C192.791 253 226.466 230.789 243.042 198.427C246.587 191.509 249.347 184.134 251.207 176.406C251.68 174.444 252.087 172.474 252.441 170.479C253.448 164.798 253.999 158.958 253.999 152.998C254.004 152.652 253.983 152.311 253.979 151.966ZM235.157 111.998L235.737 111.349C236.498 112.825 237.209 114.326 237.888 115.848L236.942 115.811L235.157 116.058V111.998ZM220.707 94.5506L220.724 90.0838C222.295 91.7496 223.809 93.4648 225.257 95.2416L223.455 97.9234L217.158 97.8658L216.763 96.5537L220.707 94.5506ZM100.076 83.4494V83.2807H102.079L102.252 82.5938H105.53V84.0252L104.588 85.2838H100.072L100.076 83.4494ZM103.276 87.9121C103.276 87.9121 105.279 87.5707 105.452 87.5707C105.625 87.5707 105.452 89.5697 105.452 89.5697L100.936 89.8535L100.076 88.8252L103.276 87.9121ZM241.528 127.608H234.211L229.752 124.288L225.059 124.745V127.608H223.574L221.97 126.464L213.842 124.404V119.139L203.543 119.941L200.351 121.656H196.263L194.26 121.454L189.295 124.21V129.397L179.148 136.718L179.991 139.844H182.048L181.509 142.822L180.061 143.353L179.983 151.135L188.752 161.121H192.569L192.799 160.513H199.66L201.639 158.682H205.53L207.664 160.821L213.464 161.422L212.695 169.134L219.132 180.498L215.743 186.976L215.973 190.028L218.643 192.689V200.027L222.147 204.741V210.837H225.174C208.327 231.521 182.685 244.77 153.996 244.77C103.395 244.774 62.2264 203.602 62.2264 152.998C62.2264 140.26 64.8424 128.118 69.5519 117.082V114.22L72.8343 110.234C73.9736 108.083 75.1952 105.985 76.4991 103.941L76.6472 105.607L72.8384 110.234C71.6579 112.463 70.5556 114.742 69.5561 117.082V122.306L73.369 124.14V131.4L77.0256 137.64L79.9994 138.096L80.382 135.957L76.8734 130.544L76.1865 125.284H78.2431L79.111 130.697L84.1825 138.096L82.8745 140.486L86.0993 145.417L94.1077 147.4V146.104L97.3118 146.561L97.0075 148.848L99.5247 149.308L103.412 150.37L108.903 156.626L115.916 157.156L116.603 162.878L111.803 166.234L111.576 171.342L110.889 174.468L117.833 183.159L118.363 186.137C118.363 186.137 120.88 186.82 121.189 186.82C121.493 186.82 126.832 190.863 126.832 190.863V206.571L128.737 207.106L127.441 214.353L130.645 218.627L130.053 225.808L134.285 233.249L139.719 237.995L145.181 238.094L145.716 236.338L141.701 232.957L141.932 231.279L142.651 229.222L142.804 227.124L140.089 227.042L138.719 225.323L140.973 223.155L141.278 221.518L138.76 220.798L138.908 219.277L142.495 218.734L147.949 216.114L149.78 212.757L155.501 205.436L154.201 199.711L155.958 196.663L161.218 196.823L164.76 194.018L165.903 182.97L169.831 177.981L170.518 174.777L166.936 173.629L164.571 169.751L156.488 169.668L150.08 167.225L149.775 162.656L147.637 158.917L141.841 158.83L138.493 153.574L135.519 152.122L135.367 153.726L129.954 154.047L127.971 151.287L122.324 150.139L117.672 155.515L110.351 154.273L109.82 146.022L104.477 145.109L106.62 141.062L106.007 138.738L98.9859 143.431L94.5683 142.892L92.993 139.441L93.9555 135.883L96.3905 131.396L101.997 128.558L112.823 128.554L112.794 131.857L116.685 133.666L116.376 128.023L119.182 125.202L124.841 121.483L125.228 118.867L130.871 112.994L136.872 109.67L136.342 109.234L140.406 105.409L141.895 105.804L142.577 106.66L144.12 104.949L144.498 104.78L142.808 104.541L141.093 103.97V102.324L142.002 101.58H144.005L144.922 101.983L145.716 103.587L146.686 103.439V103.299L146.966 103.394L149.78 102.962L150.179 101.588L151.783 101.991V103.48L150.294 104.504H150.298L150.516 106.137L155.612 107.708C155.612 107.708 155.616 107.729 155.624 107.77L156.797 107.671L156.875 105.463L152.836 103.624L152.605 102.563L155.958 101.42L156.106 98.2113L152.601 96.0766L152.371 90.6679L147.567 93.0288H145.814L146.275 88.9116L139.735 87.3692L137.029 89.4134V95.6488L132.163 97.1913L130.213 101.255L128.099 101.596V96.3974L123.525 95.764L121.238 94.2751L120.317 90.9064L128.498 86.1188L132.5 84.9013L132.903 87.5913L135.133 87.4761L135.305 86.1229L137.637 85.7897L137.679 85.3167L136.675 84.9013L136.445 83.4699L139.312 83.2272L141.043 81.4257L141.138 81.2941L141.158 81.3023L141.685 80.7594L147.711 79.9985L150.376 82.2607L143.388 85.983L152.28 88.0807L153.432 85.1069H157.319L158.693 82.5157L155.945 81.8288V78.5506L147.328 74.7337L141.38 75.4206L138.024 77.1769L138.254 81.4463L134.746 80.9116L134.207 78.5506L137.568 75.4987L131.468 75.1943L129.715 75.7249L128.955 77.7815L131.241 78.1681L130.785 80.455L126.898 80.6853L126.289 82.2072L120.65 82.3635C120.65 82.3635 120.494 79.1635 120.268 79.1635C120.041 79.1635 124.689 79.0853 124.689 79.0853L128.05 75.8031L126.215 74.8859L123.776 77.255L119.729 77.0247L117.29 73.6684H112.103L106.69 77.7116H111.65L112.103 79.1635L110.815 80.3604L116.307 80.5126L117.146 82.4951L110.963 82.2648L110.663 80.7388L106.776 79.8997L104.716 78.7563L100.088 78.7933C115.237 67.7578 133.866 61.2262 154 61.2262C177.206 61.2262 198.41 69.9008 214.587 84.1527L213.497 86.1023L209.264 87.7599L207.479 89.6972L207.891 91.9553L210.075 92.2596L211.391 95.5501L215.159 94.0324L215.78 98.4334H214.645L211.551 97.9769L208.121 98.5527L204.802 103.242L200.055 103.986L199.368 108.05L201.371 108.523L200.791 111.135L196.078 110.189L191.755 111.135L190.837 113.541L191.586 118.592L194.124 119.78L198.381 119.756L201.256 119.497L202.132 117.21L206.624 111.373L209.581 111.978L212.493 109.346L213.036 111.402L220.201 116.235L219.325 117.411L216.096 117.239L217.339 118.999L219.325 119.435L221.653 118.464L221.604 115.659L222.636 115.141L221.806 114.261L217.026 111.595L215.767 108.054H219.741L221.012 109.313L224.434 112.262L224.578 115.828L228.123 119.604L229.444 114.429L231.899 113.088L232.36 117.321L234.758 119.953L239.542 119.871C240.467 122.252 241.298 124.675 242.026 127.147L241.528 127.608ZM108.545 98.4334L110.947 97.29L113.119 97.8082L112.37 100.724L110.026 101.469L108.545 98.4334ZM121.292 105.298V107.186H115.805L113.748 106.614L114.262 105.298L116.899 104.208H120.502V105.298H121.292ZM123.817 107.931V109.761L122.443 110.645L120.732 110.962C120.732 110.962 120.732 108.219 120.732 107.931H123.817ZM122.271 107.186V105.01L124.159 106.73L122.271 107.186ZM123.13 111.587V113.368L121.818 114.684H118.902L119.358 112.685L120.736 112.566L121.02 111.879L123.13 111.587ZM115.866 107.931H118.898L115.011 113.364L113.407 112.504L113.752 110.217L115.866 107.931ZM128.28 110.962V112.739H125.364L124.566 111.587V109.934H124.796L128.28 110.962ZM125.586 108.519L126.417 107.647L127.819 108.519L126.696 109.444L125.586 108.519ZM243.017 132.239L243.305 131.902C243.424 132.42 243.552 132.938 243.667 133.465L243.017 132.239Z" fill="#333333"/>
<path d="M69.5568 114.22V117.082C70.5563 114.746 71.6587 112.468 72.8391 110.234L69.5568 114.22Z" fill="#333333"/>
<path opacity="0.2" d="M113.592 280.573C111.246 288.098 103.208 292.359 95.9396 289.308C68.3122 277.711 44.68 258.051 28.2323 232.747C9.18182 203.437 0.96605 168.395 5.00422 133.672C9.04239 98.9495 25.0809 66.7277 50.3493 42.5725C75.6176 18.4173 108.529 3.84585 143.398 1.37514C178.267 -1.09558 212.904 8.68964 241.326 29.0405C269.748 49.3913 290.17 79.0297 299.064 112.836C307.958 146.642 304.765 182.493 290.038 214.196C277.323 241.567 256.699 264.362 230.982 279.739C224.217 283.784 215.659 280.7 212.274 273.581C208.89 266.462 211.975 258.016 218.648 253.82C238.393 241.406 254.239 223.505 264.15 202.17C276.075 176.5 278.66 147.471 271.458 120.099C264.257 92.7257 247.721 68.7274 224.708 52.2494C201.695 35.7713 173.649 27.8482 145.416 29.8487C117.182 31.8493 90.5338 43.6478 70.074 63.2062C49.6142 82.7647 36.6278 108.855 33.3581 136.97C30.0884 165.084 36.7407 193.458 52.1659 217.19C64.9863 236.914 83.1976 252.402 104.496 261.909C111.694 265.121 115.939 273.048 113.592 280.573Z" fill="#0DE7FF"/>
<path d="M235.413 289.288H229.909V287.672H238.197L232.517 299.032H230.517L235.413 289.288ZM238.254 298.552L238.638 296.904H238.062V294.952H239.646V296.904L239.086 298.552H238.254ZM241.161 291.8C241.161 291.256 241.268 290.744 241.481 290.264C241.695 289.784 241.983 289.368 242.345 289.016C242.719 288.653 243.156 288.371 243.657 288.168C244.159 287.965 244.697 287.864 245.273 287.864C245.892 287.864 246.457 287.981 246.969 288.216C247.481 288.44 247.919 288.771 248.281 289.208C248.644 289.635 248.921 290.163 249.113 290.792C249.316 291.411 249.417 292.115 249.417 292.904C249.417 293.992 249.311 294.947 249.097 295.768C248.895 296.579 248.607 297.256 248.233 297.8C247.86 298.355 247.401 298.771 246.857 299.048C246.324 299.325 245.732 299.464 245.081 299.464C244.356 299.464 243.689 299.299 243.081 298.968C242.484 298.637 241.999 298.168 241.625 297.56L242.665 296.472C242.911 296.92 243.247 297.272 243.673 297.528C244.111 297.795 244.591 297.928 245.113 297.928C245.913 297.928 246.548 297.592 247.017 296.92C247.497 296.237 247.748 295.283 247.769 294.056C247.545 294.536 247.193 294.915 246.713 295.192C246.244 295.469 245.705 295.608 245.097 295.608C244.543 295.608 244.025 295.512 243.545 295.32C243.065 295.117 242.649 294.845 242.297 294.504C241.945 294.163 241.668 293.763 241.465 293.304C241.263 292.835 241.161 292.333 241.161 291.8ZM245.257 289.368C244.927 289.368 244.612 289.432 244.313 289.56C244.025 289.688 243.769 289.864 243.545 290.088C243.332 290.312 243.161 290.573 243.033 290.872C242.905 291.16 242.841 291.469 242.841 291.8C242.841 292.131 242.905 292.44 243.033 292.728C243.161 293.016 243.332 293.272 243.545 293.496C243.769 293.709 244.025 293.88 244.313 294.008C244.612 294.136 244.927 294.2 245.257 294.2C245.588 294.2 245.897 294.136 246.185 294.008C246.484 293.88 246.74 293.709 246.953 293.496C247.177 293.272 247.353 293.016 247.481 292.728C247.609 292.44 247.673 292.131 247.673 291.8C247.673 291.469 247.609 291.16 247.481 290.872C247.353 290.573 247.177 290.312 246.953 290.088C246.74 289.864 246.484 289.688 246.185 289.56C245.897 289.432 245.588 289.368 245.257 289.368ZM259.528 293.528L262.2 288.632H263.976V297H262.28V291.512L259.992 295.688H259.08L256.776 291.512V297H255.08V288.632H256.872L259.528 293.528ZM265.166 295.528C265.486 295.507 265.753 295.437 265.966 295.32C266.18 295.192 266.361 294.968 266.51 294.648C266.66 294.328 266.782 293.885 266.878 293.32C266.985 292.755 267.086 292.013 267.182 291.096L267.454 288.632H272.974V297H271.23V290.072H269.022L268.814 291.608C268.665 292.685 268.505 293.571 268.334 294.264C268.164 294.957 267.945 295.512 267.678 295.928C267.422 296.333 267.102 296.621 266.718 296.792C266.345 296.963 265.886 297.059 265.342 297.08L265.166 295.528ZM279.895 297.16C279.223 297.16 278.631 297 278.119 296.68C277.607 296.36 277.201 295.944 276.903 295.432V300.408H275.143V288.632H276.695V290.136C277.015 289.635 277.425 289.235 277.927 288.936C278.439 288.637 279.015 288.488 279.655 288.488C280.231 288.488 280.759 288.605 281.239 288.84C281.719 289.075 282.135 289.389 282.487 289.784C282.839 290.179 283.111 290.637 283.303 291.16C283.505 291.683 283.607 292.232 283.607 292.808C283.607 293.416 283.516 293.987 283.335 294.52C283.153 295.043 282.897 295.501 282.567 295.896C282.236 296.28 281.841 296.589 281.383 296.824C280.935 297.048 280.439 297.16 279.895 297.16ZM279.319 295.656C279.692 295.656 280.028 295.576 280.327 295.416C280.636 295.256 280.897 295.043 281.111 294.776C281.335 294.509 281.505 294.205 281.623 293.864C281.74 293.523 281.799 293.171 281.799 292.808C281.799 292.424 281.729 292.061 281.591 291.72C281.463 291.379 281.281 291.08 281.047 290.824C280.823 290.568 280.551 290.365 280.231 290.216C279.911 290.067 279.564 289.992 279.191 289.992C278.967 289.992 278.732 290.035 278.487 290.12C278.241 290.205 278.012 290.323 277.799 290.472C277.585 290.621 277.399 290.797 277.239 291C277.079 291.192 276.967 291.405 276.903 291.64V293.832C277.009 294.088 277.148 294.328 277.319 294.552C277.489 294.776 277.676 294.968 277.879 295.128C278.092 295.288 278.321 295.416 278.567 295.512C278.812 295.608 279.063 295.656 279.319 295.656ZM284.045 295.48H284.509C284.765 295.437 284.979 295.341 285.149 295.192C285.32 295.032 285.464 294.787 285.581 294.456C285.709 294.125 285.816 293.693 285.901 293.16C285.997 292.616 286.088 291.928 286.173 291.096L286.445 288.632H291.965V295.48H293.021V299.512H291.485V297H285.533V299.512H284.045V295.48ZM290.237 295.48V290.072H288.029L287.821 291.608C287.683 292.621 287.528 293.437 287.357 294.056C287.197 294.664 286.989 295.139 286.733 295.48H290.237Z" fill="#333333"/>
<path d="M112.684 255.907C88.7406 246.478 68.7431 229.141 56.0128 206.777C43.2825 184.413 38.5855 158.367 42.7018 132.965C46.8182 107.562 59.5002 84.3325 78.6416 67.133C97.7831 49.9335 122.232 39.7994 147.928 38.4136C173.625 37.0278 199.022 44.4738 219.902 59.515C240.782 74.5562 255.889 96.2874 262.713 121.1C269.537 145.912 267.669 172.312 257.417 195.915C247.166 219.519 229.149 238.906 206.358 250.856" stroke="#333333" stroke-width="0.5" stroke-linecap="round" stroke-dasharray="1 8"/>
<g filter="url(#filter0_d)">
<path d="M113.592 280.573C111.246 288.098 103.208 292.359 95.9396 289.308C68.3503 277.727 44.7442 258.105 28.2988 232.849C9.24733 203.59 0.99929 168.602 4.97626 133.914C8.95322 99.2268 24.906 67.0132 50.0853 42.8255C71.8202 21.9465 99.2545 8.17689 128.749 3.14039C136.519 1.81358 143.384 7.78293 143.967 15.6438C144.55 23.5048 138.621 30.2649 130.882 31.7652C108.018 36.198 86.8009 47.1375 69.8602 63.4111C49.4726 82.9959 36.5556 109.079 33.3355 137.166C30.1153 165.252 36.7938 193.582 52.2197 217.273C65.0377 236.958 83.228 252.416 104.496 261.909C111.694 265.121 115.939 273.048 113.592 280.573Z" fill="url(#paint0_linear)"/>
</g>
<path d="M133.406 17.4786H132.23C132.35 17.7839 132.415 18.1134 132.415 18.4568V22.5915C132.415 22.7347 132.389 22.8721 132.34 22.9999H134.283C135.009 22.9999 135.6 22.4503 135.6 21.7747V19.5206C135.6 18.3947 134.616 17.4786 133.406 17.4786Z" fill="#333333"/>
<path d="M123.584 18.4568C123.584 18.1134 123.65 17.7839 123.77 17.4786H122.594C121.384 17.4786 120.4 18.3947 120.4 19.5207V21.7747C120.4 22.4503 120.99 23 121.716 23H123.66C123.611 22.8721 123.584 22.7347 123.584 22.5916V18.4568Z" fill="#333333"/>
<path d="M129.344 16.4147H126.656C125.446 16.4147 124.462 17.3308 124.462 18.4568V22.5916C124.462 22.8171 124.658 23 124.901 23H131.099C131.341 23 131.538 22.8171 131.538 22.5916V18.4568C131.538 17.3308 130.553 16.4147 129.344 16.4147Z" fill="#333333"/>
<path d="M128 11C126.545 11 125.361 12.1017 125.361 13.4559C125.361 14.3744 125.906 15.1767 126.71 15.5979C127.092 15.7976 127.532 15.9118 128 15.9118C128.468 15.9118 128.908 15.7976 129.29 15.5979C130.094 15.1767 130.639 14.3744 130.639 13.4559C130.639 12.1017 129.455 11 128 11Z" fill="#333333"/>
<path d="M123.366 13.2891C122.278 13.2891 121.393 14.113 121.393 15.1258C121.393 16.1385 122.278 16.9624 123.366 16.9624C123.642 16.9624 123.905 16.9092 124.144 16.8136C124.557 16.6481 124.897 16.3553 125.108 15.9885C125.256 15.7311 125.34 15.4374 125.34 15.1258C125.34 14.113 124.454 13.2891 123.366 13.2891Z" fill="#333333"/>
<path d="M132.634 13.2891C131.545 13.2891 130.66 14.113 130.66 15.1258C130.66 15.4375 130.744 15.7311 130.892 15.9885C131.103 16.3553 131.443 16.6482 131.856 16.8136C132.095 16.9092 132.358 16.9624 132.634 16.9624C133.722 16.9624 134.607 16.1385 134.607 15.1258C134.607 14.113 133.722 13.2891 132.634 13.2891Z" fill="#333333"/>
<defs>
<filter id="filter0_d" x="-0.000488281" y="0.955078" width="148.007" height="295.348" filterUnits="userSpaceOnUse" color-interpolation-filters="sRGB">
<feFlood flood-opacity="0" result="BackgroundImageFix"/>
<feColorMatrix in="SourceAlpha" type="matrix" values="0 0 0 0 0 0 0 0 0 0 0 0 0 0 0 0 0 0 127 0" result="hardAlpha"/>
<feOffset dy="2"/>
<feGaussianBlur stdDeviation="2"/>
<feComposite in2="hardAlpha" operator="out"/>
<feColorMatrix type="matrix" values="0 0 0 0 0 0 0 0 0 0 0 0 0 0 0 0 0 0 0.35 0"/>
<feBlend mode="normal" in2="BackgroundImageFix" result="effect1_dropShadow"/>
<feBlend mode="normal" in="SourceGraphic" in2="effect1_dropShadow" result="shape"/>
</filter>
<linearGradient id="paint0_linear" x1="23" y1="15.5" x2="167.934" y2="-53.9139" gradientUnits="userSpaceOnUse">
<stop stop-color="#47B2FE"/>
<stop offset="0.453335" stop-color="#06ECFE"/>
</linearGradient>
</defs>
</svg>
