<svg width="328" height="360" viewBox="0 0 328 360" fill="none" xmlns="http://www.w3.org/2000/svg">
<g filter="url(#filter0_d_761:768)">
<rect x="8" y="8" width="312" height="344" rx="5" fill="url(#paint0_linear_761:768)"/>
<path d="M25.1797 22.8594H21.5234V33H20.0312V22.8594H16.3828V21.625H25.1797V22.8594ZM29.3672 33.1562C28.2214 33.1562 27.2891 32.7812 26.5703 32.0312C25.8516 31.276 25.4922 30.2682 25.4922 29.0078V28.7422C25.4922 27.9036 25.651 27.1562 25.9688 26.5C26.2917 25.8385 26.7396 25.3229 27.3125 24.9531C27.8906 24.5781 28.5156 24.3906 29.1875 24.3906C30.2865 24.3906 31.1406 24.7526 31.75 25.4766C32.3594 26.2005 32.6641 27.237 32.6641 28.5859V29.1875H26.9375C26.9583 30.0208 27.2005 30.6953 27.6641 31.2109C28.1328 31.7214 28.7266 31.9766 29.4453 31.9766C29.9557 31.9766 30.388 31.8724 30.7422 31.6641C31.0964 31.4557 31.4062 31.1797 31.6719 30.8359L32.5547 31.5234C31.8464 32.612 30.7839 33.1562 29.3672 33.1562ZM29.1875 25.5781C28.6042 25.5781 28.1146 25.7917 27.7188 26.2188C27.3229 26.6406 27.0781 27.2344 26.9844 28H31.2188V27.8906C31.1771 27.1562 30.9792 26.5885 30.625 26.1875C30.2708 25.7812 29.7917 25.5781 29.1875 25.5781ZM41.25 33H39.8047V29.3906H35.9219V33H34.4688V24.5469H35.9219V28.2109H39.8047V24.5469H41.25V33ZM43.5078 31.8203L44.0078 31.2031C44.5703 30.474 44.8906 29.3802 44.9688 27.9219L45.1016 24.5469H50.5469V31.8203H51.6328V35.4844H50.1875V33H44.2891V35.4844H42.8438L42.8516 31.8203H43.5078ZM45.2188 31.8203H49.1016V25.8828H46.5L46.4141 27.8984C46.3255 29.5807 45.9271 30.888 45.2188 31.8203ZM56.7422 33.1562C55.5964 33.1562 54.6641 32.7812 53.9453 32.0312C53.2266 31.276 52.8672 30.2682 52.8672 29.0078V28.7422C52.8672 27.9036 53.026 27.1562 53.3438 26.5C53.6667 25.8385 54.1146 25.3229 54.6875 24.9531C55.2656 24.5781 55.8906 24.3906 56.5625 24.3906C57.6615 24.3906 58.5156 24.7526 59.125 25.4766C59.7344 26.2005 60.0391 27.237 60.0391 28.5859V29.1875H54.3125C54.3333 30.0208 54.5755 30.6953 55.0391 31.2109C55.5078 31.7214 56.1016 31.9766 56.8203 31.9766C57.3307 31.9766 57.763 31.8724 58.1172 31.6641C58.4714 31.4557 58.7812 31.1797 59.0469 30.8359L59.9297 31.5234C59.2214 32.612 58.1589 33.1562 56.7422 33.1562ZM56.5625 25.5781C55.9792 25.5781 55.4896 25.7917 55.0938 26.2188C54.6979 26.6406 54.4531 27.2344 54.3594 28H58.5938V27.8906C58.5521 27.1562 58.3542 26.5885 58 26.1875C57.6458 25.7812 57.1667 25.5781 56.5625 25.5781ZM68.625 33H67.1797V29.3906H63.2969V33H61.8438V24.5469H63.2969V28.2109H67.1797V24.5469H68.625V33ZM71.0781 24.5469H72.5312V31.8203H76.4219V24.5469H77.8672V31.8203H78.875L78.7344 35.5078H77.4375V33H71.0781V24.5469ZM85.9062 24.5469H87.3516V33H85.9062V26.8359L82.0078 33H80.5625V24.5469H82.0078V30.7188L85.9062 24.5469ZM96.1328 24.5469V33H94.6797V29.7109H92.5L90.5078 33H88.9453L91.0703 29.4922C90.5286 29.2943 90.112 28.9896 89.8203 28.5781C89.5339 28.1615 89.3906 27.6771 89.3906 27.125C89.3906 26.3542 89.6797 25.7344 90.2578 25.2656C90.8359 24.7917 91.6094 24.5521 92.5781 24.5469H96.1328ZM90.8438 27.1406C90.8438 27.5521 90.9844 27.8854 91.2656 28.1406C91.5469 28.3906 91.9193 28.5182 92.3828 28.5234H94.6797V25.7188H92.6016C92.0651 25.7188 91.638 25.8516 91.3203 26.1172C91.0026 26.3776 90.8438 26.7188 90.8438 27.1406ZM105.055 29.3984H104V33H102.547V24.5469H104V28.125H104.945L107.789 24.5469H109.539L106.195 28.6094L109.82 33H107.984L105.055 29.3984ZM113.828 30.8828L115.797 24.5469H117.344L113.945 34.3047C113.419 35.7109 112.583 36.4141 111.438 36.4141L111.164 36.3906L110.625 36.2891V35.1172L111.016 35.1484C111.505 35.1484 111.885 35.0495 112.156 34.8516C112.432 34.6536 112.659 34.2917 112.836 33.7656L113.156 32.9062L110.141 24.5469H111.719L113.828 30.8828ZM125.781 28.8672C125.781 30.1536 125.487 31.1901 124.898 31.9766C124.31 32.763 123.513 33.1562 122.508 33.1562C121.482 33.1562 120.674 32.8307 120.086 32.1797V36.25H118.641V24.5469H119.961L120.031 25.4844C120.62 24.7552 121.438 24.3906 122.484 24.3906C123.5 24.3906 124.302 24.7734 124.891 25.5391C125.484 26.3047 125.781 27.3698 125.781 28.7344V28.8672ZM124.336 28.7031C124.336 27.75 124.133 26.9974 123.727 26.4453C123.32 25.8932 122.763 25.6172 122.055 25.6172C121.18 25.6172 120.523 26.0052 120.086 26.7812V30.8203C120.518 31.5911 121.18 31.9766 122.07 31.9766C122.763 31.9766 123.312 31.7031 123.719 31.1562C124.13 30.6042 124.336 29.7865 124.336 28.7031ZM131.016 31.9766C131.531 31.9766 131.982 31.8203 132.367 31.5078C132.753 31.1953 132.966 30.8047 133.008 30.3359H134.375C134.349 30.8203 134.182 31.2812 133.875 31.7188C133.568 32.1562 133.156 32.5052 132.641 32.7656C132.13 33.026 131.589 33.1562 131.016 33.1562C129.865 33.1562 128.948 32.7734 128.266 32.0078C127.589 31.237 127.25 30.1849 127.25 28.8516V28.6094C127.25 27.7865 127.401 27.0547 127.703 26.4141C128.005 25.7734 128.438 25.276 129 24.9219C129.568 24.5677 130.237 24.3906 131.008 24.3906C131.956 24.3906 132.742 24.6745 133.367 25.2422C133.997 25.8099 134.333 26.5469 134.375 27.4531H133.008C132.966 26.9062 132.758 26.4583 132.383 26.1094C132.013 25.7552 131.555 25.5781 131.008 25.5781C130.273 25.5781 129.703 25.8438 129.297 26.375C128.896 26.901 128.695 27.6641 128.695 28.6641V28.9375C128.695 29.9115 128.896 30.6615 129.297 31.1875C129.698 31.7135 130.271 31.9766 131.016 31.9766ZM141.219 33C141.135 32.8333 141.068 32.5365 141.016 32.1094C140.344 32.8073 139.542 33.1562 138.609 33.1562C137.776 33.1562 137.091 32.9219 136.555 32.4531C136.023 31.9792 135.758 31.3802 135.758 30.6562C135.758 29.776 136.091 29.0938 136.758 28.6094C137.43 28.1198 138.372 27.875 139.586 27.875H140.992V27.2109C140.992 26.7057 140.841 26.3047 140.539 26.0078C140.237 25.7057 139.792 25.5547 139.203 25.5547C138.688 25.5547 138.255 25.6849 137.906 25.9453C137.557 26.2057 137.383 26.5208 137.383 26.8906H135.93C135.93 26.4688 136.078 26.0625 136.375 25.6719C136.677 25.276 137.083 24.9635 137.594 24.7344C138.109 24.5052 138.674 24.3906 139.289 24.3906C140.263 24.3906 141.026 24.6354 141.578 25.125C142.13 25.6094 142.417 26.2786 142.438 27.1328V31.0234C142.438 31.7995 142.536 32.4167 142.734 32.875V33H141.219ZM138.82 31.8984C139.273 31.8984 139.703 31.7812 140.109 31.5469C140.516 31.3125 140.81 31.0078 140.992 30.6328V28.8984H139.859C138.089 28.8984 137.203 29.4167 137.203 30.4531C137.203 30.9062 137.354 31.2604 137.656 31.5156C137.958 31.7708 138.346 31.8984 138.82 31.8984ZM153.891 33C153.807 32.8333 153.74 32.5365 153.688 32.1094C153.016 32.8073 152.214 33.1562 151.281 33.1562C150.448 33.1562 149.763 32.9219 149.227 32.4531C148.695 31.9792 148.43 31.3802 148.43 30.6562C148.43 29.776 148.763 29.0938 149.43 28.6094C150.102 28.1198 151.044 27.875 152.258 27.875H153.664V27.2109C153.664 26.7057 153.513 26.3047 153.211 26.0078C152.909 25.7057 152.464 25.5547 151.875 25.5547C151.359 25.5547 150.927 25.6849 150.578 25.9453C150.229 26.2057 150.055 26.5208 150.055 26.8906H148.602C148.602 26.4688 148.75 26.0625 149.047 25.6719C149.349 25.276 149.755 24.9635 150.266 24.7344C150.781 24.5052 151.346 24.3906 151.961 24.3906C152.935 24.3906 153.698 24.6354 154.25 25.125C154.802 25.6094 155.089 26.2786 155.109 27.1328V31.0234C155.109 31.7995 155.208 32.4167 155.406 32.875V33H153.891ZM151.492 31.8984C151.945 31.8984 152.375 31.7812 152.781 31.5469C153.188 31.3125 153.482 31.0078 153.664 30.6328V28.8984H152.531C150.76 28.8984 149.875 29.4167 149.875 30.4531C149.875 30.9062 150.026 31.2604 150.328 31.5156C150.63 31.7708 151.018 31.8984 151.492 31.8984ZM160.008 29.3984H158.953V33H157.5V24.5469H158.953V28.125H159.898L162.742 24.5469H164.492L161.148 28.6094L164.773 33H162.938L160.008 29.3984ZM166.141 24.5469H167.594V31.8203H171.484V24.5469H172.93V31.8203H173.938L173.797 35.5078H172.5V33H166.141V24.5469ZM180.969 24.5469H182.414V33H180.969V26.8359L177.07 33H175.625V24.5469H177.07V30.7188L180.969 24.5469ZM190.203 24.5469H191.648V33H190.203V26.8359L186.305 33H184.859V24.5469H186.305V30.7188L190.203 24.5469ZM190.594 21.4688C190.594 22.099 190.378 22.6068 189.945 22.9922C189.518 23.3724 188.956 23.5625 188.258 23.5625C187.56 23.5625 186.995 23.3698 186.562 22.9844C186.13 22.599 185.914 22.0938 185.914 21.4688H187.094C187.094 21.8333 187.193 22.1198 187.391 22.3281C187.589 22.5312 187.878 22.6328 188.258 22.6328C188.622 22.6328 188.906 22.5312 189.109 22.3281C189.318 22.125 189.422 21.8385 189.422 21.4688H190.594ZM202.586 26.8594C202.586 26.4635 202.435 26.151 202.133 25.9219C201.831 25.6875 201.417 25.5703 200.891 25.5703C200.38 25.5703 199.953 25.7031 199.609 25.9688C199.271 26.2344 199.102 26.5469 199.102 26.9062H197.664C197.664 26.1719 197.971 25.5703 198.586 25.1016C199.201 24.6328 199.969 24.3984 200.891 24.3984C201.88 24.3984 202.651 24.612 203.203 25.0391C203.755 25.4609 204.031 26.0651 204.031 26.8516C204.031 27.2318 203.917 27.5807 203.688 27.8984C203.458 28.2161 203.133 28.4688 202.711 28.6562C203.695 28.9896 204.188 29.6458 204.188 30.625C204.188 31.401 203.888 32.0156 203.289 32.4688C202.69 32.9219 201.891 33.1484 200.891 33.1484C199.917 33.1484 199.112 32.9115 198.477 32.4375C197.846 31.9583 197.531 31.3125 197.531 30.5H198.969C198.969 30.9115 199.151 31.2656 199.516 31.5625C199.885 31.8542 200.344 32 200.891 32C201.443 32 201.888 31.8724 202.227 31.6172C202.565 31.362 202.734 31.0312 202.734 30.625C202.734 30.151 202.591 29.8125 202.305 29.6094C202.023 29.401 201.583 29.2969 200.984 29.2969H199.539V28.0781H201.109C202.094 28.0521 202.586 27.6458 202.586 26.8594ZM211.281 33C211.198 32.8333 211.13 32.5365 211.078 32.1094C210.406 32.8073 209.604 33.1562 208.672 33.1562C207.839 33.1562 207.154 32.9219 206.617 32.4531C206.086 31.9792 205.82 31.3802 205.82 30.6562C205.82 29.776 206.154 29.0938 206.82 28.6094C207.492 28.1198 208.435 27.875 209.648 27.875H211.055V27.2109C211.055 26.7057 210.904 26.3047 210.602 26.0078C210.299 25.7057 209.854 25.5547 209.266 25.5547C208.75 25.5547 208.318 25.6849 207.969 25.9453C207.62 26.2057 207.445 26.5208 207.445 26.8906H205.992C205.992 26.4688 206.141 26.0625 206.438 25.6719C206.74 25.276 207.146 24.9635 207.656 24.7344C208.172 24.5052 208.737 24.3906 209.352 24.3906C210.326 24.3906 211.089 24.6354 211.641 25.125C212.193 25.6094 212.479 26.2786 212.5 27.1328V31.0234C212.5 31.7995 212.599 32.4167 212.797 32.875V33H211.281ZM208.883 31.8984C209.336 31.8984 209.766 31.7812 210.172 31.5469C210.578 31.3125 210.872 31.0078 211.055 30.6328V28.8984H209.922C208.151 28.8984 207.266 29.4167 207.266 30.4531C207.266 30.9062 207.417 31.2604 207.719 31.5156C208.021 31.7708 208.409 31.8984 208.883 31.8984ZM225.648 33H224.203V25.7422H220.312V33H218.859V24.5469H225.648V33ZM227.586 28.6953C227.586 27.8672 227.747 27.1224 228.07 26.4609C228.398 25.7995 228.852 25.2891 229.43 24.9297C230.013 24.5703 230.677 24.3906 231.422 24.3906C232.573 24.3906 233.503 24.7891 234.211 25.5859C234.924 26.3828 235.281 27.4427 235.281 28.7656V28.8672C235.281 29.6901 235.122 30.4297 234.805 31.0859C234.492 31.737 234.042 32.2448 233.453 32.6094C232.87 32.974 232.198 33.1562 231.438 33.1562C230.292 33.1562 229.362 32.7578 228.648 31.9609C227.94 31.1641 227.586 30.1094 227.586 28.7969V28.6953ZM229.039 28.8672C229.039 29.8047 229.255 30.5573 229.688 31.125C230.125 31.6927 230.708 31.9766 231.438 31.9766C232.172 31.9766 232.755 31.6901 233.188 31.1172C233.62 30.5391 233.836 29.7318 233.836 28.6953C233.836 27.7682 233.615 27.0182 233.172 26.4453C232.734 25.8672 232.151 25.5781 231.422 25.5781C230.708 25.5781 230.133 25.862 229.695 26.4297C229.258 26.9974 229.039 27.8099 229.039 28.8672ZM240.484 31.9766C241 31.9766 241.451 31.8203 241.836 31.5078C242.221 31.1953 242.435 30.8047 242.477 30.3359H243.844C243.818 30.8203 243.651 31.2812 243.344 31.7188C243.036 32.1562 242.625 32.5052 242.109 32.7656C241.599 33.026 241.057 33.1562 240.484 33.1562C239.333 33.1562 238.417 32.7734 237.734 32.0078C237.057 31.237 236.719 30.1849 236.719 28.8516V28.6094C236.719 27.7865 236.87 27.0547 237.172 26.4141C237.474 25.7734 237.906 25.276 238.469 24.9219C239.036 24.5677 239.706 24.3906 240.477 24.3906C241.424 24.3906 242.211 24.6745 242.836 25.2422C243.466 25.8099 243.802 26.5469 243.844 27.4531H242.477C242.435 26.9062 242.227 26.4583 241.852 26.1094C241.482 25.7552 241.023 25.5781 240.477 25.5781C239.742 25.5781 239.172 25.8438 238.766 26.375C238.365 26.901 238.164 27.6641 238.164 28.6641V28.9375C238.164 29.9115 238.365 30.6615 238.766 31.1875C239.167 31.7135 239.74 31.9766 240.484 31.9766ZM252.398 24.5469V33H250.945V25.7422H248.07L247.898 28.9062C247.805 30.3594 247.56 31.3984 247.164 32.0234C246.773 32.6484 246.151 32.974 245.297 33H244.719V31.7266L245.133 31.6953C245.602 31.6432 245.938 31.3724 246.141 30.8828C246.344 30.3932 246.474 29.487 246.531 28.1641L246.688 24.5469H252.398ZM258.227 33.1562C257.081 33.1562 256.148 32.7812 255.43 32.0312C254.711 31.276 254.352 30.2682 254.352 29.0078V28.7422C254.352 27.9036 254.51 27.1562 254.828 26.5C255.151 25.8385 255.599 25.3229 256.172 24.9531C256.75 24.5781 257.375 24.3906 258.047 24.3906C259.146 24.3906 260 24.7526 260.609 25.4766C261.219 26.2005 261.523 27.237 261.523 28.5859V29.1875H255.797C255.818 30.0208 256.06 30.6953 256.523 31.2109C256.992 31.7214 257.586 31.9766 258.305 31.9766C258.815 31.9766 259.247 31.8724 259.602 31.6641C259.956 31.4557 260.266 31.1797 260.531 30.8359L261.414 31.5234C260.706 32.612 259.643 33.1562 258.227 33.1562ZM258.047 25.5781C257.464 25.5781 256.974 25.7917 256.578 26.2188C256.182 26.6406 255.938 27.2344 255.844 28H260.078V27.8906C260.036 27.1562 259.839 26.5885 259.484 26.1875C259.13 25.7812 258.651 25.5781 258.047 25.5781ZM263.133 31.8203L263.633 31.2031C264.195 30.474 264.516 29.3802 264.594 27.9219L264.727 24.5469H270.172V31.8203H271.258V35.4844H269.812V33H263.914V35.4844H262.469L262.477 31.8203H263.133ZM264.844 31.8203H268.727V25.8828H266.125L266.039 27.8984C265.951 29.5807 265.552 30.888 264.844 31.8203ZM279.766 33H278.32V29.3906H274.438V33H272.984V24.5469H274.438V28.2109H278.32V24.5469H279.766V33ZM287.562 24.5469H289.008V33H287.562V26.8359L283.664 33H282.219V24.5469H283.664V30.7188L287.562 24.5469ZM294.836 33.1562C293.69 33.1562 292.758 32.7812 292.039 32.0312C291.32 31.276 290.961 30.2682 290.961 29.0078V28.7422C290.961 27.9036 291.12 27.1562 291.438 26.5C291.76 25.8385 292.208 25.3229 292.781 24.9531C293.359 24.5781 293.984 24.3906 294.656 24.3906C295.755 24.3906 296.609 24.7526 297.219 25.4766C297.828 26.2005 298.133 27.237 298.133 28.5859V29.1875H292.406C292.427 30.0208 292.669 30.6953 293.133 31.2109C293.602 31.7214 294.195 31.9766 294.914 31.9766C295.424 31.9766 295.857 31.8724 296.211 31.6641C296.565 31.4557 296.875 31.1797 297.141 30.8359L298.023 31.5234C297.315 32.612 296.253 33.1562 294.836 33.1562ZM294.656 25.5781C294.073 25.5781 293.583 25.7917 293.188 26.2188C292.792 26.6406 292.547 27.2344 292.453 28H296.688V27.8906C296.646 27.1562 296.448 26.5885 296.094 26.1875C295.74 25.7812 295.26 25.5781 294.656 25.5781ZM21.6953 57H20.2422V47.3672L17.3281 48.4375V47.125L21.4688 45.5703H21.6953V57ZM33.3828 57H25.9297V55.9609L29.8672 51.5859C30.4505 50.9245 30.8516 50.388 31.0703 49.9766C31.2943 49.5599 31.4062 49.1302 31.4062 48.6875C31.4062 48.0938 31.2266 47.6068 30.8672 47.2266C30.5078 46.8464 30.0286 46.6562 29.4297 46.6562C28.7109 46.6562 28.151 46.862 27.75 47.2734C27.3542 47.6797 27.1562 48.2474 27.1562 48.9766H25.7109C25.7109 47.9297 26.0469 47.0833 26.7188 46.4375C27.3958 45.7917 28.2995 45.4688 29.4297 45.4688C30.487 45.4688 31.3229 45.7474 31.9375 46.3047C32.5521 46.8568 32.8594 47.5938 32.8594 48.5156C32.8594 49.6354 32.1458 50.9688 30.7188 52.5156L27.6719 55.8203H33.3828V57ZM43.8984 55.0859L46.7734 48.5469H48.5781V57H47.1328V50.8516L44.3984 57H43.3984L40.6094 50.7188V57H39.1641V48.5469H41.0391L43.8984 55.0859ZM54.4141 57.1562C53.2682 57.1562 52.3359 56.7812 51.6172 56.0312C50.8984 55.276 50.5391 54.2682 50.5391 53.0078V52.7422C50.5391 51.9036 50.6979 51.1562 51.0156 50.5C51.3385 49.8385 51.7865 49.3229 52.3594 48.9531C52.9375 48.5781 53.5625 48.3906 54.2344 48.3906C55.3333 48.3906 56.1875 48.7526 56.7969 49.4766C57.4062 50.2005 57.7109 51.237 57.7109 52.5859V53.1875H51.9844C52.0052 54.0208 52.2474 54.6953 52.7109 55.2109C53.1797 55.7214 53.7734 55.9766 54.4922 55.9766C55.0026 55.9766 55.4349 55.8724 55.7891 55.6641C56.1432 55.4557 56.4531 55.1797 56.7188 54.8359L57.6016 55.5234C56.8932 56.612 55.8307 57.1562 54.4141 57.1562ZM54.2344 49.5781C53.651 49.5781 53.1615 49.7917 52.7656 50.2188C52.3698 50.6406 52.125 51.2344 52.0312 52H56.2656V51.8906C56.224 51.1562 56.026 50.5885 55.6719 50.1875C55.3177 49.7812 54.8385 49.5781 54.2344 49.5781ZM62.7812 55.9766C63.2969 55.9766 63.7474 55.8203 64.1328 55.5078C64.5182 55.1953 64.7318 54.8047 64.7734 54.3359H66.1406C66.1146 54.8203 65.9479 55.2812 65.6406 55.7188C65.3333 56.1562 64.9219 56.5052 64.4062 56.7656C63.8958 57.026 63.3542 57.1562 62.7812 57.1562C61.6302 57.1562 60.7135 56.7734 60.0312 56.0078C59.3542 55.237 59.0156 54.1849 59.0156 52.8516V52.6094C59.0156 51.7865 59.1667 51.0547 59.4688 50.4141C59.7708 49.7734 60.2031 49.276 60.7656 48.9219C61.3333 48.5677 62.0026 48.3906 62.7734 48.3906C63.7214 48.3906 64.5078 48.6745 65.1328 49.2422C65.763 49.8099 66.099 50.5469 66.1406 51.4531H64.7734C64.7318 50.9062 64.5234 50.4583 64.1484 50.1094C63.7786 49.7552 63.3203 49.5781 62.7734 49.5781C62.0391 49.5781 61.4688 49.8438 61.0625 50.375C60.6615 50.901 60.4609 51.6641 60.4609 52.6641V52.9375C60.4609 53.9115 60.6615 54.6615 61.0625 55.1875C61.4635 55.7135 62.0365 55.9766 62.7812 55.9766ZM74.2266 48.5469V57H72.7734V53.7109H70.5938L68.6016 57H67.0391L69.1641 53.4922C68.6224 53.2943 68.2057 52.9896 67.9141 52.5781C67.6276 52.1615 67.4844 51.6771 67.4844 51.125C67.4844 50.3542 67.7734 49.7344 68.3516 49.2656C68.9297 48.7917 69.7031 48.5521 70.6719 48.5469H74.2266ZM68.9375 51.1406C68.9375 51.5521 69.0781 51.8854 69.3594 52.1406C69.6406 52.3906 70.013 52.5182 70.4766 52.5234H72.7734V49.7188H70.6953C70.1589 49.7188 69.7318 49.8516 69.4141 50.1172C69.0964 50.3776 68.9375 50.7188 68.9375 51.1406ZM76.6719 48.5469H78.125V55.8203H82.0156V48.5469H83.4609V55.8203H84.4688L84.3281 59.5078H83.0312V57H76.6719V48.5469ZM89.5391 57.1562C88.3932 57.1562 87.4609 56.7812 86.7422 56.0312C86.0234 55.276 85.6641 54.2682 85.6641 53.0078V52.7422C85.6641 51.9036 85.8229 51.1562 86.1406 50.5C86.4635 49.8385 86.9115 49.3229 87.4844 48.9531C88.0625 48.5781 88.6875 48.3906 89.3594 48.3906C90.4583 48.3906 91.3125 48.7526 91.9219 49.4766C92.5312 50.2005 92.8359 51.237 92.8359 52.5859V53.1875H87.1094C87.1302 54.0208 87.3724 54.6953 87.8359 55.2109C88.3047 55.7214 88.8984 55.9766 89.6172 55.9766C90.1276 55.9766 90.5599 55.8724 90.9141 55.6641C91.2682 55.4557 91.5781 55.1797 91.8438 54.8359L92.7266 55.5234C92.0182 56.612 90.9557 57.1562 89.5391 57.1562ZM89.3594 49.5781C88.776 49.5781 88.2865 49.7917 87.8906 50.2188C87.4948 50.6406 87.25 51.2344 87.1562 52H91.3906V51.8906C91.349 51.1562 91.151 50.5885 90.7969 50.1875C90.4427 49.7812 89.9635 49.5781 89.3594 49.5781ZM94.6484 57V48.5469H97.9453C99.0703 48.5469 99.9323 48.7448 100.531 49.1406C101.135 49.5312 101.438 50.1068 101.438 50.8672C101.438 51.2578 101.32 51.612 101.086 51.9297C100.852 52.2422 100.505 52.4818 100.047 52.6484C100.557 52.7682 100.966 53.0026 101.273 53.3516C101.586 53.7005 101.742 54.1172 101.742 54.6016C101.742 55.3776 101.456 55.9714 100.883 56.3828C100.315 56.7943 99.5104 57 98.4688 57H94.6484ZM96.0938 53.2891V55.8359H98.4844C99.0885 55.8359 99.5391 55.724 99.8359 55.5C100.138 55.276 100.289 54.9609 100.289 54.5547C100.289 53.7109 99.6693 53.2891 98.4297 53.2891H96.0938ZM96.0938 52.1328H97.9609C99.3151 52.1328 99.9922 51.737 99.9922 50.9453C99.9922 50.1536 99.3516 49.7448 98.0703 49.7188H96.0938V52.1328Z" fill="white"/>
<path d="M21.5391 81.8027C21.5391 81.4434 21.4121 81.1406 21.1582 80.8945C20.9082 80.6484 20.4844 80.4258 19.8867 80.2266C19.0547 79.9727 18.4473 79.6426 18.0645 79.2363C17.6855 78.8262 17.4961 78.3066 17.4961 77.6777C17.4961 77.0371 17.6816 76.5117 18.0527 76.1016C18.4277 75.6914 18.9414 75.4473 19.5938 75.3691V74.0859H20.4668V75.375C21.123 75.4648 21.6328 75.7402 21.9961 76.2012C22.3633 76.6621 22.5469 77.293 22.5469 78.0938H21.4688C21.4688 77.543 21.3379 77.1055 21.0762 76.7812C20.8145 76.457 20.4609 76.2949 20.0156 76.2949C19.5508 76.2949 19.1953 76.416 18.9492 76.6582C18.7031 76.8965 18.5801 77.2305 18.5801 77.6602C18.5801 78.0586 18.709 78.377 18.9668 78.6152C19.2285 78.8496 19.6562 79.0645 20.25 79.2598C20.8477 79.4512 21.3125 79.6641 21.6445 79.8984C21.9805 80.1289 22.2266 80.3984 22.3828 80.707C22.543 81.0156 22.623 81.377 22.623 81.791C22.623 82.4512 22.4238 82.9824 22.0254 83.3848C21.6309 83.7871 21.0762 84.0254 20.3613 84.0996V85.2188H19.4941V84.0996C18.7676 84.0332 18.1973 83.7754 17.7832 83.3262C17.373 82.873 17.168 82.2598 17.168 81.4863H18.252C18.252 82.0293 18.3945 82.4473 18.6797 82.7402C18.9648 83.0332 19.3691 83.1797 19.8926 83.1797C20.4043 83.1797 20.8066 83.0566 21.0996 82.8105C21.3926 82.5645 21.5391 82.2285 21.5391 81.8027ZM28.125 80.25C27.8984 80.5195 27.627 80.7363 27.3105 80.9004C26.998 81.0645 26.6543 81.1465 26.2793 81.1465C25.7871 81.1465 25.3574 81.0254 24.9902 80.7832C24.627 80.541 24.3457 80.2012 24.1465 79.7637C23.9473 79.3223 23.8477 78.8359 23.8477 78.3047C23.8477 77.7344 23.9551 77.2207 24.1699 76.7637C24.3887 76.3066 24.6973 75.957 25.0957 75.7148C25.4941 75.4727 25.959 75.3516 26.4902 75.3516C27.334 75.3516 27.998 75.668 28.4824 76.3008C28.9707 76.9297 29.2148 77.7891 29.2148 78.8789V79.1953C29.2148 80.8555 28.8867 82.0684 28.2305 82.834C27.5742 83.5957 26.584 83.9863 25.2598 84.0059H25.0488V83.0918H25.2773C26.1719 83.0762 26.8594 82.8438 27.3398 82.3945C27.8203 81.9414 28.082 81.2266 28.125 80.25ZM26.4551 80.25C26.8184 80.25 27.1523 80.1387 27.457 79.916C27.7656 79.6934 27.9902 79.418 28.1309 79.0898V78.6562C28.1309 77.9453 27.9766 77.3672 27.668 76.9219C27.3594 76.4766 26.9688 76.2539 26.4961 76.2539C26.0195 76.2539 25.6367 76.4375 25.3477 76.8047C25.0586 77.168 24.9141 77.6484 24.9141 78.2461C24.9141 78.8281 25.0527 79.3086 25.3301 79.6875C25.6113 80.0625 25.9863 80.25 26.4551 80.25ZM36.0586 80.3613C36.0586 81.6309 35.8418 82.5742 35.4082 83.1914C34.9746 83.8086 34.2969 84.1172 33.375 84.1172C32.4648 84.1172 31.791 83.8164 31.3535 83.2148C30.916 82.6094 30.6895 81.707 30.6738 80.5078V79.0605C30.6738 77.8066 30.8906 76.875 31.3242 76.2656C31.7578 75.6562 32.4375 75.3516 33.3633 75.3516C34.2812 75.3516 34.957 75.6465 35.3906 76.2363C35.8242 76.8223 36.0469 77.7285 36.0586 78.9551V80.3613ZM34.9746 78.8789C34.9746 77.9609 34.8457 77.293 34.5879 76.875C34.3301 76.4531 33.9219 76.2422 33.3633 76.2422C32.8086 76.2422 32.4043 76.4512 32.1504 76.8691C31.8965 77.2871 31.7656 77.9297 31.7578 78.7969V80.5312C31.7578 81.4531 31.8906 82.1348 32.1562 82.5762C32.4258 83.0137 32.832 83.2324 33.375 83.2324C33.9102 83.2324 34.3066 83.0254 34.5645 82.6113C34.8262 82.1973 34.9629 81.5449 34.9746 80.6543V78.8789ZM42.7969 80.3613C42.7969 81.6309 42.5801 82.5742 42.1465 83.1914C41.7129 83.8086 41.0352 84.1172 40.1133 84.1172C39.2031 84.1172 38.5293 83.8164 38.0918 83.2148C37.6543 82.6094 37.4277 81.707 37.4121 80.5078V79.0605C37.4121 77.8066 37.6289 76.875 38.0625 76.2656C38.4961 75.6562 39.1758 75.3516 40.1016 75.3516C41.0195 75.3516 41.6953 75.6465 42.1289 76.2363C42.5625 76.8223 42.7852 77.7285 42.7969 78.9551V80.3613ZM41.7129 78.8789C41.7129 77.9609 41.584 77.293 41.3262 76.875C41.0684 76.4531 40.6602 76.2422 40.1016 76.2422C39.5469 76.2422 39.1426 76.4512 38.8887 76.8691C38.6348 77.2871 38.5039 77.9297 38.4961 78.7969V80.5312C38.4961 81.4531 38.6289 82.1348 38.8945 82.5762C39.1641 83.0137 39.5703 83.2324 40.1133 83.2324C40.6484 83.2324 41.0449 83.0254 41.3027 82.6113C41.5645 82.1973 41.7012 81.5449 41.7129 80.6543V78.8789ZM46.6348 80.0332L45.5918 81.1172V84H44.4668V75.4688H45.5918V79.6875L49.3828 75.4688H50.7422L47.3848 79.2363L51.0059 84H49.6582L46.6348 80.0332Z" fill="white" fill-opacity="0.7"/>
<path d="M21.5391 105.803C21.5391 105.443 21.4121 105.141 21.1582 104.895C20.9082 104.648 20.4844 104.426 19.8867 104.227C19.0547 103.973 18.4473 103.643 18.0645 103.236C17.6855 102.826 17.4961 102.307 17.4961 101.678C17.4961 101.037 17.6816 100.512 18.0527 100.102C18.4277 99.6914 18.9414 99.4473 19.5938 99.3691V98.0859H20.4668V99.375C21.123 99.4648 21.6328 99.7402 21.9961 100.201C22.3633 100.662 22.5469 101.293 22.5469 102.094H21.4688C21.4688 101.543 21.3379 101.105 21.0762 100.781C20.8145 100.457 20.4609 100.295 20.0156 100.295C19.5508 100.295 19.1953 100.416 18.9492 100.658C18.7031 100.896 18.5801 101.23 18.5801 101.66C18.5801 102.059 18.709 102.377 18.9668 102.615C19.2285 102.85 19.6562 103.064 20.25 103.26C20.8477 103.451 21.3125 103.664 21.6445 103.898C21.9805 104.129 22.2266 104.398 22.3828 104.707C22.543 105.016 22.623 105.377 22.623 105.791C22.623 106.451 22.4238 106.982 22.0254 107.385C21.6309 107.787 21.0762 108.025 20.3613 108.1V109.219H19.4941V108.1C18.7676 108.033 18.1973 107.775 17.7832 107.326C17.373 106.873 17.168 106.26 17.168 105.486H18.252C18.252 106.029 18.3945 106.447 18.6797 106.74C18.9648 107.033 19.3691 107.18 19.8926 107.18C20.4043 107.18 20.8066 107.057 21.0996 106.811C21.3926 106.564 21.5391 106.229 21.5391 105.803ZM29.1445 101.695C29.1445 102.121 29.0312 102.5 28.8047 102.832C28.582 103.164 28.2793 103.424 27.8965 103.611C28.3418 103.803 28.6934 104.082 28.9512 104.449C29.2129 104.816 29.3438 105.232 29.3438 105.697C29.3438 106.436 29.0938 107.023 28.5938 107.461C28.0977 107.898 27.4434 108.117 26.6309 108.117C25.8105 108.117 25.1523 107.898 24.6562 107.461C24.1641 107.02 23.918 106.432 23.918 105.697C23.918 105.236 24.043 104.82 24.293 104.449C24.5469 104.078 24.8965 103.797 25.3418 103.605C24.9629 103.418 24.6641 103.158 24.4453 102.826C24.2266 102.494 24.1172 102.117 24.1172 101.695C24.1172 100.977 24.3477 100.406 24.8086 99.9844C25.2695 99.5625 25.877 99.3516 26.6309 99.3516C27.3809 99.3516 27.9863 99.5625 28.4473 99.9844C28.9121 100.406 29.1445 100.977 29.1445 101.695ZM28.2598 105.674C28.2598 105.197 28.1074 104.809 27.8027 104.508C27.502 104.207 27.1074 104.057 26.6191 104.057C26.1309 104.057 25.7383 104.205 25.4414 104.502C25.1484 104.799 25.002 105.189 25.002 105.674C25.002 106.158 25.1445 106.539 25.4297 106.816C25.7188 107.094 26.1191 107.232 26.6309 107.232C27.1387 107.232 27.5371 107.094 27.8262 106.816C28.1152 106.535 28.2598 106.154 28.2598 105.674ZM26.6309 100.242C26.2051 100.242 25.8594 100.375 25.5938 100.641C25.332 100.902 25.2012 101.26 25.2012 101.713C25.2012 102.146 25.3301 102.498 25.5879 102.768C25.8496 103.033 26.1973 103.166 26.6309 103.166C27.0645 103.166 27.4102 103.033 27.668 102.768C27.9297 102.498 28.0605 102.146 28.0605 101.713C28.0605 101.279 27.9258 100.926 27.6562 100.652C27.3867 100.379 27.0449 100.242 26.6309 100.242ZM36.0586 104.361C36.0586 105.631 35.8418 106.574 35.4082 107.191C34.9746 107.809 34.2969 108.117 33.375 108.117C32.4648 108.117 31.791 107.816 31.3535 107.215C30.916 106.609 30.6895 105.707 30.6738 104.508V103.061C30.6738 101.807 30.8906 100.875 31.3242 100.266C31.7578 99.6562 32.4375 99.3516 33.3633 99.3516C34.2812 99.3516 34.957 99.6465 35.3906 100.236C35.8242 100.822 36.0469 101.729 36.0586 102.955V104.361ZM34.9746 102.879C34.9746 101.961 34.8457 101.293 34.5879 100.875C34.3301 100.453 33.9219 100.242 33.3633 100.242C32.8086 100.242 32.4043 100.451 32.1504 100.869C31.8965 101.287 31.7656 101.93 31.7578 102.797V104.531C31.7578 105.453 31.8906 106.135 32.1562 106.576C32.4258 107.014 32.832 107.232 33.375 107.232C33.9102 107.232 34.3066 107.025 34.5645 106.611C34.8262 106.197 34.9629 105.545 34.9746 104.654V102.879ZM42.7969 104.361C42.7969 105.631 42.5801 106.574 42.1465 107.191C41.7129 107.809 41.0352 108.117 40.1133 108.117C39.2031 108.117 38.5293 107.816 38.0918 107.215C37.6543 106.609 37.4277 105.707 37.4121 104.508V103.061C37.4121 101.807 37.6289 100.875 38.0625 100.266C38.4961 99.6562 39.1758 99.3516 40.1016 99.3516C41.0195 99.3516 41.6953 99.6465 42.1289 100.236C42.5625 100.822 42.7852 101.729 42.7969 102.955V104.361ZM41.7129 102.879C41.7129 101.961 41.584 101.293 41.3262 100.875C41.0684 100.453 40.6602 100.242 40.1016 100.242C39.5469 100.242 39.1426 100.451 38.8887 100.869C38.6348 101.287 38.5039 101.93 38.4961 102.797V104.531C38.4961 105.453 38.6289 106.135 38.8945 106.576C39.1641 107.014 39.5703 107.232 40.1133 107.232C40.6484 107.232 41.0449 107.025 41.3027 106.611C41.5645 106.197 41.7012 105.545 41.7129 104.654V102.879ZM46.6348 104.033L45.5918 105.117V108H44.4668V99.4688H45.5918V103.688L49.3828 99.4688H50.7422L47.3848 103.236L51.0059 108H49.6582L46.6348 104.033Z" fill="white" fill-opacity="0.7"/>
<path d="M21.5391 129.803C21.5391 129.443 21.4121 129.141 21.1582 128.895C20.9082 128.648 20.4844 128.426 19.8867 128.227C19.0547 127.973 18.4473 127.643 18.0645 127.236C17.6855 126.826 17.4961 126.307 17.4961 125.678C17.4961 125.037 17.6816 124.512 18.0527 124.102C18.4277 123.691 18.9414 123.447 19.5938 123.369V122.086H20.4668V123.375C21.123 123.465 21.6328 123.74 21.9961 124.201C22.3633 124.662 22.5469 125.293 22.5469 126.094H21.4688C21.4688 125.543 21.3379 125.105 21.0762 124.781C20.8145 124.457 20.4609 124.295 20.0156 124.295C19.5508 124.295 19.1953 124.416 18.9492 124.658C18.7031 124.896 18.5801 125.23 18.5801 125.66C18.5801 126.059 18.709 126.377 18.9668 126.615C19.2285 126.85 19.6562 127.064 20.25 127.26C20.8477 127.451 21.3125 127.664 21.6445 127.898C21.9805 128.129 22.2266 128.398 22.3828 128.707C22.543 129.016 22.623 129.377 22.623 129.791C22.623 130.451 22.4238 130.982 22.0254 131.385C21.6309 131.787 21.0762 132.025 20.3613 132.1V133.219H19.4941V132.1C18.7676 132.033 18.1973 131.775 17.7832 131.326C17.373 130.873 17.168 130.26 17.168 129.486H18.252C18.252 130.029 18.3945 130.447 18.6797 130.74C18.9648 131.033 19.3691 131.18 19.8926 131.18C20.4043 131.18 20.8066 131.057 21.0996 130.811C21.3926 130.564 21.5391 130.229 21.5391 129.803ZM29.4785 124.078L25.9453 132H24.8086L28.3301 124.359H23.7129V123.469H29.4785V124.078ZM36.0586 128.361C36.0586 129.631 35.8418 130.574 35.4082 131.191C34.9746 131.809 34.2969 132.117 33.375 132.117C32.4648 132.117 31.791 131.816 31.3535 131.215C30.916 130.609 30.6895 129.707 30.6738 128.508V127.061C30.6738 125.807 30.8906 124.875 31.3242 124.266C31.7578 123.656 32.4375 123.352 33.3633 123.352C34.2812 123.352 34.957 123.646 35.3906 124.236C35.8242 124.822 36.0469 125.729 36.0586 126.955V128.361ZM34.9746 126.879C34.9746 125.961 34.8457 125.293 34.5879 124.875C34.3301 124.453 33.9219 124.242 33.3633 124.242C32.8086 124.242 32.4043 124.451 32.1504 124.869C31.8965 125.287 31.7656 125.93 31.7578 126.797V128.531C31.7578 129.453 31.8906 130.135 32.1562 130.576C32.4258 131.014 32.832 131.232 33.375 131.232C33.9102 131.232 34.3066 131.025 34.5645 130.611C34.8262 130.197 34.9629 129.545 34.9746 128.654V126.879ZM42.7969 128.361C42.7969 129.631 42.5801 130.574 42.1465 131.191C41.7129 131.809 41.0352 132.117 40.1133 132.117C39.2031 132.117 38.5293 131.816 38.0918 131.215C37.6543 130.609 37.4277 129.707 37.4121 128.508V127.061C37.4121 125.807 37.6289 124.875 38.0625 124.266C38.4961 123.656 39.1758 123.352 40.1016 123.352C41.0195 123.352 41.6953 123.646 42.1289 124.236C42.5625 124.822 42.7852 125.729 42.7969 126.955V128.361ZM41.7129 126.879C41.7129 125.961 41.584 125.293 41.3262 124.875C41.0684 124.453 40.6602 124.242 40.1016 124.242C39.5469 124.242 39.1426 124.451 38.8887 124.869C38.6348 125.287 38.5039 125.93 38.4961 126.797V128.531C38.4961 129.453 38.6289 130.135 38.8945 130.576C39.1641 131.014 39.5703 131.232 40.1133 131.232C40.6484 131.232 41.0449 131.025 41.3027 130.611C41.5645 130.197 41.7012 129.545 41.7129 128.654V126.879ZM46.6348 128.033L45.5918 129.117V132H44.4668V123.469H45.5918V127.688L49.3828 123.469H50.7422L47.3848 127.236L51.0059 132H49.6582L46.6348 128.033Z" fill="white" fill-opacity="0.7"/>
<path d="M21.5391 153.803C21.5391 153.443 21.4121 153.141 21.1582 152.895C20.9082 152.648 20.4844 152.426 19.8867 152.227C19.0547 151.973 18.4473 151.643 18.0645 151.236C17.6855 150.826 17.4961 150.307 17.4961 149.678C17.4961 149.037 17.6816 148.512 18.0527 148.102C18.4277 147.691 18.9414 147.447 19.5938 147.369V146.086H20.4668V147.375C21.123 147.465 21.6328 147.74 21.9961 148.201C22.3633 148.662 22.5469 149.293 22.5469 150.094H21.4688C21.4688 149.543 21.3379 149.105 21.0762 148.781C20.8145 148.457 20.4609 148.295 20.0156 148.295C19.5508 148.295 19.1953 148.416 18.9492 148.658C18.7031 148.896 18.5801 149.23 18.5801 149.66C18.5801 150.059 18.709 150.377 18.9668 150.615C19.2285 150.85 19.6562 151.064 20.25 151.26C20.8477 151.451 21.3125 151.664 21.6445 151.898C21.9805 152.129 22.2266 152.398 22.3828 152.707C22.543 153.016 22.623 153.377 22.623 153.791C22.623 154.451 22.4238 154.982 22.0254 155.385C21.6309 155.787 21.0762 156.025 20.3613 156.1V157.219H19.4941V156.1C18.7676 156.033 18.1973 155.775 17.7832 155.326C17.373 154.873 17.168 154.26 17.168 153.486H18.252C18.252 154.029 18.3945 154.447 18.6797 154.74C18.9648 155.033 19.3691 155.18 19.8926 155.18C20.4043 155.18 20.8066 155.057 21.0996 154.811C21.3926 154.564 21.5391 154.229 21.5391 153.803ZM28.2246 147.463V148.383H28.0254C27.1816 148.398 26.5098 148.648 26.0098 149.133C25.5098 149.617 25.2207 150.299 25.1426 151.178C25.5918 150.662 26.2051 150.404 26.9824 150.404C27.7246 150.404 28.3164 150.666 28.7578 151.189C29.2031 151.713 29.4258 152.389 29.4258 153.217C29.4258 154.096 29.1855 154.799 28.7051 155.326C28.2285 155.854 27.5879 156.117 26.7832 156.117C25.9668 156.117 25.3047 155.805 24.7969 155.18C24.2891 154.551 24.0352 153.742 24.0352 152.754V152.338C24.0352 150.768 24.3691 149.568 25.0371 148.74C25.709 147.908 26.707 147.482 28.0312 147.463H28.2246ZM26.8008 151.307C26.4297 151.307 26.0879 151.418 25.7754 151.641C25.4629 151.863 25.2461 152.143 25.125 152.479V152.877C25.125 153.58 25.2832 154.146 25.5996 154.576C25.916 155.006 26.3105 155.221 26.7832 155.221C27.2715 155.221 27.6543 155.041 27.9316 154.682C28.2129 154.322 28.3535 153.852 28.3535 153.27C28.3535 152.684 28.2109 152.211 27.9258 151.852C27.6445 151.488 27.2695 151.307 26.8008 151.307ZM36.0586 152.361C36.0586 153.631 35.8418 154.574 35.4082 155.191C34.9746 155.809 34.2969 156.117 33.375 156.117C32.4648 156.117 31.791 155.816 31.3535 155.215C30.916 154.609 30.6895 153.707 30.6738 152.508V151.061C30.6738 149.807 30.8906 148.875 31.3242 148.266C31.7578 147.656 32.4375 147.352 33.3633 147.352C34.2812 147.352 34.957 147.646 35.3906 148.236C35.8242 148.822 36.0469 149.729 36.0586 150.955V152.361ZM34.9746 150.879C34.9746 149.961 34.8457 149.293 34.5879 148.875C34.3301 148.453 33.9219 148.242 33.3633 148.242C32.8086 148.242 32.4043 148.451 32.1504 148.869C31.8965 149.287 31.7656 149.93 31.7578 150.797V152.531C31.7578 153.453 31.8906 154.135 32.1562 154.576C32.4258 155.014 32.832 155.232 33.375 155.232C33.9102 155.232 34.3066 155.025 34.5645 154.611C34.8262 154.197 34.9629 153.545 34.9746 152.654V150.879ZM42.7969 152.361C42.7969 153.631 42.5801 154.574 42.1465 155.191C41.7129 155.809 41.0352 156.117 40.1133 156.117C39.2031 156.117 38.5293 155.816 38.0918 155.215C37.6543 154.609 37.4277 153.707 37.4121 152.508V151.061C37.4121 149.807 37.6289 148.875 38.0625 148.266C38.4961 147.656 39.1758 147.352 40.1016 147.352C41.0195 147.352 41.6953 147.646 42.1289 148.236C42.5625 148.822 42.7852 149.729 42.7969 150.955V152.361ZM41.7129 150.879C41.7129 149.961 41.584 149.293 41.3262 148.875C41.0684 148.453 40.6602 148.242 40.1016 148.242C39.5469 148.242 39.1426 148.451 38.8887 148.869C38.6348 149.287 38.5039 149.93 38.4961 150.797V152.531C38.4961 153.453 38.6289 154.135 38.8945 154.576C39.1641 155.014 39.5703 155.232 40.1133 155.232C40.6484 155.232 41.0449 155.025 41.3027 154.611C41.5645 154.197 41.7012 153.545 41.7129 152.654V150.879ZM46.6348 152.033L45.5918 153.117V156H44.4668V147.469H45.5918V151.688L49.3828 147.469H50.7422L47.3848 151.236L51.0059 156H49.6582L46.6348 152.033Z" fill="white" fill-opacity="0.7"/>
<path d="M21.5391 177.803C21.5391 177.443 21.4121 177.141 21.1582 176.895C20.9082 176.648 20.4844 176.426 19.8867 176.227C19.0547 175.973 18.4473 175.643 18.0645 175.236C17.6855 174.826 17.4961 174.307 17.4961 173.678C17.4961 173.037 17.6816 172.512 18.0527 172.102C18.4277 171.691 18.9414 171.447 19.5938 171.369V170.086H20.4668V171.375C21.123 171.465 21.6328 171.74 21.9961 172.201C22.3633 172.662 22.5469 173.293 22.5469 174.094H21.4688C21.4688 173.543 21.3379 173.105 21.0762 172.781C20.8145 172.457 20.4609 172.295 20.0156 172.295C19.5508 172.295 19.1953 172.416 18.9492 172.658C18.7031 172.896 18.5801 173.23 18.5801 173.66C18.5801 174.059 18.709 174.377 18.9668 174.615C19.2285 174.85 19.6562 175.064 20.25 175.26C20.8477 175.451 21.3125 175.664 21.6445 175.898C21.9805 176.129 22.2266 176.398 22.3828 176.707C22.543 177.016 22.623 177.377 22.623 177.791C22.623 178.451 22.4238 178.982 22.0254 179.385C21.6309 179.787 21.0762 180.025 20.3613 180.1V181.219H19.4941V180.1C18.7676 180.033 18.1973 179.775 17.7832 179.326C17.373 178.873 17.168 178.26 17.168 177.486H18.252C18.252 178.029 18.3945 178.447 18.6797 178.74C18.9648 179.033 19.3691 179.18 19.8926 179.18C20.4043 179.18 20.8066 179.057 21.0996 178.811C21.3926 178.564 21.5391 178.229 21.5391 177.803ZM24.4688 175.723L24.9023 171.469H29.2734V172.471H25.8223L25.5645 174.797C25.9824 174.551 26.457 174.428 26.9883 174.428C27.7656 174.428 28.3828 174.686 28.8398 175.201C29.2969 175.713 29.5254 176.406 29.5254 177.281C29.5254 178.16 29.2871 178.854 28.8105 179.361C28.3379 179.865 27.6758 180.117 26.8242 180.117C26.0703 180.117 25.4551 179.908 24.9785 179.49C24.502 179.072 24.2305 178.494 24.1641 177.756H25.1895C25.2559 178.244 25.4297 178.613 25.7109 178.863C25.9922 179.109 26.3633 179.232 26.8242 179.232C27.3281 179.232 27.7227 179.061 28.0078 178.717C28.2969 178.373 28.4414 177.898 28.4414 177.293C28.4414 176.723 28.2852 176.266 27.9727 175.922C27.6641 175.574 27.252 175.4 26.7363 175.4C26.2637 175.4 25.8926 175.504 25.623 175.711L25.3359 175.945L24.4688 175.723ZM36.0586 176.361C36.0586 177.631 35.8418 178.574 35.4082 179.191C34.9746 179.809 34.2969 180.117 33.375 180.117C32.4648 180.117 31.791 179.816 31.3535 179.215C30.916 178.609 30.6895 177.707 30.6738 176.508V175.061C30.6738 173.807 30.8906 172.875 31.3242 172.266C31.7578 171.656 32.4375 171.352 33.3633 171.352C34.2812 171.352 34.957 171.646 35.3906 172.236C35.8242 172.822 36.0469 173.729 36.0586 174.955V176.361ZM34.9746 174.879C34.9746 173.961 34.8457 173.293 34.5879 172.875C34.3301 172.453 33.9219 172.242 33.3633 172.242C32.8086 172.242 32.4043 172.451 32.1504 172.869C31.8965 173.287 31.7656 173.93 31.7578 174.797V176.531C31.7578 177.453 31.8906 178.135 32.1562 178.576C32.4258 179.014 32.832 179.232 33.375 179.232C33.9102 179.232 34.3066 179.025 34.5645 178.611C34.8262 178.197 34.9629 177.545 34.9746 176.654V174.879ZM42.7969 176.361C42.7969 177.631 42.5801 178.574 42.1465 179.191C41.7129 179.809 41.0352 180.117 40.1133 180.117C39.2031 180.117 38.5293 179.816 38.0918 179.215C37.6543 178.609 37.4277 177.707 37.4121 176.508V175.061C37.4121 173.807 37.6289 172.875 38.0625 172.266C38.4961 171.656 39.1758 171.352 40.1016 171.352C41.0195 171.352 41.6953 171.646 42.1289 172.236C42.5625 172.822 42.7852 173.729 42.7969 174.955V176.361ZM41.7129 174.879C41.7129 173.961 41.584 173.293 41.3262 172.875C41.0684 172.453 40.6602 172.242 40.1016 172.242C39.5469 172.242 39.1426 172.451 38.8887 172.869C38.6348 173.287 38.5039 173.93 38.4961 174.797V176.531C38.4961 177.453 38.6289 178.135 38.8945 178.576C39.1641 179.014 39.5703 179.232 40.1133 179.232C40.6484 179.232 41.0449 179.025 41.3027 178.611C41.5645 178.197 41.7012 177.545 41.7129 176.654V174.879ZM46.6348 176.033L45.5918 177.117V180H44.4668V171.469H45.5918V175.688L49.3828 171.469H50.7422L47.3848 175.236L51.0059 180H49.6582L46.6348 176.033Z" fill="white" fill-opacity="0.7"/>
<path d="M21.5391 201.803C21.5391 201.443 21.4121 201.141 21.1582 200.895C20.9082 200.648 20.4844 200.426 19.8867 200.227C19.0547 199.973 18.4473 199.643 18.0645 199.236C17.6855 198.826 17.4961 198.307 17.4961 197.678C17.4961 197.037 17.6816 196.512 18.0527 196.102C18.4277 195.691 18.9414 195.447 19.5938 195.369V194.086H20.4668V195.375C21.123 195.465 21.6328 195.74 21.9961 196.201C22.3633 196.662 22.5469 197.293 22.5469 198.094H21.4688C21.4688 197.543 21.3379 197.105 21.0762 196.781C20.8145 196.457 20.4609 196.295 20.0156 196.295C19.5508 196.295 19.1953 196.416 18.9492 196.658C18.7031 196.896 18.5801 197.23 18.5801 197.66C18.5801 198.059 18.709 198.377 18.9668 198.615C19.2285 198.85 19.6562 199.064 20.25 199.26C20.8477 199.451 21.3125 199.664 21.6445 199.898C21.9805 200.129 22.2266 200.398 22.3828 200.707C22.543 201.016 22.623 201.377 22.623 201.791C22.623 202.451 22.4238 202.982 22.0254 203.385C21.6309 203.787 21.0762 204.025 20.3613 204.1V205.219H19.4941V204.1C18.7676 204.033 18.1973 203.775 17.7832 203.326C17.373 202.873 17.168 202.26 17.168 201.486H18.252C18.252 202.029 18.3945 202.447 18.6797 202.74C18.9648 203.033 19.3691 203.18 19.8926 203.18C20.4043 203.18 20.8066 203.057 21.0996 202.811C21.3926 202.564 21.5391 202.229 21.5391 201.803ZM28.5469 201.135H29.7305V202.02H28.5469V204H27.457V202.02H23.5723V201.381L27.3926 195.469H28.5469V201.135ZM24.8027 201.135H27.457V196.951L27.3281 197.186L24.8027 201.135ZM36.0586 200.361C36.0586 201.631 35.8418 202.574 35.4082 203.191C34.9746 203.809 34.2969 204.117 33.375 204.117C32.4648 204.117 31.791 203.816 31.3535 203.215C30.916 202.609 30.6895 201.707 30.6738 200.508V199.061C30.6738 197.807 30.8906 196.875 31.3242 196.266C31.7578 195.656 32.4375 195.352 33.3633 195.352C34.2812 195.352 34.957 195.646 35.3906 196.236C35.8242 196.822 36.0469 197.729 36.0586 198.955V200.361ZM34.9746 198.879C34.9746 197.961 34.8457 197.293 34.5879 196.875C34.3301 196.453 33.9219 196.242 33.3633 196.242C32.8086 196.242 32.4043 196.451 32.1504 196.869C31.8965 197.287 31.7656 197.93 31.7578 198.797V200.531C31.7578 201.453 31.8906 202.135 32.1562 202.576C32.4258 203.014 32.832 203.232 33.375 203.232C33.9102 203.232 34.3066 203.025 34.5645 202.611C34.8262 202.197 34.9629 201.545 34.9746 200.654V198.879ZM42.7969 200.361C42.7969 201.631 42.5801 202.574 42.1465 203.191C41.7129 203.809 41.0352 204.117 40.1133 204.117C39.2031 204.117 38.5293 203.816 38.0918 203.215C37.6543 202.609 37.4277 201.707 37.4121 200.508V199.061C37.4121 197.807 37.6289 196.875 38.0625 196.266C38.4961 195.656 39.1758 195.352 40.1016 195.352C41.0195 195.352 41.6953 195.646 42.1289 196.236C42.5625 196.822 42.7852 197.729 42.7969 198.955V200.361ZM41.7129 198.879C41.7129 197.961 41.584 197.293 41.3262 196.875C41.0684 196.453 40.6602 196.242 40.1016 196.242C39.5469 196.242 39.1426 196.451 38.8887 196.869C38.6348 197.287 38.5039 197.93 38.4961 198.797V200.531C38.4961 201.453 38.6289 202.135 38.8945 202.576C39.1641 203.014 39.5703 203.232 40.1133 203.232C40.6484 203.232 41.0449 203.025 41.3027 202.611C41.5645 202.197 41.7012 201.545 41.7129 200.654V198.879ZM46.6348 200.033L45.5918 201.117V204H44.4668V195.469H45.5918V199.688L49.3828 195.469H50.7422L47.3848 199.236L51.0059 204H49.6582L46.6348 200.033Z" fill="white" fill-opacity="0.7"/>
<path d="M21.5391 225.803C21.5391 225.443 21.4121 225.141 21.1582 224.895C20.9082 224.648 20.4844 224.426 19.8867 224.227C19.0547 223.973 18.4473 223.643 18.0645 223.236C17.6855 222.826 17.4961 222.307 17.4961 221.678C17.4961 221.037 17.6816 220.512 18.0527 220.102C18.4277 219.691 18.9414 219.447 19.5938 219.369V218.086H20.4668V219.375C21.123 219.465 21.6328 219.74 21.9961 220.201C22.3633 220.662 22.5469 221.293 22.5469 222.094H21.4688C21.4688 221.543 21.3379 221.105 21.0762 220.781C20.8145 220.457 20.4609 220.295 20.0156 220.295C19.5508 220.295 19.1953 220.416 18.9492 220.658C18.7031 220.896 18.5801 221.23 18.5801 221.66C18.5801 222.059 18.709 222.377 18.9668 222.615C19.2285 222.85 19.6562 223.064 20.25 223.26C20.8477 223.451 21.3125 223.664 21.6445 223.898C21.9805 224.129 22.2266 224.398 22.3828 224.707C22.543 225.016 22.623 225.377 22.623 225.791C22.623 226.451 22.4238 226.982 22.0254 227.385C21.6309 227.787 21.0762 228.025 20.3613 228.1V229.219H19.4941V228.1C18.7676 228.033 18.1973 227.775 17.7832 227.326C17.373 226.873 17.168 226.26 17.168 225.486H18.252C18.252 226.029 18.3945 226.447 18.6797 226.74C18.9648 227.033 19.3691 227.18 19.8926 227.18C20.4043 227.18 20.8066 227.057 21.0996 226.811C21.3926 226.564 21.5391 226.229 21.5391 225.803ZM25.5469 223.207H26.3613C26.873 223.199 27.2754 223.064 27.5684 222.803C27.8613 222.541 28.0078 222.188 28.0078 221.742C28.0078 220.742 27.5098 220.242 26.5137 220.242C26.0449 220.242 25.6699 220.377 25.3887 220.646C25.1113 220.912 24.9727 221.266 24.9727 221.707H23.8887C23.8887 221.031 24.1348 220.471 24.627 220.025C25.123 219.576 25.752 219.352 26.5137 219.352C27.3184 219.352 27.9492 219.564 28.4062 219.99C28.8633 220.416 29.0918 221.008 29.0918 221.766C29.0918 222.137 28.9707 222.496 28.7285 222.844C28.4902 223.191 28.1641 223.451 27.75 223.623C28.2188 223.771 28.5801 224.018 28.834 224.361C29.0918 224.705 29.2207 225.125 29.2207 225.621C29.2207 226.387 28.9707 226.994 28.4707 227.443C27.9707 227.893 27.3203 228.117 26.5195 228.117C25.7188 228.117 25.0664 227.9 24.5625 227.467C24.0625 227.033 23.8125 226.461 23.8125 225.75H24.9023C24.9023 226.199 25.0488 226.559 25.3418 226.828C25.6348 227.098 26.0273 227.232 26.5195 227.232C27.043 227.232 27.4434 227.096 27.7207 226.822C27.998 226.549 28.1367 226.156 28.1367 225.645C28.1367 225.148 27.9844 224.768 27.6797 224.502C27.375 224.236 26.9355 224.1 26.3613 224.092H25.5469V223.207ZM36.0586 224.361C36.0586 225.631 35.8418 226.574 35.4082 227.191C34.9746 227.809 34.2969 228.117 33.375 228.117C32.4648 228.117 31.791 227.816 31.3535 227.215C30.916 226.609 30.6895 225.707 30.6738 224.508V223.061C30.6738 221.807 30.8906 220.875 31.3242 220.266C31.7578 219.656 32.4375 219.352 33.3633 219.352C34.2812 219.352 34.957 219.646 35.3906 220.236C35.8242 220.822 36.0469 221.729 36.0586 222.955V224.361ZM34.9746 222.879C34.9746 221.961 34.8457 221.293 34.5879 220.875C34.3301 220.453 33.9219 220.242 33.3633 220.242C32.8086 220.242 32.4043 220.451 32.1504 220.869C31.8965 221.287 31.7656 221.93 31.7578 222.797V224.531C31.7578 225.453 31.8906 226.135 32.1562 226.576C32.4258 227.014 32.832 227.232 33.375 227.232C33.9102 227.232 34.3066 227.025 34.5645 226.611C34.8262 226.197 34.9629 225.545 34.9746 224.654V222.879ZM42.7969 224.361C42.7969 225.631 42.5801 226.574 42.1465 227.191C41.7129 227.809 41.0352 228.117 40.1133 228.117C39.2031 228.117 38.5293 227.816 38.0918 227.215C37.6543 226.609 37.4277 225.707 37.4121 224.508V223.061C37.4121 221.807 37.6289 220.875 38.0625 220.266C38.4961 219.656 39.1758 219.352 40.1016 219.352C41.0195 219.352 41.6953 219.646 42.1289 220.236C42.5625 220.822 42.7852 221.729 42.7969 222.955V224.361ZM41.7129 222.879C41.7129 221.961 41.584 221.293 41.3262 220.875C41.0684 220.453 40.6602 220.242 40.1016 220.242C39.5469 220.242 39.1426 220.451 38.8887 220.869C38.6348 221.287 38.5039 221.93 38.4961 222.797V224.531C38.4961 225.453 38.6289 226.135 38.8945 226.576C39.1641 227.014 39.5703 227.232 40.1133 227.232C40.6484 227.232 41.0449 227.025 41.3027 226.611C41.5645 226.197 41.7012 225.545 41.7129 224.654V222.879ZM46.6348 224.033L45.5918 225.117V228H44.4668V219.469H45.5918V223.688L49.3828 219.469H50.7422L47.3848 223.236L51.0059 228H49.6582L46.6348 224.033Z" fill="white" fill-opacity="0.7"/>
<path d="M21.5391 249.803C21.5391 249.443 21.4121 249.141 21.1582 248.895C20.9082 248.648 20.4844 248.426 19.8867 248.227C19.0547 247.973 18.4473 247.643 18.0645 247.236C17.6855 246.826 17.4961 246.307 17.4961 245.678C17.4961 245.037 17.6816 244.512 18.0527 244.102C18.4277 243.691 18.9414 243.447 19.5938 243.369V242.086H20.4668V243.375C21.123 243.465 21.6328 243.74 21.9961 244.201C22.3633 244.662 22.5469 245.293 22.5469 246.094H21.4688C21.4688 245.543 21.3379 245.105 21.0762 244.781C20.8145 244.457 20.4609 244.295 20.0156 244.295C19.5508 244.295 19.1953 244.416 18.9492 244.658C18.7031 244.896 18.5801 245.23 18.5801 245.66C18.5801 246.059 18.709 246.377 18.9668 246.615C19.2285 246.85 19.6562 247.064 20.25 247.26C20.8477 247.451 21.3125 247.664 21.6445 247.898C21.9805 248.129 22.2266 248.398 22.3828 248.707C22.543 249.016 22.623 249.377 22.623 249.791C22.623 250.451 22.4238 250.982 22.0254 251.385C21.6309 251.787 21.0762 252.025 20.3613 252.1V253.219H19.4941V252.1C18.7676 252.033 18.1973 251.775 17.7832 251.326C17.373 250.873 17.168 250.26 17.168 249.486H18.252C18.252 250.029 18.3945 250.447 18.6797 250.74C18.9648 251.033 19.3691 251.18 19.8926 251.18C20.4043 251.18 20.8066 251.057 21.0996 250.811C21.3926 250.564 21.5391 250.229 21.5391 249.803ZM29.5605 252H23.9707V251.221L26.9238 247.939C27.3613 247.443 27.6621 247.041 27.8262 246.732C27.9941 246.42 28.0781 246.098 28.0781 245.766C28.0781 245.32 27.9434 244.955 27.6738 244.67C27.4043 244.385 27.0449 244.242 26.5957 244.242C26.0566 244.242 25.6367 244.396 25.3359 244.705C25.0391 245.01 24.8906 245.436 24.8906 245.982H23.8066C23.8066 245.197 24.0586 244.562 24.5625 244.078C25.0703 243.594 25.748 243.352 26.5957 243.352C27.3887 243.352 28.0156 243.561 28.4766 243.979C28.9375 244.393 29.168 244.945 29.168 245.637C29.168 246.477 28.6328 247.477 27.5625 248.637L25.2773 251.115H29.5605V252ZM36.0586 248.361C36.0586 249.631 35.8418 250.574 35.4082 251.191C34.9746 251.809 34.2969 252.117 33.375 252.117C32.4648 252.117 31.791 251.816 31.3535 251.215C30.916 250.609 30.6895 249.707 30.6738 248.508V247.061C30.6738 245.807 30.8906 244.875 31.3242 244.266C31.7578 243.656 32.4375 243.352 33.3633 243.352C34.2812 243.352 34.957 243.646 35.3906 244.236C35.8242 244.822 36.0469 245.729 36.0586 246.955V248.361ZM34.9746 246.879C34.9746 245.961 34.8457 245.293 34.5879 244.875C34.3301 244.453 33.9219 244.242 33.3633 244.242C32.8086 244.242 32.4043 244.451 32.1504 244.869C31.8965 245.287 31.7656 245.93 31.7578 246.797V248.531C31.7578 249.453 31.8906 250.135 32.1562 250.576C32.4258 251.014 32.832 251.232 33.375 251.232C33.9102 251.232 34.3066 251.025 34.5645 250.611C34.8262 250.197 34.9629 249.545 34.9746 248.654V246.879ZM42.7969 248.361C42.7969 249.631 42.5801 250.574 42.1465 251.191C41.7129 251.809 41.0352 252.117 40.1133 252.117C39.2031 252.117 38.5293 251.816 38.0918 251.215C37.6543 250.609 37.4277 249.707 37.4121 248.508V247.061C37.4121 245.807 37.6289 244.875 38.0625 244.266C38.4961 243.656 39.1758 243.352 40.1016 243.352C41.0195 243.352 41.6953 243.646 42.1289 244.236C42.5625 244.822 42.7852 245.729 42.7969 246.955V248.361ZM41.7129 246.879C41.7129 245.961 41.584 245.293 41.3262 244.875C41.0684 244.453 40.6602 244.242 40.1016 244.242C39.5469 244.242 39.1426 244.451 38.8887 244.869C38.6348 245.287 38.5039 245.93 38.4961 246.797V248.531C38.4961 249.453 38.6289 250.135 38.8945 250.576C39.1641 251.014 39.5703 251.232 40.1133 251.232C40.6484 251.232 41.0449 251.025 41.3027 250.611C41.5645 250.197 41.7012 249.545 41.7129 248.654V246.879ZM46.6348 248.033L45.5918 249.117V252H44.4668V243.469H45.5918V247.688L49.3828 243.469H50.7422L47.3848 247.236L51.0059 252H49.6582L46.6348 248.033Z" fill="white" fill-opacity="0.7"/>
<path d="M21.5391 273.803C21.5391 273.443 21.4121 273.141 21.1582 272.895C20.9082 272.648 20.4844 272.426 19.8867 272.227C19.0547 271.973 18.4473 271.643 18.0645 271.236C17.6855 270.826 17.4961 270.307 17.4961 269.678C17.4961 269.037 17.6816 268.512 18.0527 268.102C18.4277 267.691 18.9414 267.447 19.5938 267.369V266.086H20.4668V267.375C21.123 267.465 21.6328 267.74 21.9961 268.201C22.3633 268.662 22.5469 269.293 22.5469 270.094H21.4688C21.4688 269.543 21.3379 269.105 21.0762 268.781C20.8145 268.457 20.4609 268.295 20.0156 268.295C19.5508 268.295 19.1953 268.416 18.9492 268.658C18.7031 268.896 18.5801 269.23 18.5801 269.66C18.5801 270.059 18.709 270.377 18.9668 270.615C19.2285 270.85 19.6562 271.064 20.25 271.26C20.8477 271.451 21.3125 271.664 21.6445 271.898C21.9805 272.129 22.2266 272.398 22.3828 272.707C22.543 273.016 22.623 273.377 22.623 273.791C22.623 274.451 22.4238 274.982 22.0254 275.385C21.6309 275.787 21.0762 276.025 20.3613 276.1V277.219H19.4941V276.1C18.7676 276.033 18.1973 275.775 17.7832 275.326C17.373 274.873 17.168 274.26 17.168 273.486H18.252C18.252 274.029 18.3945 274.447 18.6797 274.74C18.9648 275.033 19.3691 275.18 19.8926 275.18C20.4043 275.18 20.8066 275.057 21.0996 274.811C21.3926 274.564 21.5391 274.229 21.5391 273.803ZM27.5332 276H26.4434V268.775L24.2578 269.578V268.594L27.3633 267.428H27.5332V276ZM36.0586 272.361C36.0586 273.631 35.8418 274.574 35.4082 275.191C34.9746 275.809 34.2969 276.117 33.375 276.117C32.4648 276.117 31.791 275.816 31.3535 275.215C30.916 274.609 30.6895 273.707 30.6738 272.508V271.061C30.6738 269.807 30.8906 268.875 31.3242 268.266C31.7578 267.656 32.4375 267.352 33.3633 267.352C34.2812 267.352 34.957 267.646 35.3906 268.236C35.8242 268.822 36.0469 269.729 36.0586 270.955V272.361ZM34.9746 270.879C34.9746 269.961 34.8457 269.293 34.5879 268.875C34.3301 268.453 33.9219 268.242 33.3633 268.242C32.8086 268.242 32.4043 268.451 32.1504 268.869C31.8965 269.287 31.7656 269.93 31.7578 270.797V272.531C31.7578 273.453 31.8906 274.135 32.1562 274.576C32.4258 275.014 32.832 275.232 33.375 275.232C33.9102 275.232 34.3066 275.025 34.5645 274.611C34.8262 274.197 34.9629 273.545 34.9746 272.654V270.879ZM42.7969 272.361C42.7969 273.631 42.5801 274.574 42.1465 275.191C41.7129 275.809 41.0352 276.117 40.1133 276.117C39.2031 276.117 38.5293 275.816 38.0918 275.215C37.6543 274.609 37.4277 273.707 37.4121 272.508V271.061C37.4121 269.807 37.6289 268.875 38.0625 268.266C38.4961 267.656 39.1758 267.352 40.1016 267.352C41.0195 267.352 41.6953 267.646 42.1289 268.236C42.5625 268.822 42.7852 269.729 42.7969 270.955V272.361ZM41.7129 270.879C41.7129 269.961 41.584 269.293 41.3262 268.875C41.0684 268.453 40.6602 268.242 40.1016 268.242C39.5469 268.242 39.1426 268.451 38.8887 268.869C38.6348 269.287 38.5039 269.93 38.4961 270.797V272.531C38.4961 273.453 38.6289 274.135 38.8945 274.576C39.1641 275.014 39.5703 275.232 40.1133 275.232C40.6484 275.232 41.0449 275.025 41.3027 274.611C41.5645 274.197 41.7012 273.545 41.7129 272.654V270.879ZM46.6348 272.033L45.5918 273.117V276H44.4668V267.469H45.5918V271.688L49.3828 267.469H50.7422L47.3848 271.236L51.0059 276H49.6582L46.6348 272.033Z" fill="white" fill-opacity="0.7"/>
<path d="M50.3203 296.361C50.3203 297.631 50.1035 298.574 49.6699 299.191C49.2363 299.809 48.5586 300.117 47.6367 300.117C46.7266 300.117 46.0527 299.816 45.6152 299.215C45.1777 298.609 44.9512 297.707 44.9355 296.508V295.061C44.9355 293.807 45.1523 292.875 45.5859 292.266C46.0195 291.656 46.6992 291.352 47.625 291.352C48.543 291.352 49.2188 291.646 49.6523 292.236C50.0859 292.822 50.3086 293.729 50.3203 294.955V296.361ZM49.2363 294.879C49.2363 293.961 49.1074 293.293 48.8496 292.875C48.5918 292.453 48.1836 292.242 47.625 292.242C47.0703 292.242 46.666 292.451 46.4121 292.869C46.1582 293.287 46.0273 293.93 46.0195 294.797V296.531C46.0195 297.453 46.1523 298.135 46.418 298.576C46.6875 299.014 47.0938 299.232 47.6367 299.232C48.1719 299.232 48.5684 299.025 48.8262 298.611C49.0879 298.197 49.2246 297.545 49.2363 296.654V294.879Z" fill="white" fill-opacity="0.7"/>
<g clip-path="url(#clip0_761:768)">
<g clip-path="url(#clip1_761:768)">
<line x1="55.333" y1="79.5" x2="320.333" y2="79.5" stroke="white" stroke-opacity="0.5" stroke-linecap="square" stroke-dasharray="4 8"/>
<line x1="55.333" y1="107.5" x2="320.333" y2="107.5" stroke="white" stroke-opacity="0.5" stroke-linecap="square" stroke-dasharray="4 8"/>
<line x1="55.333" y1="135.5" x2="320.333" y2="135.5" stroke="white" stroke-opacity="0.5" stroke-linecap="square" stroke-dasharray="4 8"/>
<line x1="55.333" y1="163.5" x2="320.333" y2="163.5" stroke="white" stroke-opacity="0.5" stroke-linecap="square" stroke-dasharray="4 8"/>
<line x1="55.333" y1="191.5" x2="320.333" y2="191.5" stroke="white" stroke-opacity="0.5" stroke-linecap="square" stroke-dasharray="4 8"/>
<line x1="55.333" y1="219.5" x2="320.333" y2="219.5" stroke="white" stroke-opacity="0.5" stroke-linecap="square" stroke-dasharray="4 8"/>
<line x1="55.333" y1="247.5" x2="320.333" y2="247.5" stroke="white" stroke-opacity="0.5" stroke-linecap="square" stroke-dasharray="4 8"/>
<line x1="55.333" y1="275.5" x2="320.333" y2="275.5" stroke="white" stroke-opacity="0.5" stroke-linecap="square" stroke-dasharray="4 8"/>
<line x1="55.333" y1="303.5" x2="320.333" y2="303.5" stroke="white" stroke-opacity="0.5" stroke-linecap="square" stroke-dasharray="4 8"/>
</g>
<g clip-path="url(#clip2_761:768)">
<g filter="url(#filter1_d_761:768)">
<path d="M50 274L63.8999 221.494C66.1753 212.898 76.9877 210.116 83.1294 216.545V216.545C89.129 222.826 99.6697 220.341 102.232 212.042L112.332 179.322C112.721 178.063 113.314 176.877 114.088 175.811L127.565 157.252L128.128 156.544C134.631 148.363 148.752 151.64 151.185 161.803C154.059 173.808 156.921 185.463 157.208 186.73C157.565 188.306 163.954 195.176 170.541 201.901C175.868 207.341 184.832 206.296 188.919 199.872L208.175 169.61C212.16 163.347 220.818 162.168 226.332 167.136L237.657 177.34C244.735 183.717 256.065 179.7 257.544 170.289L263.572 131.949C264.175 128.113 266.598 124.806 270.073 123.073L301.724 107.297C304.336 105.996 306.384 103.787 307.485 101.085L323 63" stroke="url(#paint1_linear_761:768)" stroke-width="4"/>
</g>
<g filter="url(#filter2_d_761:768)">
<path d="M53 306L68.5856 280.746C68.9973 280.08 69.3426 279.374 69.6166 278.64L77.4995 257.515C79.6568 251.734 85.847 248.531 91.8122 250.11L93.7283 250.617C97.3321 251.571 101.157 250.276 103.44 247.328V247.328L124.876 214.744C130.215 206.628 142.481 207.889 146.058 216.921L157.473 245.742C157.89 246.794 158.453 247.782 159.147 248.677L160.651 250.616C167.312 259.208 181.051 255.222 182.08 244.399L183.27 231.891C183.38 230.735 183.657 229.602 184.092 228.525L194.437 202.962C196.271 198.43 200.672 195.464 205.561 195.464H217.035C220.419 195.464 223.646 194.035 225.921 191.529L242.324 173.457C245.092 170.408 249.229 168.991 253.285 169.703L273.098 173.182C276.326 173.749 279.645 172.971 282.285 171.029L292.783 163.304C295.528 161.285 299.001 160.527 302.337 161.221L307.792 162.355C312.628 163.36 317.586 161.299 320.285 157.162L323 153" stroke="url(#paint2_linear_761:768)" stroke-width="4"/>
</g>
<g filter="url(#filter3_d_761:768)">
<path d="M53 289L72.4261 276.693C74.347 275.476 76.5742 274.83 78.8482 274.83H96.045C101.693 274.83 106.576 270.892 107.772 265.373L115.241 230.929C115.659 228.999 116.548 227.202 117.827 225.698L125.83 216.287C130.532 210.759 139.391 212.023 142.358 218.646V218.646C145.507 225.675 155.135 226.549 159.499 220.203L168.506 207.106C171.141 203.275 175.751 201.311 180.339 202.064L186.7 203.109C191.377 203.877 196.068 201.821 198.672 197.86L212.002 177.584C212.508 176.814 212.923 175.989 213.241 175.124L221.288 153.187C224.077 145.583 233.444 142.869 239.866 147.805L248.938 154.777L269.581 167.874C276.326 172.154 285.292 168.771 287.529 161.101L300.034 118.235C301.061 114.713 303.643 111.855 307.042 110.476L323 104" stroke="url(#paint3_linear_761:768)" stroke-width="4"/>
</g>
<g filter="url(#filter4_d_761:768)">
<path d="M50 258L74.0814 242.142L96.1256 223.56C97.9082 222.057 100.09 221.106 102.404 220.824L121.127 218.535C125.019 218.06 128.434 215.712 130.272 212.249L144.953 184.581C145.25 184.022 145.591 183.486 145.973 182.981L159.675 164.812C164.021 159.049 172.435 158.4 177.614 163.427L191.818 177.215C195.769 181.05 201.823 181.704 206.502 178.801L235.314 160.926C237.734 159.425 239.541 157.112 240.412 154.401L250.316 123.58C252.973 115.313 263.26 112.517 269.736 118.303L270.748 119.207C273.926 122.047 278.371 122.987 282.427 121.679L286.691 120.304C290.37 119.117 294.403 120.053 297.182 122.739V122.739C300.259 125.711 304.835 126.513 308.739 124.764L323 118.377" stroke="url(#paint4_linear_761:768)" stroke-width="4"/>
</g>
</g>
</g>
<path d="M62.0469 321.773H58.4727L57.6699 324H56.5098L59.7676 315.469H60.752L64.0156 324H62.8613L62.0469 321.773ZM58.8125 320.848H61.7129L60.2598 316.857L58.8125 320.848ZM70.1797 324H69.0957V318.557H66.1777V324H65.0879V317.66H70.1797V324ZM77.2754 320.9C77.2754 321.865 77.0547 322.643 76.6133 323.232C76.1719 323.822 75.5742 324.117 74.8203 324.117C74.0508 324.117 73.4453 323.873 73.0039 323.385V326.438H71.9199V317.66H72.9102L72.9629 318.363C73.4043 317.816 74.0176 317.543 74.8027 317.543C75.5645 317.543 76.166 317.83 76.6074 318.404C77.0527 318.979 77.2754 319.777 77.2754 320.801V320.9ZM76.1914 320.777C76.1914 320.062 76.0391 319.498 75.7344 319.084C75.4297 318.67 75.0117 318.463 74.4805 318.463C73.8242 318.463 73.332 318.754 73.0039 319.336V322.365C73.3281 322.943 73.8242 323.232 74.4922 323.232C75.0117 323.232 75.4238 323.027 75.7285 322.617C76.0371 322.203 76.1914 321.59 76.1914 320.777ZM81.2891 324.117C80.4297 324.117 79.7305 323.836 79.1914 323.273C78.6523 322.707 78.3828 321.951 78.3828 321.006V320.807C78.3828 320.178 78.502 319.617 78.7402 319.125C78.9824 318.629 79.3184 318.242 79.748 317.965C80.1816 317.684 80.6504 317.543 81.1543 317.543C81.9785 317.543 82.6191 317.814 83.0762 318.357C83.5332 318.9 83.7617 319.678 83.7617 320.689V321.141H79.4668C79.4824 321.766 79.6641 322.271 80.0117 322.658C80.3633 323.041 80.8086 323.232 81.3477 323.232C81.7305 323.232 82.0547 323.154 82.3203 322.998C82.5859 322.842 82.8184 322.635 83.0176 322.377L83.6797 322.893C83.1484 323.709 82.3516 324.117 81.2891 324.117ZM81.1543 318.434C80.7168 318.434 80.3496 318.594 80.0527 318.914C79.7559 319.23 79.5723 319.676 79.502 320.25H82.6777V320.168C82.6465 319.617 82.498 319.191 82.2324 318.891C81.9668 318.586 81.6074 318.434 81.1543 318.434ZM90.2188 317.66V324H89.1289V318.557H86.9727L86.8438 320.93C86.7734 322.02 86.5898 322.799 86.293 323.268C86 323.736 85.5332 323.98 84.8926 324H84.459V323.045L84.7695 323.021C85.1211 322.982 85.373 322.779 85.5254 322.412C85.6777 322.045 85.7754 321.365 85.8184 320.373L85.9355 317.66H90.2188ZM93.1426 319.846H94.7891C95.5078 319.854 96.0762 320.041 96.4941 320.408C96.9121 320.775 97.1211 321.273 97.1211 321.902C97.1211 322.535 96.9062 323.043 96.4766 323.426C96.0469 323.809 95.4688 324 94.7422 324H92.0586V317.66H93.1426V319.846ZM93.1426 320.73V323.115H94.7539C95.1602 323.115 95.4746 323.012 95.6973 322.805C95.9199 322.594 96.0312 322.307 96.0312 321.943C96.0312 321.592 95.9219 321.305 95.7031 321.082C95.4883 320.855 95.1855 320.738 94.7949 320.73H93.1426ZM69.8223 340H64.2324V339.221L67.1855 335.939C67.623 335.443 67.9238 335.041 68.0879 334.732C68.2559 334.42 68.3398 334.098 68.3398 333.766C68.3398 333.32 68.2051 332.955 67.9355 332.67C67.666 332.385 67.3066 332.242 66.8574 332.242C66.3184 332.242 65.8984 332.396 65.5977 332.705C65.3008 333.01 65.1523 333.436 65.1523 333.982H64.0684C64.0684 333.197 64.3203 332.562 64.8242 332.078C65.332 331.594 66.0098 331.352 66.8574 331.352C67.6504 331.352 68.2773 331.561 68.7383 331.979C69.1992 332.393 69.4297 332.945 69.4297 333.637C69.4297 334.477 68.8945 335.477 67.8242 336.637L65.5391 339.115H69.8223V340ZM76.3203 336.361C76.3203 337.631 76.1035 338.574 75.6699 339.191C75.2363 339.809 74.5586 340.117 73.6367 340.117C72.7266 340.117 72.0527 339.816 71.6152 339.215C71.1777 338.609 70.9512 337.707 70.9355 336.508V335.061C70.9355 333.807 71.1523 332.875 71.5859 332.266C72.0195 331.656 72.6992 331.352 73.625 331.352C74.543 331.352 75.2188 331.646 75.6523 332.236C76.0859 332.822 76.3086 333.729 76.3203 334.955V336.361ZM75.2363 334.879C75.2363 333.961 75.1074 333.293 74.8496 332.875C74.5918 332.453 74.1836 332.242 73.625 332.242C73.0703 332.242 72.666 332.451 72.4121 332.869C72.1582 333.287 72.0273 333.93 72.0195 334.797V336.531C72.0195 337.453 72.1523 338.135 72.418 338.576C72.6875 339.014 73.0938 339.232 73.6367 339.232C74.1719 339.232 74.5684 339.025 74.8262 338.611C75.0879 338.197 75.2246 337.545 75.2363 336.654V334.879ZM83.2988 340H77.709V339.221L80.6621 335.939C81.0996 335.443 81.4004 335.041 81.5645 334.732C81.7324 334.42 81.8164 334.098 81.8164 333.766C81.8164 333.32 81.6816 332.955 81.4121 332.67C81.1426 332.385 80.7832 332.242 80.334 332.242C79.7949 332.242 79.375 332.396 79.0742 332.705C78.7773 333.01 78.6289 333.436 78.6289 333.982H77.5449C77.5449 333.197 77.7969 332.562 78.3008 332.078C78.8086 331.594 79.4863 331.352 80.334 331.352C81.127 331.352 81.7539 331.561 82.2148 331.979C82.6758 332.393 82.9062 332.945 82.9062 333.637C82.9062 334.477 82.3711 335.477 81.3008 336.637L79.0156 339.115H83.2988V340ZM88.0098 340H86.9199V332.775L84.7344 333.578V332.594L87.8398 331.428H88.0098V340Z" fill="white" fill-opacity="0.7"/>
<path d="M114.979 315.469L117.768 322.43L120.557 315.469H122.016V324H120.891V320.678L120.996 317.092L118.195 324H117.334L114.539 317.109L114.65 320.678V324H113.525V315.469H114.979ZM127.746 324C127.684 323.875 127.633 323.652 127.594 323.332C127.09 323.855 126.488 324.117 125.789 324.117C125.164 324.117 124.65 323.941 124.248 323.59C123.85 323.234 123.65 322.785 123.65 322.242C123.65 321.582 123.9 321.07 124.4 320.707C124.904 320.34 125.611 320.156 126.521 320.156H127.576V319.658C127.576 319.279 127.463 318.979 127.236 318.756C127.01 318.529 126.676 318.416 126.234 318.416C125.848 318.416 125.523 318.514 125.262 318.709C125 318.904 124.869 319.141 124.869 319.418H123.779C123.779 319.102 123.891 318.797 124.113 318.504C124.34 318.207 124.645 317.973 125.027 317.801C125.414 317.629 125.838 317.543 126.299 317.543C127.029 317.543 127.602 317.727 128.016 318.094C128.43 318.457 128.645 318.959 128.66 319.6V322.518C128.66 323.1 128.734 323.562 128.883 323.906V324H127.746ZM125.947 323.174C126.287 323.174 126.609 323.086 126.914 322.91C127.219 322.734 127.439 322.506 127.576 322.225V320.924H126.727C125.398 320.924 124.734 321.312 124.734 322.09C124.734 322.43 124.848 322.695 125.074 322.887C125.301 323.078 125.592 323.174 125.947 323.174ZM134.461 317.66H135.545V324H134.461V319.377L131.537 324H130.453V317.66H131.537V322.289L134.461 317.66ZM134.754 315.352C134.754 315.824 134.592 316.205 134.268 316.494C133.947 316.779 133.525 316.922 133.002 316.922C132.479 316.922 132.055 316.777 131.73 316.488C131.406 316.199 131.244 315.82 131.244 315.352H132.129C132.129 315.625 132.203 315.84 132.352 315.996C132.5 316.148 132.717 316.225 133.002 316.225C133.275 316.225 133.488 316.148 133.641 315.996C133.797 315.844 133.875 315.629 133.875 315.352H134.754ZM117.322 340H111.732V339.221L114.686 335.939C115.123 335.443 115.424 335.041 115.588 334.732C115.756 334.42 115.84 334.098 115.84 333.766C115.84 333.32 115.705 332.955 115.436 332.67C115.166 332.385 114.807 332.242 114.357 332.242C113.818 332.242 113.398 332.396 113.098 332.705C112.801 333.01 112.652 333.436 112.652 333.982H111.568C111.568 333.197 111.82 332.562 112.324 332.078C112.832 331.594 113.51 331.352 114.357 331.352C115.15 331.352 115.777 331.561 116.238 331.979C116.699 332.393 116.93 332.945 116.93 333.637C116.93 334.477 116.395 335.477 115.324 336.637L113.039 339.115H117.322V340ZM123.82 336.361C123.82 337.631 123.604 338.574 123.17 339.191C122.736 339.809 122.059 340.117 121.137 340.117C120.227 340.117 119.553 339.816 119.115 339.215C118.678 338.609 118.451 337.707 118.436 336.508V335.061C118.436 333.807 118.652 332.875 119.086 332.266C119.52 331.656 120.199 331.352 121.125 331.352C122.043 331.352 122.719 331.646 123.152 332.236C123.586 332.822 123.809 333.729 123.82 334.955V336.361ZM122.736 334.879C122.736 333.961 122.607 333.293 122.35 332.875C122.092 332.453 121.684 332.242 121.125 332.242C120.57 332.242 120.166 332.451 119.912 332.869C119.658 333.287 119.527 333.93 119.52 334.797V336.531C119.52 337.453 119.652 338.135 119.918 338.576C120.188 339.014 120.594 339.232 121.137 339.232C121.672 339.232 122.068 339.025 122.326 338.611C122.588 338.197 122.725 337.545 122.736 336.654V334.879ZM130.799 340H125.209V339.221L128.162 335.939C128.6 335.443 128.9 335.041 129.064 334.732C129.232 334.42 129.316 334.098 129.316 333.766C129.316 333.32 129.182 332.955 128.912 332.67C128.643 332.385 128.283 332.242 127.834 332.242C127.295 332.242 126.875 332.396 126.574 332.705C126.277 333.01 126.129 333.436 126.129 333.982H125.045C125.045 333.197 125.297 332.562 125.801 332.078C126.309 331.594 126.986 331.352 127.834 331.352C128.627 331.352 129.254 331.561 129.715 331.979C130.176 332.393 130.406 332.945 130.406 333.637C130.406 334.477 129.871 335.477 128.801 336.637L126.516 339.115H130.799V340ZM135.51 340H134.42V332.775L132.234 333.578V332.594L135.34 331.428H135.51V340Z" fill="white" fill-opacity="0.7"/>
<path d="M157.508 315.469H158.633V324H157.508V317.426L153.307 324H152.176V315.469H153.307V322.043L157.508 315.469ZM161.697 320.35H163.221C163.303 319.506 163.602 318.828 164.117 318.316C164.637 317.801 165.291 317.543 166.08 317.543C166.908 317.543 167.586 317.822 168.113 318.381C168.641 318.939 168.926 319.666 168.969 320.561L168.975 320.9C168.975 321.518 168.854 322.074 168.611 322.57C168.369 323.066 168.029 323.449 167.592 323.719C167.154 323.984 166.654 324.117 166.092 324.117C165.275 324.117 164.607 323.852 164.088 323.32C163.568 322.785 163.277 322.092 163.215 321.24H161.697V324H160.613V317.66H161.697V320.35ZM164.287 320.9C164.287 321.604 164.449 322.168 164.773 322.594C165.102 323.02 165.541 323.232 166.092 323.232C166.643 323.232 167.078 323.016 167.398 322.582C167.723 322.148 167.885 321.545 167.885 320.771C167.885 320.08 167.721 319.518 167.393 319.084C167.064 318.65 166.627 318.434 166.08 318.434C165.541 318.434 165.107 318.646 164.779 319.072C164.451 319.498 164.287 320.107 164.287 320.9ZM175.426 317.66V324H174.336V318.557H172.18L172.051 320.93C171.98 322.02 171.797 322.799 171.5 323.268C171.207 323.736 170.74 323.98 170.1 324H169.666V323.045L169.977 323.021C170.328 322.982 170.58 322.779 170.732 322.412C170.885 322.045 170.982 321.365 171.025 320.373L171.143 317.66H175.426ZM178.35 319.846H179.996C180.715 319.854 181.283 320.041 181.701 320.408C182.119 320.775 182.328 321.273 182.328 321.902C182.328 322.535 182.113 323.043 181.684 323.426C181.254 323.809 180.676 324 179.949 324H177.266V317.66H178.35V319.846ZM178.35 320.73V323.115H179.961C180.367 323.115 180.682 323.012 180.904 322.805C181.127 322.594 181.238 322.307 181.238 321.943C181.238 321.592 181.129 321.305 180.91 321.082C180.695 320.855 180.393 320.738 180.002 320.73H178.35ZM159.822 340H154.232V339.221L157.186 335.939C157.623 335.443 157.924 335.041 158.088 334.732C158.256 334.42 158.34 334.098 158.34 333.766C158.34 333.32 158.205 332.955 157.936 332.67C157.666 332.385 157.307 332.242 156.857 332.242C156.318 332.242 155.898 332.396 155.598 332.705C155.301 333.01 155.152 333.436 155.152 333.982H154.068C154.068 333.197 154.32 332.562 154.824 332.078C155.332 331.594 156.01 331.352 156.857 331.352C157.65 331.352 158.277 331.561 158.738 331.979C159.199 332.393 159.43 332.945 159.43 333.637C159.43 334.477 158.895 335.477 157.824 336.637L155.539 339.115H159.822V340ZM166.32 336.361C166.32 337.631 166.104 338.574 165.67 339.191C165.236 339.809 164.559 340.117 163.637 340.117C162.727 340.117 162.053 339.816 161.615 339.215C161.178 338.609 160.951 337.707 160.936 336.508V335.061C160.936 333.807 161.152 332.875 161.586 332.266C162.02 331.656 162.699 331.352 163.625 331.352C164.543 331.352 165.219 331.646 165.652 332.236C166.086 332.822 166.309 333.729 166.32 334.955V336.361ZM165.236 334.879C165.236 333.961 165.107 333.293 164.85 332.875C164.592 332.453 164.184 332.242 163.625 332.242C163.07 332.242 162.666 332.451 162.412 332.869C162.158 333.287 162.027 333.93 162.02 334.797V336.531C162.02 337.453 162.152 338.135 162.418 338.576C162.688 339.014 163.094 339.232 163.637 339.232C164.172 339.232 164.568 339.025 164.826 338.611C165.088 338.197 165.225 337.545 165.236 336.654V334.879ZM173.299 340H167.709V339.221L170.662 335.939C171.1 335.443 171.4 335.041 171.564 334.732C171.732 334.42 171.816 334.098 171.816 333.766C171.816 333.32 171.682 332.955 171.412 332.67C171.143 332.385 170.783 332.242 170.334 332.242C169.795 332.242 169.375 332.396 169.074 332.705C168.777 333.01 168.629 333.436 168.629 333.982H167.545C167.545 333.197 167.797 332.562 168.301 332.078C168.809 331.594 169.486 331.352 170.334 331.352C171.127 331.352 171.754 331.561 172.215 331.979C172.676 332.393 172.906 332.945 172.906 333.637C172.906 334.477 172.371 335.477 171.301 336.637L169.016 339.115H173.299V340ZM178.01 340H176.92V332.775L174.734 333.578V332.594L177.84 331.428H178.01V340Z" fill="white" fill-opacity="0.7"/>
<path d="M202.473 315.469H203.598V324H202.473V317.426L198.271 324H197.141V315.469H198.271V322.043L202.473 315.469ZM206.662 320.35H208.186C208.268 319.506 208.566 318.828 209.082 318.316C209.602 317.801 210.256 317.543 211.045 317.543C211.873 317.543 212.551 317.822 213.078 318.381C213.605 318.939 213.891 319.666 213.934 320.561L213.939 320.9C213.939 321.518 213.818 322.074 213.576 322.57C213.334 323.066 212.994 323.449 212.557 323.719C212.119 323.984 211.619 324.117 211.057 324.117C210.24 324.117 209.572 323.852 209.053 323.32C208.533 322.785 208.242 322.092 208.18 321.24H206.662V324H205.578V317.66H206.662V320.35ZM209.252 320.9C209.252 321.604 209.414 322.168 209.738 322.594C210.066 323.02 210.506 323.232 211.057 323.232C211.607 323.232 212.043 323.016 212.363 322.582C212.688 322.148 212.85 321.545 212.85 320.771C212.85 320.08 212.686 319.518 212.357 319.084C212.029 318.65 211.592 318.434 211.045 318.434C210.506 318.434 210.072 318.646 209.744 319.072C209.416 319.498 209.252 320.107 209.252 320.9ZM220.455 324H219.371V321.293H216.459V324H215.369V317.66H216.459V320.408H219.371V317.66H220.455V324ZM223.385 319.846H225.031C225.75 319.854 226.318 320.041 226.736 320.408C227.154 320.775 227.363 321.273 227.363 321.902C227.363 322.535 227.148 323.043 226.719 323.426C226.289 323.809 225.711 324 224.984 324H222.301V317.66H223.385V319.846ZM223.385 320.73V323.115H224.996C225.402 323.115 225.717 323.012 225.939 322.805C226.162 322.594 226.273 322.307 226.273 321.943C226.273 321.592 226.164 321.305 225.945 321.082C225.73 320.855 225.428 320.738 225.037 320.73H223.385ZM204.822 340H199.232V339.221L202.186 335.939C202.623 335.443 202.924 335.041 203.088 334.732C203.256 334.42 203.34 334.098 203.34 333.766C203.34 333.32 203.205 332.955 202.936 332.67C202.666 332.385 202.307 332.242 201.857 332.242C201.318 332.242 200.898 332.396 200.598 332.705C200.301 333.01 200.152 333.436 200.152 333.982H199.068C199.068 333.197 199.32 332.562 199.824 332.078C200.332 331.594 201.01 331.352 201.857 331.352C202.65 331.352 203.277 331.561 203.738 331.979C204.199 332.393 204.43 332.945 204.43 333.637C204.43 334.477 203.895 335.477 202.824 336.637L200.539 339.115H204.822V340ZM211.32 336.361C211.32 337.631 211.104 338.574 210.67 339.191C210.236 339.809 209.559 340.117 208.637 340.117C207.727 340.117 207.053 339.816 206.615 339.215C206.178 338.609 205.951 337.707 205.936 336.508V335.061C205.936 333.807 206.152 332.875 206.586 332.266C207.02 331.656 207.699 331.352 208.625 331.352C209.543 331.352 210.219 331.646 210.652 332.236C211.086 332.822 211.309 333.729 211.32 334.955V336.361ZM210.236 334.879C210.236 333.961 210.107 333.293 209.85 332.875C209.592 332.453 209.184 332.242 208.625 332.242C208.07 332.242 207.666 332.451 207.412 332.869C207.158 333.287 207.027 333.93 207.02 334.797V336.531C207.02 337.453 207.152 338.135 207.418 338.576C207.688 339.014 208.094 339.232 208.637 339.232C209.172 339.232 209.568 339.025 209.826 338.611C210.088 338.197 210.225 337.545 210.236 336.654V334.879ZM218.299 340H212.709V339.221L215.662 335.939C216.1 335.443 216.4 335.041 216.564 334.732C216.732 334.42 216.816 334.098 216.816 333.766C216.816 333.32 216.682 332.955 216.412 332.67C216.143 332.385 215.783 332.242 215.334 332.242C214.795 332.242 214.375 332.396 214.074 332.705C213.777 333.01 213.629 333.436 213.629 333.982H212.545C212.545 333.197 212.797 332.562 213.301 332.078C213.809 331.594 214.486 331.352 215.334 331.352C216.127 331.352 216.754 331.561 217.215 331.979C217.676 332.393 217.906 332.945 217.906 333.637C217.906 334.477 217.371 335.477 216.301 336.637L214.016 339.115H218.299V340ZM223.01 340H221.92V332.775L219.734 333.578V332.594L222.84 331.428H223.01V340Z" fill="white" fill-opacity="0.7"/>
<path d="M248.758 321.773H245.184L244.381 324H243.221L246.479 315.469H247.463L250.727 324H249.572L248.758 321.773ZM245.523 320.848H248.424L246.971 316.857L245.523 320.848ZM251.805 324V317.66H254.277C255.121 317.66 255.768 317.809 256.217 318.105C256.67 318.398 256.896 318.83 256.896 319.4C256.896 319.693 256.809 319.959 256.633 320.197C256.457 320.432 256.197 320.611 255.854 320.736C256.236 320.826 256.543 321.002 256.773 321.264C257.008 321.525 257.125 321.838 257.125 322.201C257.125 322.783 256.91 323.229 256.48 323.537C256.055 323.846 255.451 324 254.67 324H251.805ZM252.889 321.217V323.127H254.682C255.135 323.127 255.473 323.043 255.695 322.875C255.922 322.707 256.035 322.471 256.035 322.166C256.035 321.533 255.57 321.217 254.641 321.217H252.889ZM252.889 320.35H254.289C255.305 320.35 255.812 320.053 255.812 319.459C255.812 318.865 255.332 318.559 254.371 318.539H252.889V320.35ZM262.656 318.557H259.732V324H258.643V317.66H262.656V318.557ZM263.623 323.432C263.623 323.244 263.678 323.088 263.787 322.963C263.9 322.838 264.068 322.775 264.291 322.775C264.514 322.775 264.682 322.838 264.795 322.963C264.912 323.088 264.971 323.244 264.971 323.432C264.971 323.611 264.912 323.762 264.795 323.883C264.682 324.004 264.514 324.064 264.291 324.064C264.068 324.064 263.9 324.004 263.787 323.883C263.678 323.762 263.623 323.611 263.623 323.432ZM247.322 340H241.732V339.221L244.686 335.939C245.123 335.443 245.424 335.041 245.588 334.732C245.756 334.42 245.84 334.098 245.84 333.766C245.84 333.32 245.705 332.955 245.436 332.67C245.166 332.385 244.807 332.242 244.357 332.242C243.818 332.242 243.398 332.396 243.098 332.705C242.801 333.01 242.652 333.436 242.652 333.982H241.568C241.568 333.197 241.82 332.562 242.324 332.078C242.832 331.594 243.51 331.352 244.357 331.352C245.15 331.352 245.777 331.561 246.238 331.979C246.699 332.393 246.93 332.945 246.93 333.637C246.93 334.477 246.395 335.477 245.324 336.637L243.039 339.115H247.322V340ZM253.82 336.361C253.82 337.631 253.604 338.574 253.17 339.191C252.736 339.809 252.059 340.117 251.137 340.117C250.227 340.117 249.553 339.816 249.115 339.215C248.678 338.609 248.451 337.707 248.436 336.508V335.061C248.436 333.807 248.652 332.875 249.086 332.266C249.52 331.656 250.199 331.352 251.125 331.352C252.043 331.352 252.719 331.646 253.152 332.236C253.586 332.822 253.809 333.729 253.82 334.955V336.361ZM252.736 334.879C252.736 333.961 252.607 333.293 252.35 332.875C252.092 332.453 251.684 332.242 251.125 332.242C250.57 332.242 250.166 332.451 249.912 332.869C249.658 333.287 249.527 333.93 249.52 334.797V336.531C249.52 337.453 249.652 338.135 249.918 338.576C250.188 339.014 250.594 339.232 251.137 339.232C251.672 339.232 252.068 339.025 252.326 338.611C252.588 338.197 252.725 337.545 252.736 336.654V334.879ZM260.799 340H255.209V339.221L258.162 335.939C258.6 335.443 258.9 335.041 259.064 334.732C259.232 334.42 259.316 334.098 259.316 333.766C259.316 333.32 259.182 332.955 258.912 332.67C258.643 332.385 258.283 332.242 257.834 332.242C257.295 332.242 256.875 332.396 256.574 332.705C256.277 333.01 256.129 333.436 256.129 333.982H255.045C255.045 333.197 255.297 332.562 255.801 332.078C256.309 331.594 256.986 331.352 257.834 331.352C258.627 331.352 259.254 331.561 259.715 331.979C260.176 332.393 260.406 332.945 260.406 333.637C260.406 334.477 259.871 335.477 258.801 336.637L256.516 339.115H260.799V340ZM265.51 340H264.42V332.775L262.234 333.578V332.594L265.34 331.428H265.51V340Z" fill="white" fill-opacity="0.7"/>
<path d="M288.748 321.293C288.643 322.195 288.309 322.893 287.746 323.385C287.188 323.873 286.443 324.117 285.514 324.117C284.506 324.117 283.697 323.756 283.088 323.033C282.482 322.311 282.18 321.344 282.18 320.133V319.312C282.18 318.52 282.32 317.822 282.602 317.221C282.887 316.619 283.289 316.158 283.809 315.838C284.328 315.514 284.93 315.352 285.613 315.352C286.52 315.352 287.246 315.605 287.793 316.113C288.34 316.617 288.658 317.316 288.748 318.211H287.617C287.52 317.531 287.307 317.039 286.979 316.734C286.654 316.43 286.199 316.277 285.613 316.277C284.895 316.277 284.33 316.543 283.92 317.074C283.514 317.605 283.311 318.361 283.311 319.342V320.168C283.311 321.094 283.504 321.83 283.891 322.377C284.277 322.924 284.818 323.197 285.514 323.197C286.139 323.197 286.617 323.057 286.949 322.775C287.285 322.49 287.508 321.996 287.617 321.293H288.748ZM292.75 324.117C291.891 324.117 291.191 323.836 290.652 323.273C290.113 322.707 289.844 321.951 289.844 321.006V320.807C289.844 320.178 289.963 319.617 290.201 319.125C290.443 318.629 290.779 318.242 291.209 317.965C291.643 317.684 292.111 317.543 292.615 317.543C293.439 317.543 294.08 317.814 294.537 318.357C294.994 318.9 295.223 319.678 295.223 320.689V321.141H290.928C290.943 321.766 291.125 322.271 291.473 322.658C291.824 323.041 292.27 323.232 292.809 323.232C293.191 323.232 293.516 323.154 293.781 322.998C294.047 322.842 294.279 322.635 294.479 322.377L295.141 322.893C294.609 323.709 293.812 324.117 292.75 324.117ZM292.615 318.434C292.178 318.434 291.811 318.594 291.514 318.914C291.217 319.23 291.033 319.676 290.963 320.25H294.139V320.168C294.107 319.617 293.959 319.191 293.693 318.891C293.428 318.586 293.068 318.434 292.615 318.434ZM301.662 324H300.578V321.293H297.666V324H296.576V317.66H297.666V320.408H300.578V317.66H301.662V324ZM308.119 318.539H305.992V324H304.908V318.539H302.822V317.66H308.119V318.539ZM309.197 323.432C309.197 323.244 309.252 323.088 309.361 322.963C309.475 322.838 309.643 322.775 309.865 322.775C310.088 322.775 310.256 322.838 310.369 322.963C310.486 323.088 310.545 323.244 310.545 323.432C310.545 323.611 310.486 323.762 310.369 323.883C310.256 324.004 310.088 324.064 309.865 324.064C309.643 324.064 309.475 324.004 309.361 323.883C309.252 323.762 309.197 323.611 309.197 323.432ZM289.322 340H283.732V339.221L286.686 335.939C287.123 335.443 287.424 335.041 287.588 334.732C287.756 334.42 287.84 334.098 287.84 333.766C287.84 333.32 287.705 332.955 287.436 332.67C287.166 332.385 286.807 332.242 286.357 332.242C285.818 332.242 285.398 332.396 285.098 332.705C284.801 333.01 284.652 333.436 284.652 333.982H283.568C283.568 333.197 283.82 332.562 284.324 332.078C284.832 331.594 285.51 331.352 286.357 331.352C287.15 331.352 287.777 331.561 288.238 331.979C288.699 332.393 288.93 332.945 288.93 333.637C288.93 334.477 288.395 335.477 287.324 336.637L285.039 339.115H289.322V340ZM295.82 336.361C295.82 337.631 295.604 338.574 295.17 339.191C294.736 339.809 294.059 340.117 293.137 340.117C292.227 340.117 291.553 339.816 291.115 339.215C290.678 338.609 290.451 337.707 290.436 336.508V335.061C290.436 333.807 290.652 332.875 291.086 332.266C291.52 331.656 292.199 331.352 293.125 331.352C294.043 331.352 294.719 331.646 295.152 332.236C295.586 332.822 295.809 333.729 295.82 334.955V336.361ZM294.736 334.879C294.736 333.961 294.607 333.293 294.35 332.875C294.092 332.453 293.684 332.242 293.125 332.242C292.57 332.242 292.166 332.451 291.912 332.869C291.658 333.287 291.527 333.93 291.52 334.797V336.531C291.52 337.453 291.652 338.135 291.918 338.576C292.188 339.014 292.594 339.232 293.137 339.232C293.672 339.232 294.068 339.025 294.326 338.611C294.588 338.197 294.725 337.545 294.736 336.654V334.879ZM302.799 340H297.209V339.221L300.162 335.939C300.6 335.443 300.9 335.041 301.064 334.732C301.232 334.42 301.316 334.098 301.316 333.766C301.316 333.32 301.182 332.955 300.912 332.67C300.643 332.385 300.283 332.242 299.834 332.242C299.295 332.242 298.875 332.396 298.574 332.705C298.277 333.01 298.129 333.436 298.129 333.982H297.045C297.045 333.197 297.297 332.562 297.801 332.078C298.309 331.594 298.986 331.352 299.834 331.352C300.627 331.352 301.254 331.561 301.715 331.979C302.176 332.393 302.406 332.945 302.406 333.637C302.406 334.477 301.871 335.477 300.801 336.637L298.516 339.115H302.799V340ZM307.51 340H306.42V332.775L304.234 333.578V332.594L307.34 331.428H307.51V340Z" fill="white" fill-opacity="0.7"/>
</g>
<defs>
<filter id="filter0_d_761:768" x="3" y="5" width="322" height="354" filterUnits="userSpaceOnUse" color-interpolation-filters="sRGB">
<feFlood flood-opacity="0" result="BackgroundImageFix"/>
<feColorMatrix in="SourceAlpha" type="matrix" values="0 0 0 0 0 0 0 0 0 0 0 0 0 0 0 0 0 0 127 0" result="hardAlpha"/>
<feOffset dy="2"/>
<feGaussianBlur stdDeviation="2.5"/>
<feComposite in2="hardAlpha" operator="out"/>
<feColorMatrix type="matrix" values="0 0 0 0 0 0 0 0 0 0 0 0 0 0 0 0 0 0 0.15 0"/>
<feBlend mode="normal" in2="BackgroundImageFix" result="effect1_dropShadow_761:768"/>
<feBlend mode="normal" in="SourceGraphic" in2="effect1_dropShadow_761:768" result="shape"/>
</filter>
<filter id="filter1_d_761:768" x="46.0664" y="62.2456" width="280.786" height="218.266" filterUnits="userSpaceOnUse" color-interpolation-filters="sRGB">
<feFlood flood-opacity="0" result="BackgroundImageFix"/>
<feColorMatrix in="SourceAlpha" type="matrix" values="0 0 0 0 0 0 0 0 0 0 0 0 0 0 0 0 0 0 127 0" result="hardAlpha"/>
<feOffset dy="4"/>
<feGaussianBlur stdDeviation="1"/>
<feComposite in2="hardAlpha" operator="out"/>
<feColorMatrix type="matrix" values="0 0 0 0 0.509804 0 0 0 0 0.847059 0 0 0 0 0.980392 0 0 0 0.5 0"/>
<feBlend mode="normal" in2="BackgroundImageFix" result="effect1_dropShadow_761:768"/>
<feBlend mode="normal" in="SourceGraphic" in2="effect1_dropShadow_761:768" result="shape"/>
</filter>
<filter id="filter2_d_761:768" x="49.2979" y="151.907" width="277.377" height="161.143" filterUnits="userSpaceOnUse" color-interpolation-filters="sRGB">
<feFlood flood-opacity="0" result="BackgroundImageFix"/>
<feColorMatrix in="SourceAlpha" type="matrix" values="0 0 0 0 0 0 0 0 0 0 0 0 0 0 0 0 0 0 127 0" result="hardAlpha"/>
<feOffset dy="4"/>
<feGaussianBlur stdDeviation="1"/>
<feComposite in2="hardAlpha" operator="out"/>
<feColorMatrix type="matrix" values="0 0 0 0 0.0117647 0 0 0 0 0.878431 0 0 0 0 0.772549 0 0 0 0.5 0"/>
<feBlend mode="normal" in2="BackgroundImageFix" result="effect1_dropShadow_761:768"/>
<feBlend mode="normal" in="SourceGraphic" in2="effect1_dropShadow_761:768" result="shape"/>
</filter>
<filter id="filter3_d_761:768" x="49.9297" y="102.147" width="275.822" height="194.542" filterUnits="userSpaceOnUse" color-interpolation-filters="sRGB">
<feFlood flood-opacity="0" result="BackgroundImageFix"/>
<feColorMatrix in="SourceAlpha" type="matrix" values="0 0 0 0 0 0 0 0 0 0 0 0 0 0 0 0 0 0 127 0" result="hardAlpha"/>
<feOffset dy="4"/>
<feGaussianBlur stdDeviation="1"/>
<feComposite in2="hardAlpha" operator="out"/>
<feColorMatrix type="matrix" values="0 0 0 0 0.192157 0 0 0 0 0.443137 0 0 0 0 0.937255 0 0 0 0.5 0"/>
<feBlend mode="normal" in2="BackgroundImageFix" result="effect1_dropShadow_761:768"/>
<feBlend mode="normal" in="SourceGraphic" in2="effect1_dropShadow_761:768" result="shape"/>
</filter>
<filter id="filter4_d_761:768" x="46.8999" y="113.245" width="278.917" height="152.426" filterUnits="userSpaceOnUse" color-interpolation-filters="sRGB">
<feFlood flood-opacity="0" result="BackgroundImageFix"/>
<feColorMatrix in="SourceAlpha" type="matrix" values="0 0 0 0 0 0 0 0 0 0 0 0 0 0 0 0 0 0 127 0" result="hardAlpha"/>
<feOffset dy="4"/>
<feGaussianBlur stdDeviation="1"/>
<feComposite in2="hardAlpha" operator="out"/>
<feColorMatrix type="matrix" values="0 0 0 0 0.0313726 0 0 0 0 0.623529 0 0 0 0 0.854902 0 0 0 0.5 0"/>
<feBlend mode="normal" in2="BackgroundImageFix" result="effect1_dropShadow_761:768"/>
<feBlend mode="normal" in="SourceGraphic" in2="effect1_dropShadow_761:768" result="shape"/>
</filter>
<linearGradient id="paint0_linear_761:768" x1="4.96666" y1="2.61518" x2="367.011" y2="51.9005" gradientUnits="userSpaceOnUse">
<stop stop-color="#0068EC"/>
<stop offset="1" stop-color="#00BBF9"/>
</linearGradient>
<linearGradient id="paint1_linear_761:768" x1="323.17" y1="71" x2="48.2454" y2="278.864" gradientUnits="userSpaceOnUse">
<stop stop-color="#30FFF3"/>
<stop offset="1" stop-color="#CFFCFF"/>
</linearGradient>
<linearGradient id="paint2_linear_761:768" x1="323.168" y1="158.801" x2="116.069" y2="372.369" gradientUnits="userSpaceOnUse">
<stop stop-color="#02EFD3"/>
<stop offset="1" stop-color="#9EFFEE"/>
</linearGradient>
<linearGradient id="paint3_linear_761:768" x1="323.168" y1="111.014" x2="75.7762" y2="322.005" gradientUnits="userSpaceOnUse">
<stop stop-color="#3274F4"/>
<stop offset="1" stop-color="white"/>
</linearGradient>
<linearGradient id="paint4_linear_761:768" x1="323.17" y1="111.763" x2="117.568" y2="327.554" gradientUnits="userSpaceOnUse">
<stop stop-color="#76D6FF"/>
<stop offset="1" stop-color="#D5F4FF"/>
</linearGradient>
<clipPath id="clip0_761:768">
<rect width="256" height="232" fill="white" transform="translate(54.833 72)"/>
</clipPath>
<clipPath id="clip1_761:768">
<rect width="256" height="232" fill="white" transform="translate(54.833 72)"/>
</clipPath>
<clipPath id="clip2_761:768">
<rect width="256" height="232" fill="white" transform="translate(54.833 72)"/>
</clipPath>
</defs>
</svg>
