<svg width="120" height="24" viewBox="0 0 120 24" fill="none" xmlns="http://www.w3.org/2000/svg">
<g clip-path="url(#clip0)">
<path fill-rule="evenodd" clip-rule="evenodd" d="M43.541 8.69022C43.541 8.4723 43.6754 8.35585 43.8442 8.35585C44.1298 8.35585 44.561 8.69022 44.8042 9.35897C44.717 9.35897 44.5858 9.38808 44.4978 9.38808C43.9778 9.38808 43.541 9.11547 43.541 8.69022V8.69022ZM12.08 8.69022C12.08 8.4723 12.2088 8.35585 12.3849 8.35585C12.6633 8.35585 13.0769 8.69022 13.3169 9.35897C12.5137 9.35897 12.08 9.16752 12.08 8.69022ZM18.1481 5.23442C18.1481 1.65688 18.7801 1.10723 18.9761 1.10723C19.3249 1.10723 19.3665 1.3472 19.3665 2.71911C19.3665 4.12896 18.8217 5.97375 18.1481 6.98658V5.23442ZM40.237 8.76168C39.8626 9.33691 39.5594 10.1539 39.5594 11.2064C39.5594 13.2224 40.6018 15.1466 42.6274 15.1466C44.5858 15.1466 45.9578 13.4403 45.9578 11.0608C45.9578 10.37 45.9338 10.2748 45.893 9.98802C46.3482 9.76922 46.741 9.43484 47.0466 9.16752C47.3066 8.95137 47.501 8.8305 47.6562 8.8305C47.8514 8.8305 47.937 8.99901 47.937 9.31045V14.0182C47.937 14.7848 48.157 15.1466 48.6986 15.1466C49.1978 15.1466 49.549 14.7601 49.7434 14.3049C50.4634 12.6489 51.5058 10.4415 51.961 9.60336C52.0706 9.41102 52.1594 9.26369 52.2218 9.26369C52.309 9.26369 52.3538 9.33691 52.3538 9.64747V13.3953C52.3538 14.4496 52.7906 15.1466 53.7442 15.1466C54.7474 15.1466 55.245 14.087 56.1218 12.4557C56.1634 12.3578 56.1818 12.2881 56.1818 12.2184C56.1818 12.0022 56.0122 11.8796 55.837 11.8796C55.6394 11.8796 55.5306 12.0975 54.8794 12.8871C54.7474 13.0371 54.6194 13.2453 54.3778 13.2453C54.2914 13.2453 54.225 13.1297 54.225 12.9833V8.78197C54.225 7.65357 53.7674 7.19833 53.1802 7.19833C52.7026 7.19833 52.309 7.41448 51.8962 8.08676C51.1562 9.28927 50.3946 10.9947 49.9826 11.854C49.9362 11.9546 49.8738 12.0975 49.8314 12.0975C49.7858 12.0975 49.7666 12.0234 49.7666 11.854V8.78197C49.7666 7.89619 49.549 7.19833 48.6986 7.19833C47.8058 7.19833 47.3498 7.87149 46.697 8.37437C46.2834 8.71404 45.9146 8.95137 45.633 9.09518C45.1954 7.87149 44.3914 7.25126 43.717 7.26979C43.0402 7.29537 42.5618 7.75415 42.5618 8.52259C42.5618 9.31045 42.9994 9.85921 43.5842 10.1036C43.909 10.2474 44.2146 10.2748 44.6522 10.2748C44.7834 10.2748 44.913 10.2748 44.997 10.2474C45.0434 10.4865 45.0226 10.8271 45.0226 11.09C45.0226 12.2678 44.3914 13.4403 43.2178 13.4403C41.9962 13.4403 41.281 12.1443 41.281 10.6577C41.281 9.52837 41.5842 8.59406 42.081 7.94825C42.2818 7.70651 42.4314 7.56006 42.4314 7.33861C42.4314 7.22656 42.2818 7.19833 42.1498 7.19833C41.321 7.19833 40.4098 7.6077 39.7802 7.96589C38.949 8.44672 37.9721 9.24164 37.1657 10.033C36.7745 9.07048 36.2961 8.23057 36.0553 7.58035C35.9689 7.31655 35.9057 7.01041 35.7313 7.01041C35.5769 7.01041 35.5097 7.17804 35.4033 7.50888C35.0129 8.78198 32.9225 12.5051 32.4657 13.0089C32.4225 13.0777 32.3593 13.1536 32.3385 13.1536C32.2913 13.1536 32.2665 13.1297 32.2665 12.9833V8.78198C32.2665 7.65358 31.8537 7.19833 31.2921 7.19833C30.8113 7.19833 30.3993 7.41448 30.0081 8.08676C29.2913 9.28928 28.4169 11.0414 28.0049 11.9034C27.9385 12.0516 27.8729 12.0975 27.8505 12.0975C27.8289 12.0975 27.8113 12.0022 27.8113 11.854V8.78198C27.8113 7.65358 27.3961 7.19833 26.8297 7.19833C26.3497 7.19833 25.8953 7.39507 25.5233 8.08676C24.6113 9.79305 23.0889 12.4089 22.8057 12.8377C22.7617 12.9118 22.7177 12.9603 22.6745 12.9833C22.6313 12.9833 22.6065 12.9365 22.6065 12.8174V8.78198C22.6065 7.65358 22.1937 7.19833 21.6313 7.19833C20.8465 7.19833 20.4137 7.99413 20.1281 8.49525C19.7345 9.19135 19.2145 10.1292 18.8025 10.9947C18.5185 11.5734 18.2777 12.0975 18.1897 12.0975C18.1481 12.0975 18.1481 11.8796 18.1481 11.4729V8.25792C19.5169 6.57458 20.3665 4.51274 20.3665 2.25682C20.3665 0.958135 19.8465 0.241744 19.0433 0.241744C17.5385 0.241744 16.3881 2.83469 16.3881 5.90406V8.39996C15.6905 8.88079 15.0369 9.11547 14.2305 9.28928C13.8185 7.94825 12.9465 7.25127 12.2529 7.26979C11.5801 7.29538 11.0992 7.75415 11.0992 8.5226C11.0992 9.79305 12.2313 10.3206 13.2297 10.3206H13.5129C13.5553 10.5624 13.5553 10.8271 13.5553 11.09C13.5553 12.2678 12.9249 13.4403 11.7529 13.4403C10.5352 13.4403 9.81525 12.1443 9.81525 10.6577C9.81525 9.52837 10.1168 8.59406 10.6176 7.94825C10.8153 7.70651 10.9689 7.49036 10.9689 7.33861C10.9689 7.22656 10.8152 7.19833 10.6832 7.19833C9.85685 7.19833 8.03124 8.42731 5.85363 10.827C5.66082 8.90637 5.44162 7.03246 5.44162 5.20796C5.44162 3.16906 5.80722 1.43719 5.89442 0.937838C5.93843 0.628166 5.96562 0.433188 5.96562 0.292027C5.96562 0.0988126 5.87282 0 5.63842 0C3.87362 0 0 3.0976 0 7.72944C0 11.0141 1.0904 12.5995 2.98001 14.6393C1.83281 16.6799 0.912804 19.1026 0.912804 21.2632C0.912804 22.8204 1.24241 24 2.28401 24C4.46082 24 6.09122 19.0108 6.09122 15.3124C6.09122 14.2096 6.05122 13.1041 5.96562 12.0022C6.76803 11.0608 8.00883 9.79304 8.31123 9.67305C8.18163 10.1777 8.09443 10.7071 8.09443 11.2064C8.09443 13.2224 9.14084 15.1466 11.1624 15.1466C13.0585 15.1466 14.4921 13.4403 14.4921 11.0608C14.4921 10.7538 14.4697 10.4865 14.4505 10.1998C15.1433 10.056 15.7809 9.85921 16.3881 9.45778V14.2811C16.3881 14.9022 16.7769 15.1466 17.1473 15.1466C17.6505 15.1466 17.9113 14.7601 18.2777 13.877C18.5857 13.1536 19.4097 11.4993 19.9097 10.5121C20.3041 9.74187 20.5217 9.24163 20.6969 9.24163C20.7377 9.24163 20.7841 9.35897 20.7841 9.64747V13.7526C20.7841 14.8572 21.3065 15.1466 21.7585 15.1466C22.1937 15.1466 22.4785 14.8828 22.7617 14.4496C23.8945 12.6718 25.0929 10.5624 25.5681 9.64747C25.6561 9.48337 25.7641 9.35897 25.8521 9.35897C25.9369 9.35897 25.9809 9.41102 25.9809 9.71893V14.0182C25.9809 14.7848 26.1985 15.1466 26.7449 15.1466C27.2425 15.1466 27.5681 14.7601 27.7625 14.3049C28.4857 12.6489 29.5489 10.4636 30.0081 9.60336C30.1145 9.41102 30.2241 9.24163 30.2889 9.24163C30.3793 9.24163 30.3993 9.35897 30.3993 9.67305V13.7526C30.3993 14.8572 30.9217 15.1466 31.3817 15.1466C31.9857 15.1466 32.3817 14.664 32.7729 14.1143C33.4865 13.0777 34.5321 11.2373 35.1641 10.056C35.3833 10.4415 35.6201 10.8985 35.8193 11.4014C35.2961 12.0975 34.7729 12.8871 34.7729 13.7261C34.7729 14.6154 35.3385 15.1466 35.9265 15.1466C36.9257 15.1466 37.8385 14.087 37.8385 12.626C37.8385 12.0516 37.6889 11.4499 37.4945 10.8756C38.3817 9.91303 39.4498 8.97695 40.237 8.76168H40.237ZM4.39362 13.9935C4.56962 15.2639 4.72242 16.5149 4.72242 17.4969C4.72242 19.7969 4.02802 22.4861 2.83041 22.464C2.36801 22.464 1.97921 21.9541 1.96001 21.0709C1.91601 18.1939 3.15601 15.7447 4.39362 13.9935ZM36.1642 12.3578C36.2962 12.7707 36.3625 13.1041 36.3625 13.4403C36.3625 13.8249 36.2313 14.2096 35.9905 14.2096C35.8193 14.2096 35.6449 13.9935 35.6449 13.6564C35.6449 13.2956 35.9265 12.7195 36.1642 12.3578ZM5.17922 0.912253C5.17922 1.05871 4.87442 1.72834 4.48402 2.92997C4.07042 4.17572 3.67602 5.94993 3.67602 8.08676C3.67602 9.35897 3.96162 11.0414 4.20242 12.7442L3.50561 13.78C2.39441 12.2881 1.69921 10.6109 1.69921 7.72944C1.69921 3.65077 3.94002 0.82138 5.09122 0.82138C5.16002 0.82138 5.17922 0.842555 5.17922 0.912252L5.17922 0.912253Z" fill="#D51900"/>
<path fill-rule="evenodd" clip-rule="evenodd" d="M107.361 8.69022C107.361 8.4723 107.488 8.35585 107.664 8.35585C107.945 8.35585 108.381 8.69022 108.619 9.35897C108.535 9.35897 108.404 9.38808 108.313 9.38808C107.795 9.38808 107.361 9.11547 107.361 8.69022ZM75.8937 8.69022C75.8937 8.4723 76.0265 8.35585 76.1985 8.35585C76.4817 8.35585 76.8993 8.69022 77.1337 9.35897C76.3289 9.35897 75.8937 9.16752 75.8937 8.69022ZM81.9657 5.23442C81.9657 1.65688 82.5937 1.10723 82.7921 1.10723C83.1393 1.10723 83.1833 1.3472 83.1833 2.71911C83.1833 4.12896 82.6377 5.97375 81.9657 6.98658V5.23442ZM68.2152 13.9935C68.384 15.2639 68.5424 16.5149 68.5424 17.4969C68.5424 19.7969 67.8472 22.4861 66.6472 22.464C66.1912 22.464 65.7992 21.9541 65.7776 21.0709C65.7328 18.1939 66.9752 15.7447 68.2152 13.9935ZM99.985 12.3578C100.117 12.7707 100.179 13.1041 100.179 13.4403C100.179 13.8249 100.049 14.2096 99.8098 14.2096C99.6378 14.2096 99.4586 13.9935 99.4586 13.6564C99.4586 13.2956 99.7442 12.7195 99.985 12.3578ZM68.9944 0.912253C68.9944 1.05871 68.6928 1.72834 68.2984 2.92997C67.888 4.17572 67.4936 5.94993 67.4936 8.08676C67.4936 9.35897 67.784 11.0414 68.0216 12.7442L67.3232 13.78C66.2152 12.2881 65.5152 10.6109 65.5152 7.72944C65.5152 3.65077 67.7608 0.82138 68.912 0.82138C68.9752 0.82138 68.9944 0.842555 68.9944 0.912253ZM65.3664 12.9118C65.7552 13.4879 66.2352 14.0393 66.8008 14.6393C65.6464 16.6799 64.7336 19.1026 64.7336 21.2632C64.7336 22.8204 65.0624 24 66.1072 24C68.2808 24 69.9112 19.0108 69.9112 15.3124C69.9112 14.2096 69.8688 13.1041 69.7816 12.0022C70.588 11.0608 71.824 9.79304 72.1328 9.67305C72.0016 10.1777 71.9112 10.7071 71.9112 11.2064C71.9112 13.2224 72.9568 15.1466 74.9825 15.1466C76.8737 15.1466 78.3097 13.4403 78.3097 11.0608C78.3097 10.7538 78.2897 10.4865 78.2657 10.1998C78.9633 10.056 79.5985 9.85921 80.2041 9.45778V14.2811C80.2041 14.9022 80.5937 15.1466 80.9609 15.1466C81.4681 15.1466 81.7289 14.7601 82.0969 13.877C82.4001 13.1536 83.2289 11.4993 83.7305 10.5121C84.1209 9.74187 84.3385 9.24163 84.5169 9.24163C84.5577 9.24163 84.5985 9.35897 84.5985 9.64747V13.7526C84.5985 14.8572 85.1193 15.1466 85.5769 15.1466C86.0137 15.1466 86.2937 14.8828 86.5825 14.4496C87.7105 12.6718 88.9089 10.5624 89.3865 9.64747C89.4737 9.48337 89.5841 9.35897 89.6681 9.35897C89.7529 9.35897 89.8009 9.41102 89.8009 9.71893V14.0182C89.8009 14.7848 90.0161 15.1466 90.5593 15.1466C91.0601 15.1466 91.3865 14.7601 91.5841 14.3049C92.3025 12.6489 93.3681 10.4636 93.8233 9.60336C93.9345 9.41102 94.0425 9.24163 94.1105 9.24163C94.1953 9.24163 94.2193 9.35897 94.2193 9.67305V13.7526C94.2193 14.8572 94.7369 15.1466 95.193 15.1466C95.8066 15.1466 96.1986 14.664 96.5874 14.1143C97.305 13.0777 98.3522 11.2373 98.9826 10.056C99.1978 10.4415 99.4402 10.8985 99.6378 11.4014C99.1098 12.0975 98.593 12.8871 98.593 13.7261C98.593 14.6154 99.1522 15.1466 99.7442 15.1466C100.743 15.1466 101.656 14.087 101.656 12.626C101.656 12.0516 101.505 11.4499 101.309 10.8756C102.2 9.91303 103.267 8.97695 104.051 8.76168C103.681 9.33691 103.376 10.1539 103.376 11.2064C103.376 13.2224 104.422 15.1466 106.446 15.1466C108.404 15.1466 109.771 13.4403 109.771 11.0608C109.771 10.37 109.751 10.2748 109.711 9.98802C110.163 9.76922 110.557 9.43484 110.865 9.16752C111.12 8.95137 111.32 8.8305 111.47 8.8305C111.667 8.8305 111.759 8.99901 111.759 9.31045V14.0182C111.759 14.7848 111.973 15.1466 112.517 15.1466C113.015 15.1466 113.366 14.7601 113.563 14.3049C114.276 12.6489 115.323 10.4415 115.778 9.60336C115.887 9.41102 115.975 9.26369 116.041 9.26369C116.13 9.26369 116.172 9.33691 116.172 9.64747V13.3953C116.172 14.4496 116.603 15.1466 117.563 15.1466C118.567 15.1466 119.067 14.087 119.939 12.4557C119.979 12.3578 120 12.2881 120 12.2184C120 12.0022 119.826 11.8796 119.653 11.8796C119.459 11.8796 119.347 12.0975 118.696 12.8871C118.567 13.0371 118.435 13.2453 118.196 13.2453C118.107 13.2453 118.045 13.1297 118.045 12.9833V8.78197C118.045 7.65357 117.583 7.19833 116.995 7.19833C116.519 7.19833 116.13 7.41448 115.715 8.08676C114.973 9.28927 114.214 10.9947 113.803 11.854C113.756 11.9546 113.693 12.0975 113.647 12.0975C113.6 12.0975 113.583 12.0234 113.583 11.854V8.78197C113.583 7.89619 113.366 7.19833 112.517 7.19833C111.623 7.19833 111.168 7.87149 110.516 8.37437C110.099 8.71404 109.731 8.95137 109.446 9.09518C109.015 7.87149 108.207 7.25126 107.535 7.26979C106.857 7.29537 106.383 7.75415 106.383 8.52259C106.383 9.31045 106.818 9.85921 107.4 10.1036C107.727 10.2474 108.032 10.2748 108.473 10.2748C108.6 10.2748 108.727 10.2748 108.819 10.2474C108.862 10.4865 108.839 10.8271 108.839 11.09C108.839 12.2678 108.207 13.4403 107.031 13.4403C105.813 13.4403 105.098 12.1443 105.098 10.6577C105.098 9.52837 105.4 8.59406 105.899 7.94825C106.097 7.70651 106.251 7.56006 106.251 7.33861C106.251 7.22656 106.097 7.19833 105.967 7.19833C105.143 7.19833 104.227 7.6077 103.595 7.96589C102.767 8.44672 101.788 9.24164 100.986 10.033C100.593 9.07047 100.117 8.23057 99.8746 7.58034C99.785 7.31655 99.7258 7.01041 99.545 7.01041C99.3946 7.01041 99.3282 7.17803 99.221 7.50888C98.8282 8.78197 96.741 12.5051 96.2842 13.0089C96.2402 13.0777 96.1754 13.1536 96.1521 13.1536C96.1113 13.1536 96.0874 13.1297 96.0874 12.9833V8.78197C96.0874 7.65357 95.6769 7.19833 95.1057 7.19833C94.6265 7.19833 94.2193 7.41448 93.8233 8.08676C93.1041 9.28927 92.2361 11.0414 91.8225 11.9034C91.7585 12.0516 91.6945 12.0975 91.6737 12.0975C91.6489 12.0975 91.6265 12.0022 91.6265 11.854V8.78197C91.6265 7.65357 91.2161 7.19833 90.6497 7.19833C90.1697 7.19833 89.7097 7.39507 89.3433 8.08676C88.4265 9.79304 86.9057 12.4089 86.6209 12.8377C86.5825 12.9118 86.5361 12.9603 86.4897 12.9833C86.4513 12.9833 86.4257 12.9365 86.4257 12.8174V8.78197C86.4257 7.65357 86.0137 7.19833 85.4457 7.19833C84.6601 7.19833 84.2281 7.99412 83.9433 8.49524C83.5521 9.19134 83.0329 10.1292 82.6177 10.9947C82.3369 11.5734 82.0969 12.0975 82.0097 12.0975C81.9657 12.0975 81.9657 11.8796 81.9657 11.4729V8.25791C83.3385 6.57457 84.1841 4.51274 84.1841 2.25681C84.1841 0.95813 83.6633 0.241738 82.8553 0.241738C81.3561 0.241738 80.2041 2.83469 80.2041 5.90406V8.39996C79.5057 8.88079 78.8529 9.11547 78.0465 9.28927C77.6361 7.94824 76.7649 7.25126 76.0729 7.26979C75.3937 7.29537 74.9168 7.75415 74.9168 8.52259C74.9168 9.79304 76.0449 10.3206 77.0481 10.3206H77.3329C77.3729 10.5624 77.3729 10.827 77.3729 11.09C77.3729 12.2678 76.744 13.4403 75.568 13.4403C74.3488 13.4403 73.6344 12.1443 73.6344 10.6577C73.6344 9.52836 73.9384 8.59405 74.4352 7.94824C74.6304 7.7065 74.784 7.49035 74.784 7.3386C74.784 7.22656 74.6304 7.19833 74.5016 7.19833C73.6736 7.19833 71.8472 8.42731 69.6688 10.827C69.4776 8.90637 69.2576 7.03246 69.2576 5.20796C69.2576 3.16906 69.6272 1.43719 69.7144 0.937838C69.7576 0.628166 69.7816 0.433188 69.7816 0.292027C69.7816 0.0988126 69.6928 0 69.4576 0C67.6944 0 63.8208 3.0976 63.8208 7.72944C63.8208 9.62276 64.1904 10.97 64.8432 12.1443C64.6 12.0975 64.4088 12.0975 64.2304 12.0975C63.5368 12.0975 62.8816 12.2881 62.4752 12.386V11.9034C62.4752 10.8756 62.2544 9.45778 61.8616 8.97695C61.8152 8.92755 61.7504 8.90637 61.6896 8.90637C61.5104 8.90637 61.296 8.99901 61.0576 9.14458C60.7936 9.28927 60.5328 9.43484 60.5328 9.52836C60.5328 9.57424 60.5328 9.62276 60.5984 9.74187C60.752 9.98802 61.1664 10.4636 61.316 11.5946C60.5744 10.7776 59.7296 10.415 58.624 10.415C57.316 10.415 56.9224 11.0608 56.9224 11.7128C56.9224 12.9603 58.424 13.5841 60.32 13.5841C60.6672 13.5841 61.0576 13.5117 61.4472 13.4138C61.4472 13.7985 61.4912 14.139 61.4912 14.4249C61.4912 14.8334 61.5544 15.1466 61.7968 15.1466C62.1656 15.1466 62.3848 14.327 62.4264 13.1536C63.1008 12.9603 63.7984 12.7945 64.388 12.7945C64.6696 12.7945 65.0216 12.8377 65.3664 12.9118ZM61.08 12.6718C60.7136 12.7195 60.4904 12.7195 60.1024 12.7195C59.2512 12.7195 58.624 12.3578 58.624 11.8346C58.624 11.4993 58.7744 11.3043 59.2096 11.3043C59.9072 11.3043 60.4696 11.8346 61.08 12.6718Z" fill="#D51900"/>
</g>
<defs>
<clipPath id="clip0">
<rect width="120" height="24" fill="white"/>
</clipPath>
</defs>
</svg>
