<svg width="80" height="80" viewBox="0 0 80 80" fill="none" xmlns="http://www.w3.org/2000/svg">
<path d="M53.7793 51.5058C54.7815 50.1624 55.4692 48.6111 55.7917 46.9663C56.1143 45.3216 56.0634 43.6254 55.6428 42.003C55.2223 40.3806 54.4428 38.8733 53.3619 37.5924C52.281 36.3115 50.9263 35.2896 49.3978 34.6023C49.0648 32.6866 48.2996 30.872 47.1603 29.2964C46.021 27.7208 44.5376 26.4256 42.8228 25.5093C41.1079 24.593 39.2068 24.0796 37.2638 24.0081C35.3208 23.9367 33.3871 24.3091 31.6096 25.0971C29.8322 25.885 28.2576 27.0678 27.0057 28.5555C25.7538 30.0432 24.8575 31.7967 24.3848 33.6827C23.9121 35.5688 23.8755 37.5378 24.2778 39.4401C24.6801 41.3424 25.5106 43.128 26.7064 44.6612L24.4836 46.8681C24.2617 47.093 24.1114 47.3786 24.0517 47.6888C23.9919 47.999 24.0254 48.32 24.1478 48.6112C24.2678 48.9033 24.4715 49.1533 24.7333 49.3297C24.9951 49.5062 25.3033 49.6012 25.619 49.6027H34.7179C35.6241 51.5131 37.0527 53.1278 38.8384 54.2599C40.6242 55.392 42.694 55.9951 44.8083 55.9995H54.403C54.7187 55.9979 55.0268 55.9029 55.2887 55.7265C55.5505 55.55 55.7542 55.3001 55.8741 55.008C55.9966 54.7168 56.0301 54.3958 55.9703 54.0856C55.9105 53.7753 55.7602 53.4898 55.5383 53.2649L53.7793 51.5058ZM33.6146 44.8051C33.6167 45.3407 33.6595 45.8753 33.7425 46.4043H29.4729L30.0325 45.8606C30.1824 45.7119 30.3014 45.5351 30.3826 45.3402C30.4638 45.1453 30.5056 44.9363 30.5056 44.7252C30.5056 44.5141 30.4638 44.305 30.3826 44.1102C30.3014 43.9153 30.1824 43.7384 30.0325 43.5898C29.1363 42.7033 28.4258 41.6471 27.9426 40.4829C27.4594 39.3186 27.2131 38.0697 27.2181 36.8092C27.2181 34.2644 28.229 31.8238 30.0283 30.0244C31.8277 28.2249 34.2681 27.214 36.8128 27.214C38.7984 27.2021 40.7378 27.8127 42.3584 28.9601C43.979 30.1075 45.1993 31.7339 45.8477 33.6108C45.4959 33.6108 45.1601 33.6108 44.8083 33.6108C41.8395 33.6108 38.9924 34.7902 36.8931 36.8895C34.7939 38.9889 33.6146 41.8362 33.6146 44.8051ZM50.4692 52.8011L50.5491 52.8811H44.8083C42.9587 52.8778 41.1674 52.2333 39.7396 51.0574C38.3119 49.8814 37.336 48.2469 36.9781 46.4321C36.6203 44.6173 36.9026 42.7346 37.7772 41.1046C38.6517 39.4747 40.0642 38.1984 41.7741 37.4931C43.484 36.7879 45.3855 36.6973 47.1547 37.2368C48.9239 37.7764 50.4514 38.9126 51.4768 40.4521C52.5023 41.9915 52.9623 43.8388 52.7786 45.6794C52.5949 47.52 51.7787 49.2399 50.4692 50.5463C50.1679 50.8415 49.9954 51.2439 49.9894 51.6657C49.9903 51.8773 50.0332 52.0866 50.1155 52.2815C50.1979 52.4764 50.3181 52.653 50.4692 52.8011Z" fill="url(#paint0_linear)"/>
<rect x="1.5" y="1.5" width="77" height="77" rx="38.5" stroke="url(#paint1_linear)" stroke-width="3"/>
<defs>
<linearGradient id="paint0_linear" x1="23.6899" y1="23.4986" x2="60.6774" y2="29.0502" gradientUnits="userSpaceOnUse">
<stop stop-color="#0068EC"/>
<stop offset="1" stop-color="#00BBF9"/>
</linearGradient>
<linearGradient id="paint1_linear" x1="-0.77778" y1="-1.25228" x2="91.6912" y2="12.6267" gradientUnits="userSpaceOnUse">
<stop stop-color="#0068EC"/>
<stop offset="1" stop-color="#00BBF9"/>
</linearGradient>
</defs>
</svg>
